<svg width="192" height="155" viewBox="0 0 192 155" fill="none" xmlns="http://www.w3.org/2000/svg">
<path fill-rule="evenodd" clip-rule="evenodd" d="M141.598 66.8737C147.346 56.0699 148.203 42.0233 142.779 28.7883C133.773 6.81386 110.862 -4.60209 91.6044 3.29007C74.6073 10.2559 66.1381 29.9353 70.5765 49.5685C60.2534 31.3718 39.859 22.5159 22.5184 29.6225C3.45447 37.4354 -4.69937 61.5829 4.30633 83.5573C8.65168 94.1602 16.1981 102.32 24.9864 107.048L21.0001 121L110.5 134.5L141.598 66.8737Z" fill="url(#paint0_linear)"/>
<path fill-rule="evenodd" clip-rule="evenodd" d="M142.779 28.7883C148.203 42.0233 147.346 56.0699 141.598 66.8737L120.159 113.496C39.126 112.55 19.6348 58.1717 19.9956 30.783C20.8138 30.3638 21.6549 29.9764 22.5185 29.6225C39.859 22.5159 60.2534 31.3718 70.5765 49.5685C66.1381 29.9353 74.6073 10.2559 91.6044 3.29007C110.862 -4.60209 133.774 6.81386 142.779 28.7883Z" fill="url(#paint1_linear)"/>
<path fill-rule="evenodd" clip-rule="evenodd" d="M83.0854 16.4991C97.9542 16.3712 129.415 26.2705 137 63L139.042 59.7329C139.668 56.6092 140 53.3504 140 50C140 26.804 124.106 8 104.5 8C96.4567 8 89.0381 11.1647 83.0854 16.4991Z" fill="#F09D7D"/>
<path d="M65.5 77L15 96L16 99L69 79L67 67L94 114.5L84 74.5L98 94.5L95 67.5L140.5 50L139.5 47L91 65.5L93 82L77 57.5L86 94L60.5 48L65.5 77Z" fill="white"/>
<path d="M101 112.5C98.1999 112.9 61.4999 103.333 43.4999 98.5C34.4998 95 24.4999 102 13.4999 109.5C4.69992 115.5 2.83325 124.667 2.99992 128.5C14.9999 130.5 20.6666 135 21.9999 137C40.4999 152.5 74.9999 153 85.4999 154.5C95.9999 156 151 123 152.5 122C154 121 157.5 116 154.5 111C152.1 107 146.833 107.667 144.5 108.5C138.667 111.333 122.9 118.8 106.5 126C90.0999 133.2 67.9999 125 58.9999 120C86.9999 129.5 96.4999 127.5 104.5 126C110.9 124.8 111.833 121.5 111.5 120C112.5 116.5 104.5 112 101 112.5Z" fill="#EDBA9F"/>
<path fill-rule="evenodd" clip-rule="evenodd" d="M147.121 83.5778C146.673 81.5039 147.222 75.708 153.007 69.1163C154.969 66.65 158.926 60.5739 159.061 56C159.565 58.6345 161.617 65.0132 165.114 68.78C167.076 71.4144 170.966 77.4569 170.832 80.551C170.829 80.6101 170.821 80.6681 170.807 80.7251C170.934 81.4323 171 82.1609 171 82.9052C171 89.5919 165.655 95.0125 159.061 95.0125C152.69 95.0125 147.484 89.952 147.14 83.5785C147.134 83.5783 147.128 83.578 147.121 83.5778Z" fill="url(#paint2_linear)"/>
<path d="M153.007 69.1163C147.222 75.708 146.673 81.5039 147.121 83.5778C154.969 83.8581 170.697 83.6451 170.832 80.551C170.966 77.4569 167.076 71.4144 165.114 68.78C161.617 65.0132 159.565 58.6345 159.061 56C158.926 60.5739 154.969 66.65 153.007 69.1163Z" fill="url(#paint3_linear)"/>
<path d="M159.061 95.0125C165.655 95.0125 171 89.5919 171 82.9052C171 76.2185 165.655 70.7979 159.061 70.7979C152.467 70.7979 147.122 76.2185 147.122 82.9052C147.122 89.5919 152.467 95.0125 159.061 95.0125Z" fill="url(#paint4_linear)"/>
<path d="M161.247 93.8355C151.158 94.3736 148.075 86.6608 147.795 82.7371C148.064 86.1003 151.158 88.9589 152.671 89.9679C158.557 93.6674 162.761 88.6226 163.938 87.6137C165.115 86.6047 165.956 86.6047 167.133 87.2774C168.074 87.8155 167.861 89.071 167.637 89.6316C166.157 92.4566 162.761 93.6113 161.247 93.8355Z" fill="url(#paint5_linear)"/>
<path fill-rule="evenodd" clip-rule="evenodd" d="M168.121 125.578C167.673 123.504 168.222 117.708 174.007 111.116C175.969 108.65 179.926 102.574 180.061 98C180.565 100.634 182.617 107.013 186.114 110.78C188.076 113.414 191.966 119.457 191.832 122.551C191.829 122.61 191.821 122.668 191.807 122.725C191.934 123.432 192 124.161 192 124.905C192 131.592 186.655 137.013 180.061 137.013C173.69 137.013 168.484 131.952 168.14 125.578C168.134 125.578 168.128 125.578 168.121 125.578Z" fill="url(#paint6_linear)"/>
<path d="M174.007 111.116C168.222 117.708 167.673 123.504 168.121 125.578C175.969 125.858 191.697 125.645 191.832 122.551C191.966 119.457 188.076 113.414 186.114 110.78C182.617 107.013 180.565 100.634 180.061 98C179.926 102.574 175.969 108.65 174.007 111.116Z" fill="url(#paint7_linear)"/>
<path d="M180.061 137.012C186.655 137.012 192 131.592 192 124.905C192 118.218 186.655 112.798 180.061 112.798C173.467 112.798 168.122 118.218 168.122 124.905C168.122 131.592 173.467 137.012 180.061 137.012Z" fill="url(#paint8_linear)"/>
<path d="M182.247 135.836C172.158 136.374 169.075 128.661 168.795 124.737C169.064 128.1 172.158 130.959 173.671 131.968C179.557 135.667 183.761 130.623 184.938 129.614C186.115 128.605 186.956 128.605 188.133 129.277C189.074 129.815 188.861 131.071 188.637 131.632C187.157 134.457 183.761 135.611 182.247 135.836Z" fill="url(#paint9_linear)"/>
<defs>
<linearGradient id="paint0_linear" x1="103" y1="164.5" x2="-184" y2="-201.5" gradientUnits="userSpaceOnUse">
<stop stop-color="#82110D"/>
<stop offset="0.96758" stop-color="#CE0910"/>
</linearGradient>
<linearGradient id="paint1_linear" x1="136" y1="6.50001" x2="14" y2="191.5" gradientUnits="userSpaceOnUse">
<stop stop-color="#DD040C"/>
<stop offset="1" stop-color="#DD040C" stop-opacity="0"/>
</linearGradient>
<linearGradient id="paint2_linear" x1="159.229" y1="56.1682" x2="161.583" y2="145.796" gradientUnits="userSpaceOnUse">
<stop offset="0.0260417" stop-color="#710D08"/>
<stop offset="0.299841" stop-color="#E0050B"/>
<stop offset="1" stop-color="#710D08"/>
</linearGradient>
<linearGradient id="paint3_linear" x1="158.893" y1="58.5224" x2="158.893" y2="66.4258" gradientUnits="userSpaceOnUse">
<stop stop-color="#7A1E1A"/>
<stop offset="1" stop-color="#E0050B"/>
</linearGradient>
<linearGradient id="paint4_linear" x1="158.388" y1="71.3023" x2="159.229" y2="89.7996" gradientUnits="userSpaceOnUse">
<stop stop-color="#E0050B" stop-opacity="0"/>
<stop offset="1" stop-color="#700D08"/>
</linearGradient>
<linearGradient id="paint5_linear" x1="157.884" y1="87.6137" x2="157.884" y2="99.0484" gradientUnits="userSpaceOnUse">
<stop stop-color="#B63F27" stop-opacity="0.24"/>
<stop offset="1" stop-color="#7C2B18" stop-opacity="0.77"/>
</linearGradient>
<linearGradient id="paint6_linear" x1="180.229" y1="98.1682" x2="182.583" y2="187.796" gradientUnits="userSpaceOnUse">
<stop offset="0.0260417" stop-color="#710D08"/>
<stop offset="0.299841" stop-color="#E0050B"/>
<stop offset="1" stop-color="#710D08"/>
</linearGradient>
<linearGradient id="paint7_linear" x1="179.893" y1="100.522" x2="179.893" y2="108.426" gradientUnits="userSpaceOnUse">
<stop stop-color="#7A1E1A"/>
<stop offset="1" stop-color="#E0050B"/>
</linearGradient>
<linearGradient id="paint8_linear" x1="179.388" y1="113.302" x2="180.229" y2="131.8" gradientUnits="userSpaceOnUse">
<stop stop-color="#E0050B" stop-opacity="0"/>
<stop offset="1" stop-color="#700D08"/>
</linearGradient>
<linearGradient id="paint9_linear" x1="178.884" y1="129.614" x2="178.884" y2="141.048" gradientUnits="userSpaceOnUse">
<stop stop-color="#B63F27" stop-opacity="0.24"/>
<stop offset="1" stop-color="#7C2B18" stop-opacity="0.77"/>
</linearGradient>
</defs>
</svg>
