<svg width="201" height="143" viewBox="0 0 201 143" fill="none" xmlns="http://www.w3.org/2000/svg">
<path opacity="0.1" d="M67.4918 142.588C77.2316 142.588 85.1273 141.319 85.1273 139.755C85.1273 138.191 77.2316 136.923 67.4918 136.923C57.7519 136.923 49.8562 138.191 49.8562 139.755C49.8562 141.319 57.7519 142.588 67.4918 142.588Z" fill="#322864"/>
<path opacity="0.1" d="M163.356 142.667C175.51 142.667 185.363 141.399 185.363 139.835C185.363 138.27 175.51 137.002 163.356 137.002C151.202 137.002 141.35 138.27 141.35 139.835C141.35 141.399 151.202 142.667 163.356 142.667Z" fill="#322864"/>
<path opacity="0.1" d="M3.50507 62.2105H21.8736V87.2467H4.84982C4.80457 87.5037 4.76114 87.7625 4.71408 88.0213H21.8736V108.212C21.8429 108.203 21.8157 108.193 21.7868 108.182C21.3017 107.99 20.8203 107.787 20.3389 107.57L20.0312 107.431C19.5485 107.202 19.0659 106.961 18.5833 106.707C18.4149 106.618 18.2466 106.526 18.0801 106.431C15.4007 104.931 12.9666 103.029 10.8623 100.792C10.8007 100.732 10.7428 100.669 10.6813 100.611C10.3881 100.292 10.1003 99.9702 9.82159 99.6408L9.51391 99.2788C9.18451 98.8752 8.86596 98.4607 8.55647 98.0408C8.51123 97.9793 8.46779 97.9178 8.42073 97.8598C7.16204 96.1146 6.11693 94.2249 5.30772 92.2311C5.28238 92.1714 5.26067 92.1062 5.23714 92.0501C4.98858 91.4106 4.76838 90.7651 4.57653 90.1135C4.49327 89.8402 4.41364 89.5706 4.34486 89.2864C4.31952 89.2032 4.2978 89.1217 4.2779 89.0403C3.24988 85.0277 3.12862 80.8596 3.12862 76.7204C3.12862 76.2371 3.12862 75.7521 3.12862 75.2724C3.12862 73.5983 3.14853 71.9133 3.17748 70.2301C3.17748 69.7939 3.19558 69.3595 3.20463 68.9215C3.22997 67.8103 3.26617 66.699 3.31323 65.5877C3.32408 65.2782 3.33856 64.9706 3.35485 64.6629C3.35485 64.4855 3.3639 64.3081 3.382 64.1308C3.42544 63.4865 3.46164 62.8476 3.50507 62.2105Z" fill="#322864"/>
<path opacity="0.1" d="M21.8733 34.3345H11.7977C13.4355 31.7709 15.2251 29.3075 17.1567 26.9574C18.6535 25.1185 20.2336 23.3267 21.8733 21.6001V34.3345Z" fill="#322864"/>
<path opacity="0.1" d="M21.8733 35.1092V61.4358H3.56268C3.56268 61.3598 3.57535 61.282 3.58078 61.206C3.59707 60.9978 3.61336 60.7897 3.63146 60.5834C3.65137 60.3409 3.67309 60.0965 3.69661 59.8594C3.72014 59.6223 3.74548 59.3327 3.77263 59.0703C3.79978 58.8079 3.82512 58.5418 3.85588 58.2794C3.88665 58.017 3.9138 57.7545 3.94638 57.4939C3.97896 57.2333 4.00792 56.969 4.0423 56.7084C4.06945 56.4912 4.09841 56.2758 4.12737 56.0587C4.169 55.7528 4.21243 55.4451 4.25949 55.141C4.25949 55.0958 4.27216 55.0487 4.2794 55.0053C4.60974 52.7794 5.05985 50.573 5.62777 48.3956C6.22224 46.1115 6.98136 43.8734 7.89918 41.699C8.87464 39.4243 10.0168 37.2247 11.3162 35.1182L21.8733 35.1092Z" fill="#322864"/>
<path opacity="0.1" d="M26.2588 62.2086V87.2466H65.4917V62.2086H26.2588ZM26.2588 88.0195V109.521C26.4832 109.568 26.7058 109.613 26.9266 109.651C27.2271 109.709 27.5257 109.762 27.8316 109.807C27.8895 109.816 27.9492 109.825 28.0125 109.83C28.132 109.85 28.2551 109.867 28.3745 109.883C28.6768 109.925 28.9772 109.959 29.2795 109.986C29.4224 110.001 29.5672 110.013 29.712 110.024L30.0613 110.051C30.2514 110.066 30.4396 110.077 30.626 110.082C30.7419 110.082 30.8577 110.093 30.9771 110.096C31.0676 110.096 31.1581 110.096 31.2522 110.096C31.3464 110.096 31.4803 110.096 31.5943 110.096C31.75 110.096 31.9056 110.096 32.0595 110.096H32.2676C32.4232 110.096 32.5789 110.097 32.7327 110.082H32.7436C32.8504 110.082 32.959 110.082 33.0676 110.068C33.0977 110.069 33.1279 110.069 33.1581 110.068C33.2486 110.068 33.339 110.068 33.4259 110.055H33.4893L34.0956 110.008C34.2947 109.99 34.4956 109.966 34.6983 109.944L35.1109 109.896C36.7897 109.66 38.4499 109.307 40.0791 108.839C43.7387 107.818 47.3186 106.39 50.9764 105.344C55.7057 103.995 60.9308 103.333 65.5008 104.982V88.0195H26.2588ZM65.4917 34.3345V1.00181C61.1964 0.955271 56.9127 1.45766 52.7447 2.49678C42.8102 4.99261 33.8965 10.406 26.2588 17.3198V34.3327H28.2279V35.1056H26.2588V61.4358H65.4917V35.1074H36.3127V34.3345H65.4917ZM115.885 23.0752C113.427 22.9883 110.983 22.2101 108.773 21.0083C104.547 18.7098 101.172 15.1606 97.4001 12.1652C89.5633 5.92652 79.8442 2.16195 69.8735 1.22804V34.3345H125.881L126.02 34.1879L115.885 23.0752ZM120.987 22.1703L126.396 28.1067V20.6138C124.585 20.8382 122.997 21.3721 120.994 22.163L120.987 22.1703ZM126.396 114.86V88.0195H114.869C114.838 87.9054 114.808 87.7896 114.771 87.6738C114.806 87.7896 114.835 87.9054 114.867 88.0195H69.8807V107.431C70.3079 107.747 70.7296 108.08 71.1477 108.419C71.5983 108.781 72.0435 109.163 72.4906 109.537L72.9412 109.91C73.1566 110.091 73.3738 110.272 73.5928 110.442C74.0272 110.795 74.4658 111.142 74.9086 111.485C75.1276 111.666 75.352 111.829 75.5746 111.999C79.1088 114.701 82.837 117.139 86.729 119.294C87.6014 119.777 88.4816 120.248 89.3696 120.708C89.9615 121.01 90.5569 121.311 91.1542 121.602C92.0519 122.04 92.9568 122.462 93.869 122.869C102.279 126.644 111.172 129.235 120.293 130.566C122.319 130.866 124.353 131.101 126.395 131.272V114.858H126.576L126.396 114.86ZM69.8807 35.1074V61.4358H126.404V35.1074H69.8807ZM69.8807 62.2086V87.2466H126.404V62.2086H69.8807ZM130.791 20.5812V28.9393L137.695 21.3631C135.408 20.9938 133.106 20.7302 130.791 20.5721V20.5812ZM130.791 62.2177V87.2466H185.766V62.2086L130.791 62.2177ZM185.565 116.847L185.759 88.0195H130.791V131.56C134.332 131.709 137.878 131.666 141.415 131.433V131.433H141.476C143.166 131.327 144.847 131.173 146.521 130.97H146.559C155.487 129.931 164.217 127.601 172.476 124.054L185.565 116.847ZM196.367 66.3316C196.16 65.8447 195.945 65.3615 195.726 64.8837C195.317 63.9787 194.884 63.0991 194.439 62.2195H190.15V87.2466H200.995C200.989 80.1591 199.196 72.9196 196.372 66.3225L196.367 66.3316ZM190.15 88.0285V112.824C193.205 109.896 195.786 106.545 197.644 102.716C199.88 98.1042 200.902 93.1107 200.986 88.0249L190.15 88.0285ZM190.15 54.922V61.4376H194.037C192.861 59.1947 191.565 57.0166 190.155 54.913L190.15 54.922ZM152.866 25.4932C152.58 25.3846 152.294 25.2742 152.006 25.1675C148.971 24.0466 145.87 23.1146 142.72 22.3766L132.154 33.9726L131.951 34.1879L132.087 34.3363H169.693C164.455 30.7311 158.809 27.7597 152.871 25.4842L152.866 25.4932ZM170.795 35.1164H131.562L130.791 35.8223V61.4358H137.549H137.56H185.773V49.029C181.412 43.7542 176.378 39.0738 170.8 35.1074L170.795 35.1164Z" fill="#322864"/>
<path opacity="0.1" d="M21.8733 48.3882V61.4357H3.56268C3.56268 61.3597 3.57535 61.2819 3.58078 61.2059C3.59707 60.9977 3.61336 60.7896 3.63146 60.5833C3.65137 60.3408 3.67309 60.0964 3.69661 59.8593C3.72014 59.6222 3.74548 59.3327 3.77263 59.0702C3.79978 58.8078 3.82512 58.5417 3.85588 58.2793C3.88665 58.0169 3.9138 57.7544 3.94638 57.4938C3.97896 57.2332 4.00792 56.9689 4.0423 56.7083C4.06945 56.4911 4.09841 56.2757 4.12737 56.0586C4.169 55.7527 4.21243 55.445 4.25949 55.1409C4.25949 55.0957 4.27216 55.0486 4.2794 55.0052C4.60974 52.7793 5.05985 50.5729 5.62777 48.3955L21.8733 48.3882Z" fill="#322864"/>
<path opacity="0.1" d="M3.50507 62.2105H21.8736V87.2467H4.84982C4.80457 87.5037 4.76114 87.7625 4.71408 88.0213H21.8736V108.212C21.8429 108.203 21.8157 108.193 21.7868 108.182C21.3017 107.99 20.8203 107.787 20.3389 107.57L20.0312 107.431C19.5485 107.202 19.0659 106.961 18.5833 106.707C18.4149 106.618 18.2466 106.526 18.0801 106.431C15.4007 104.931 12.9666 103.029 10.8623 100.792C10.8007 100.732 10.7428 100.669 10.6813 100.611C10.3881 100.292 10.1003 99.9702 9.82159 99.6408L9.51391 99.2788C9.18451 98.8752 8.86596 98.4607 8.55647 98.0408C8.51123 97.9793 8.46779 97.9178 8.42073 97.8598C7.16204 96.1146 6.11693 94.2249 5.30772 92.2311C5.28238 92.1714 5.26067 92.1062 5.23714 92.0501C4.98858 91.4106 4.76838 90.7651 4.57653 90.1135C4.49327 89.8402 4.41364 89.5706 4.34486 89.2864C4.31952 89.2032 4.2978 89.1217 4.2779 89.0403C3.24988 85.0277 3.12862 80.8596 3.12862 76.7204C3.12862 76.2371 3.12862 75.7521 3.12862 75.2724C3.12862 73.5983 3.14853 71.9133 3.17748 70.2301C3.17748 69.7939 3.19558 69.3595 3.20463 68.9215C3.22997 67.8103 3.26617 66.699 3.31323 65.5877C3.32408 65.2782 3.33856 64.9706 3.35485 64.6629C3.35485 64.4855 3.3639 64.3081 3.382 64.1308C3.42544 63.4865 3.46164 62.8476 3.50507 62.2105Z" fill="#322864"/>
<path opacity="0.1" d="M40.07 38.8773V61.4358H26.2588V38.8773H28.2279V31.2396H36.3109V38.8773H40.07Z" fill="#322864"/>
<path opacity="0.1" d="M40.0702 62.2087H26.2608V87.2449H40.0702V62.2087Z" fill="#322864"/>
<path opacity="0.1" d="M26.2588 88.0212H40.07V108.835C38.4408 109.303 36.7807 109.656 35.1019 109.89L34.6892 109.941C34.4865 109.964 34.2856 109.984 34.0865 110.004C33.8874 110.024 33.6811 110.039 33.4802 110.051H33.4169C33.33 110.051 33.2359 110.062 33.1508 110.064H33.0585C32.9499 110.064 32.8413 110.075 32.7327 110.078C32.5789 110.087 32.4251 110.089 32.2676 110.091C32.2006 110.091 32.1373 110.091 32.0703 110.091C31.9147 110.091 31.7608 110.091 31.6052 110.091H31.2631C31.1708 110.091 31.0821 110.091 30.9862 110.091L30.6369 110.078C30.4559 110.078 30.2604 110.058 30.0722 110.046L29.7247 110.02L29.2921 109.981C28.9881 109.953 28.6858 109.919 28.3872 109.877L28.0252 109.827L27.8442 109.801C27.542 109.754 27.2433 109.704 26.9393 109.646C26.7167 109.608 26.4959 109.561 26.2714 109.515L26.2588 88.0212Z" fill="#322864"/>
<path opacity="0.1" d="M126.404 36.2132H115.016V61.434H126.404V36.2132Z" fill="#322864"/>
<path opacity="0.1" d="M126.405 62.2087V87.2467H69.8807V76.4471H99.9882V82.8179H115.016V62.2087H126.405Z" fill="#322864"/>
<path opacity="0.1" d="M126.585 114.866H126.404V131.29C124.364 131.118 122.331 130.883 120.304 130.586C111.178 129.25 102.282 126.654 93.869 122.873C91.4401 121.779 89.0607 120.586 86.7308 119.293C82.8389 117.136 79.1102 114.698 75.5746 111.997C74.6866 111.316 73.81 110.62 72.9449 109.908C72.3458 109.414 71.7503 108.908 71.1476 108.415C70.7296 108.077 70.3078 107.744 69.8807 107.425V88.0214H114.866C114.835 87.9056 114.804 87.7897 114.771 87.6757C114.806 87.7897 114.838 87.9056 114.869 88.0214H126.404V114.855C126.465 114.857 126.525 114.862 126.585 114.866Z" fill="#322864"/>
<path opacity="0.1" d="M156.104 34.3345H148.683V32.0287H152.01V25.1602C152.298 25.2652 152.585 25.3732 152.871 25.4842V32.0287H156.104V34.3345Z" fill="#322864"/>
<path opacity="0.1" d="M173.982 61.4358H137.552C137.552 61.4358 137.552 61.4358 137.565 61.4449L137.549 61.4358H130.791V36.215H132.706V54.8569H141.456V43.8166H148.685V35.1092H156.106V43.8238H163.334V54.8641H173.982V61.4358Z" fill="#322864"/>
<path opacity="0.1" d="M130.791 62.2087V87.2467H173.982V62.2087H130.791ZM185.706 116.719L185.766 96.9006H173.982V88.0322H130.791V131.56C134.332 131.709 137.878 131.666 141.415 131.433V131.433H141.476C143.165 131.327 144.847 131.173 146.52 130.97H146.558C155.487 129.931 164.217 127.601 172.476 124.054" fill="#322864"/>
<path opacity="0.1" d="M190.917 88.0212H200.993C200.904 93.1052 199.883 98.0987 197.65 102.71C195.791 106.542 193.209 109.892 190.157 112.819V96.8915H190.917V88.0212Z" fill="#322864"/>
<path opacity="0.1" d="M200.998 87.2467H190.917V66.3226H196.372C199.195 72.9196 200.989 80.1592 200.998 87.2467Z" fill="#322864"/>
<path opacity="0.1" d="M126.405 43.2247H120.304V51.1321H126.405V43.2247Z" fill="#322864"/>
<path opacity="0.1" d="M126.405 59.6152H120.304V61.4359H126.405V59.6152Z" fill="#322864"/>
<path opacity="0.1" d="M126.405 62.2087H120.304V67.5207H126.405V62.2087Z" fill="#322864"/>
<path opacity="0.1" d="M126.405 76.0055H120.304V83.9129H126.405V76.0055Z" fill="#322864"/>
<path opacity="0.1" d="M126.405 92.3958H120.304V100.303H126.405V92.3958Z" fill="#322864"/>
<path opacity="0.1" d="M126.403 114.855C126.465 114.855 126.525 114.855 126.584 114.866H126.403V116.703H120.304V108.786H126.403V114.855Z" fill="#322864"/>
<path opacity="0.1" d="M126.403 125.173V131.281C124.364 131.109 122.331 130.874 120.304 130.577V125.173H126.403Z" fill="#322864"/>
<path opacity="0.1" d="M96.0281 86.6658H69.8807V87.2468H96.0281V86.6658Z" fill="#322864"/>
<path opacity="0.1" d="M96.0281 88.0196H69.8807V90.2458H96.0281V88.0196Z" fill="#322864"/>
<path opacity="0.1" d="M96.0281 97.5432H69.8807V101.123H96.0281V97.5432Z" fill="#322864"/>
<path opacity="0.1" d="M96.0266 108.421V112.001H75.5748C74.6868 111.322 73.8096 110.626 72.9432 109.912C72.3442 109.418 71.7505 108.911 71.146 108.421H96.0266Z" fill="#322864"/>
<path opacity="0.1" d="M96.0263 119.296V122.872H93.8671C91.4406 121.778 89.0618 120.584 86.7307 119.291L96.0263 119.296Z" fill="#322864"/>
<path opacity="0.1" d="M146.564 64.6356H141.417V69.783H146.564V64.6356Z" fill="#322864"/>
<path opacity="0.1" d="M35.1148 40.6528H29.9674V45.8001H35.1148V40.6528Z" fill="#322864"/>
<path opacity="0.1" d="M35.1148 52.6091H29.9674V57.7564H35.1148V52.6091Z" fill="#322864"/>
<path opacity="0.1" d="M35.1148 64.5651H29.9674V69.7125H35.1148V64.5651Z" fill="#322864"/>
<path opacity="0.1" d="M35.1148 76.5196H29.9674V81.667H35.1148V76.5196Z" fill="#322864"/>
<path opacity="0.1" d="M35.1148 88.4757H29.9674V93.623H35.1148V88.4757Z" fill="#322864"/>
<path opacity="0.1" d="M35.1148 100.432H29.9674V105.579H35.1148V100.432Z" fill="#322864"/>
<path opacity="0.1" d="M166.214 64.6356H161.067V69.783H166.214V64.6356Z" fill="#322864"/>
<path opacity="0.1" d="M146.564 77.3321H141.417V82.4794H146.564V77.3321Z" fill="#322864"/>
<path opacity="0.1" d="M166.214 77.3321H161.067V82.4794H166.214V77.3321Z" fill="#322864"/>
<path opacity="0.1" d="M146.564 90.0266H141.417V95.1739H146.564V90.0266Z" fill="#322864"/>
<path opacity="0.1" d="M166.214 90.0266H161.067V95.1739H166.214V90.0266Z" fill="#322864"/>
<path opacity="0.1" d="M146.564 102.723H141.417V107.87H146.564V102.723Z" fill="#322864"/>
<path opacity="0.1" d="M166.214 102.723H161.067V107.87H166.214V102.723Z" fill="#322864"/>
<path opacity="0.1" d="M146.564 115.419H141.417V120.567H146.564V115.419Z" fill="#322864"/>
<path opacity="0.1" d="M166.214 115.419H161.067V120.567H166.214V115.419Z" fill="#322864"/>
<path opacity="0.1" d="M141.417 131.433V128.114H146.562V130.961L141.417 131.433Z" fill="#322864"/>
<path opacity="0.1" d="M4.2578 55.0016V57.9462H21.8734V55.0016H4.2578ZM6.01339 57.7616H4.57634V55.1825H6.02425L6.01339 57.7616ZM7.76717 57.7616H6.31926V55.1825H7.76717V57.7616ZM9.51733 57.7616H8.06942V55.1825H9.51733V57.7616ZM11.2711 57.7616H9.82501V55.1825H11.2729L11.2711 57.7616ZM13.0231 57.7616H11.5752V55.1825H13.0231V57.7616ZM14.7769 57.7616H13.329V55.1825H14.7769V57.7616ZM16.5307 57.7616H15.0827V55.1825H16.5307V57.7616ZM18.2826 57.7616H16.8347V55.1825H18.2826V57.7616ZM20.0346 57.7616H18.5867V55.1825H20.0346V57.7616ZM21.7866 57.7616H20.3387V55.1825H21.7866V57.7616Z" fill="#322864"/>
<path opacity="0.1" d="M4.2578 63.5697V66.5144H21.8734V63.5697H4.2578ZM6.01339 66.328H4.57634V63.7561H6.02425L6.01339 66.328ZM7.76717 66.328H6.31926V63.7561H7.76717V66.328ZM9.51733 66.328H8.06942V63.7561H9.51733V66.328ZM11.2711 66.328H9.82501V63.7561H11.2729L11.2711 66.328ZM13.0231 66.328H11.5752V63.7561H13.0231V66.328ZM14.7769 66.328H13.329V63.7561H14.7769V66.328ZM16.5307 66.328H15.0827V63.7561H16.5307V66.328ZM18.2826 66.328H16.8347V63.7561H18.2826V66.328ZM20.0346 66.328H18.5867V63.7561H20.0346V66.328ZM21.7866 66.328H20.3387V63.7561H21.7866V66.328Z" fill="#322864"/>
<path opacity="0.1" d="M4.2578 72.1415V75.0916H21.8734V72.1415H4.2578ZM6.01339 74.8997H4.57634V72.3261H6.02425L6.01339 74.8997ZM7.76717 74.8997H6.31926V72.3261H7.76717V74.8997ZM9.51733 74.8997H8.06942V72.3261H9.51733V74.8997ZM11.2711 74.8997H9.82501V72.3261H11.2729L11.2711 74.8997ZM13.0231 74.8997H11.5752V72.3261H13.0231V74.8997ZM14.7769 74.8997H13.329V72.3261H14.7769V74.8997ZM16.5307 74.8997H15.0827V72.3261H16.5307V74.8997ZM18.2826 74.8997H16.8347V72.3261H18.2826V74.8997ZM20.0346 74.8997H18.5867V72.3261H20.0346V74.8997ZM21.7866 74.8997H20.3387V72.3261H21.7866V74.8997Z" fill="#322864"/>
<path opacity="0.1" d="M4.2578 80.7128V83.6538H21.8734V80.7128H4.2578ZM6.01339 83.471H4.57634V80.8956H6.02425L6.01339 83.471ZM7.76717 83.471H6.31926V80.8956H7.76717V83.471ZM9.51733 83.471H8.06942V80.8956H9.51733V83.471ZM11.2711 83.471H9.82501V80.8956H11.2729L11.2711 83.471ZM13.0231 83.471H11.5752V80.8956H13.0231V83.471ZM14.7769 83.471H13.329V80.8956H14.7769V83.471ZM16.5307 83.471H15.0827V80.8956H16.5307V83.471ZM18.2826 83.471H16.8347V80.8956H18.2826V83.471ZM20.0346 83.471H18.5867V80.8956H20.0346V83.471ZM21.7866 83.471H20.3387V80.8956H21.7866V83.471Z" fill="#322864"/>
<path opacity="0.1" d="M4.33388 89.283C4.40446 89.5599 4.4841 89.8368 4.56735 90.1101V89.4676H6.01526V92.0412H5.24063C5.26416 92.1009 5.28769 92.1661 5.31122 92.2222H21.8735V89.283H4.33388ZM7.77267 92.0412H6.32476V89.4676H7.77267V92.0412ZM9.52283 92.0412H8.07492V89.4676H9.52283V92.0412ZM11.2766 92.0412H9.82508V89.4676H11.273L11.2766 92.0412ZM13.0286 92.0412H11.5807V89.4676H13.0286V92.0412ZM14.7824 92.0412H13.3345V89.4676H14.7824V92.0412ZM16.5362 92.0412H15.0882V89.4676H16.5362V92.0412ZM18.2881 92.0412H16.8402V89.4676H18.2881V92.0412ZM20.0401 92.0412H18.5922V89.4676H20.0401V92.0412ZM21.7921 92.0412H20.3442V89.4676H21.7921V92.0412Z" fill="#322864"/>
<path opacity="0.1" d="M8.42415 97.8543C8.4694 97.9122 8.51283 97.9774 8.55989 98.0353H9.51732V99.2714C9.62049 99.3945 9.72184 99.5176 9.82681 99.6334V98.0281H11.2747V100.611H10.6883C10.7462 100.671 10.8023 100.734 10.8693 100.792H21.8789V97.8543H8.42415ZM13.0231 100.611H11.5752V98.0389H13.0231V100.611ZM14.7769 100.611H13.3289V98.0389H14.7769V100.611ZM16.5306 100.611H15.0827V98.0389H16.5306V100.611ZM18.2826 100.611H16.8347V98.0389H18.2826V100.611ZM20.0346 100.611H18.5867V98.0389H20.0346V100.611ZM21.7866 100.611H20.3386V98.0389H21.7866V100.611Z" fill="#322864"/>
<path opacity="0.1" d="M18.087 106.424C18.2517 106.518 18.4201 106.605 18.5902 106.699V106.609H20.0381V107.423L20.3458 107.566V106.609H21.7937V108.174C21.8215 108.188 21.8506 108.199 21.8806 108.207V106.424H18.087Z" fill="#322864"/>
<path opacity="0.1" d="M137.553 61.4359H137.563H137.553ZM126.404 114.853H126.585H126.404ZM114.771 87.6738C114.806 87.7897 114.835 87.9055 114.867 88.0195C114.838 87.9055 114.808 87.7897 114.771 87.6738ZM137.553 61.4305H137.563H137.553ZM28.2352 34.3292V35.102H36.32V34.3292H28.2352ZM126.404 114.853H126.585H126.404ZM114.771 87.6738C114.806 87.7897 114.835 87.9055 114.867 88.0195C114.838 87.9055 114.808 87.7897 114.771 87.6738ZM137.553 61.4305H137.563H137.553ZM126.404 114.847H126.585H126.404ZM114.771 87.6738C114.806 87.7897 114.835 87.9055 114.867 88.0195C114.838 87.9055 114.808 87.7897 114.771 87.6738Z" fill="#322864"/>
<path d="M84.5446 69.7161C84.5446 69.7161 83.8315 69.6166 83.8315 68.5777C83.8315 67.5388 83.3211 65.5986 83.3211 65.5986C83.3211 65.5896 82.8795 62.2196 82.2695 61.6838C81.6596 61.1481 80.8759 58.0025 80.8759 58.0025C80.8759 58.0025 80.742 56.2958 80.4687 55.9284C80.1954 55.561 79.8262 54.6615 79.2814 53.3783C78.7366 52.095 76.4652 51.2064 76.4652 51.2064C76.4652 51.2064 72.3586 48.8246 71.1948 48.0481C71.089 47.9843 70.9902 47.9097 70.8998 47.8255C70.6971 47.5595 69.8139 47.554 69.8139 47.554C69.7216 46.9712 69.6329 46.3016 69.6039 45.6953C69.6039 45.6301 69.6039 45.565 69.5949 45.4998C70.8926 44.7327 71.87 43.5233 72.3477 42.0936C72.3694 42.0248 72.3875 41.9524 72.4074 41.8836C72.4852 41.858 72.5568 41.8165 72.6175 41.7616C72.6783 41.7068 72.727 41.6398 72.7604 41.5651C72.8654 41.3316 72.8672 41.0583 72.9975 40.8412C73.1495 40.5842 73.4391 40.4466 73.6671 40.2529C74.2427 39.7643 74.3911 38.9408 74.3639 38.1915C74.3458 37.5852 74.2481 36.9734 74.2861 36.3707L74.297 36.2187C74.3078 36.1282 74.3205 36.0377 74.3368 35.9508C74.4255 35.502 74.6191 35.0785 74.7277 34.6332C74.8363 34.188 74.8472 33.6867 74.5938 33.303C74.2228 32.7401 73.4499 32.6279 72.7712 32.57C72.002 32.5048 71.3143 32.5899 70.822 31.951C70.5916 31.6171 70.3324 31.304 70.0474 31.0153C69.946 30.9212 68.9614 30.3203 68.9614 30.2805C68.0005 29.8354 66.9112 29.7518 65.8937 30.0452C65.3833 30.1936 64.9018 30.4361 64.3842 30.5574C63.2675 30.8216 61.9825 30.5356 61.0341 31.1745C60.5056 31.5365 60.1889 32.1121 59.8921 32.6731C59.6508 33.1352 59.4058 33.5968 59.1573 34.0577C58.7573 34.816 58.35 35.587 58.1817 36.4268C58.1463 36.6096 58.1246 36.7947 58.1166 36.9807V36.9897C58.1166 37.0567 58.1166 37.1236 58.1166 37.1906V37.2757C58.1166 37.339 58.1166 37.4006 58.1274 37.4567C58.1383 37.5128 58.1365 37.5309 58.1419 37.5689C58.1473 37.6069 58.1564 37.6919 58.1672 37.7499C58.1781 37.8078 58.1998 37.9091 58.2215 37.9888C58.2306 38.0232 58.2433 38.0557 58.2541 38.0883C58.2722 38.1498 58.2939 38.2096 58.3175 38.2693C58.3301 38.3001 58.3428 38.3326 58.3573 38.3634C58.3844 38.4268 58.417 38.4883 58.4496 38.5444C58.4641 38.5697 58.4749 38.5933 58.4894 38.6168C58.5399 38.701 58.5955 38.782 58.6559 38.8593C59.0432 39.3426 59.6133 39.6502 60.0351 40.1027C60.0351 40.1208 60.0351 40.1389 60.0351 40.1552C60.0351 40.2059 60.0351 40.2547 60.0351 40.3054C60.0574 41.3145 60.326 42.3029 60.8175 43.1845C61.3089 44.0662 62.0083 44.8144 62.8549 45.3641C62.8549 45.4328 62.8639 45.5034 62.8675 45.5722C62.9028 46.1094 62.8962 46.6486 62.8476 47.1848C62.7739 47.098 62.6817 47.0289 62.5777 46.9825C62.4737 46.9361 62.3606 46.9137 62.2467 46.9169C62.169 46.9132 62.091 46.9199 62.0151 46.9369L61.9988 46.9242V46.9405C61.6006 47.0382 61.1101 47.4527 60.6414 48.6309C60.6414 48.6309 59.2152 50.2381 58.1292 50.1711C57.0433 50.1042 54.2941 51.8435 54.2941 51.8435C54.2941 51.8435 51.6118 53.5846 51.0363 55.3583C50.7146 56.3641 50.3289 57.3482 49.8816 58.3048L46.5659 65.1371L45.9541 70.5577C45.9541 70.5577 46.2926 72.9685 46.2256 73.3359C46.1586 73.7033 47.6174 77.0172 47.6174 77.0172C47.6174 77.0172 52.4371 85.4857 54.4063 85.9201L54.5475 85.8205C54.6317 85.8645 54.7211 85.898 54.8135 85.9201L55.2189 85.6341C55.2433 85.9528 55.233 86.2732 55.1882 86.5897C54.9167 87.4259 55.2895 92.8827 55.7637 93.9524C56.2379 95.022 56.0696 109.047 56.0696 109.047L56.0026 110.285C56.0026 110.285 56.0026 110.325 56.0189 110.393L56.0026 110.687L56.0515 110.712C56.1022 111.105 56.0857 111.503 56.0026 111.89C55.8325 112.433 55.7637 113.968 55.7637 113.968C55.7637 113.968 54.4081 122.634 55.0506 124.375C55.6931 126.116 56.2397 128.024 56.2397 128.024C56.2397 128.024 56.9184 130.195 56.2723 130.566C55.6262 130.937 53.7891 131.56 54.1674 132.465C54.5113 133.301 55.8162 135.542 56.0099 135.869L55.9936 136.041L55.7275 138.924C55.7706 139.305 55.8738 139.677 56.0334 140.025C56.3248 140.653 56.8913 141.304 57.9682 141.234C58.1491 141.221 58.3591 141.2 58.5618 141.172C60.5328 140.908 62.9598 140.029 62.9598 140.029C62.8338 139.948 62.7183 139.853 62.6159 139.744V139.744C62.5191 139.651 62.4423 139.538 62.3903 139.413C62.3384 139.289 62.3123 139.155 62.3137 139.02C62.3427 138.496 61.3599 135.994 61.1156 135.379C61.0775 135.29 61.0576 135.24 61.0576 135.24C61.0576 135.24 63.2983 132.898 62.9254 130.822C62.9254 130.822 60.4459 129.374 61.2622 128.579C62.0784 127.785 63.5372 125.502 63.5372 125.502C63.5372 125.502 63.6041 116.969 63.5372 115.695C63.4673 114.81 63.5093 113.921 63.6621 113.047C63.6892 112.915 63.7218 112.786 63.7562 112.659C64.885 112.828 66.0246 112.914 67.166 112.918C67.5823 112.918 68.0058 112.918 68.4329 112.893C68.4329 113.013 68.4384 113.144 68.4492 113.284C68.5433 115.398 68.7189 119.104 68.8619 120.482C69.0646 122.456 70.1849 127.777 70.1849 127.777C70.1849 127.777 68.0474 129.149 70.5577 132.53C70.5577 132.53 70.5577 133.755 70.3912 133.933C70.2135 134.513 70.0702 135.102 69.9623 135.699C69.8573 136.336 69.8139 136.981 69.984 137.315C70.3912 138.115 72.8346 138.05 72.8346 138.05L72.8943 138.039C73.3556 137.992 73.8217 138.036 74.2657 138.17C74.7097 138.304 75.1227 138.525 75.4806 138.82C76.4091 139.565 79.933 139.238 81.8406 139C82.5881 138.906 83.0876 138.82 83.0876 138.82C83.1118 138.735 83.1204 138.647 83.1129 138.559C83.093 138.09 82.7256 137.062 80.2352 136.144C80.2352 136.144 77.8932 134.57 77.9258 133.198H77.8769H77.6054C77.8027 133.187 77.9294 133.198 77.9294 133.198C77.9294 133.198 77.0118 129.85 77.3865 129.578C77.7611 129.307 76.639 125.596 76.639 125.596C76.639 125.596 75.9965 119.37 75.9621 118.934C75.9635 118.56 76.0202 118.188 76.1304 117.83L75.9621 114.417C75.9621 114.417 75.9295 113.282 75.9621 112.913C75.9566 112.592 75.9306 112.272 75.8842 111.955C75.868 111.829 75.8517 111.697 75.8336 111.566C76.7114 111.344 77.2815 111.137 77.2815 111.137L77.1801 99.2553C77.9258 97.8074 78.0634 94.6311 78.0597 92.3777C78.0597 90.9298 77.9946 89.8584 77.9946 89.8584L79.0135 88.1951C79.0135 88.1951 79.2488 86.2042 78.876 85.768C78.7113 85.5708 78.7855 85.3662 78.9212 85.1979C78.9917 85.142 79.0661 85.0912 79.1439 85.0459C79.1439 85.0459 79.133 85.0296 79.1203 85.0061C79.1915 84.9466 79.2671 84.8928 79.3466 84.845C79.3466 84.845 78.9846 84.2839 79.3086 84.0468C79.6126 84.2532 79.8841 84.4088 80.0904 84.5355C80.0759 84.6676 80.0615 84.7436 80.0615 84.7436L80.1483 84.5626C80.3474 84.6749 80.4687 84.7436 80.4687 84.7436C80.4687 84.7436 82.065 81.5637 82.0306 81.0949C81.9962 80.6261 83.1166 78.6515 83.1166 78.6515C83.1166 78.6515 83.2523 77.6145 83.864 77.1801C84.4758 76.7457 84.3382 73.5983 84.3382 73.5983C84.3382 73.5983 84.5084 71.9586 84.9156 71.2889C85.3228 70.6193 84.5446 69.7161 84.5446 69.7161ZM54.0009 68.3207L54.0317 69.079C53.8507 68.7877 53.7203 68.5777 53.7203 68.5777L54.0009 68.3207Z" fill="url(#paint0_linear)"/>
<path d="M80.5555 83.3701L80.1646 85.0352C80.1646 85.0352 77.0335 83.437 76.4688 81.4063C75.9041 79.3756 77.4135 78.6046 77.4135 78.6046L80.3311 79.8408L80.5555 83.3701Z" fill="white"/>
<path opacity="0.1" d="M80.5555 83.3701L80.1646 85.0352C80.1646 85.0352 77.0335 83.437 76.4688 81.4063C75.9041 79.3756 77.4135 78.6046 77.4135 78.6046L80.3311 79.8408L80.5555 83.3701Z" fill="black"/>
<path d="M62.9832 140.039C62.9832 140.039 60.0874 141.103 58.0965 141.237C57.0395 141.308 56.4839 140.66 56.198 140.036C56.0417 139.689 55.941 139.319 55.8993 138.941L56.1581 136.072L56.2957 134.544L60.5254 133.446L61.1245 135.277L61.1806 135.417C61.4213 136.029 62.386 138.517 62.357 139.037C62.3558 139.17 62.3815 139.301 62.4325 139.424C62.4835 139.547 62.5588 139.658 62.6538 139.751C62.7509 139.861 62.8616 139.958 62.9832 140.039V140.039Z" fill="white"/>
<path d="M82.7637 138.58C82.7709 138.667 82.7623 138.755 82.7383 138.839C82.7383 138.839 76.5449 139.873 75.278 138.839C74.9208 138.537 74.5044 138.313 74.0556 138.182C73.6068 138.05 73.1354 138.014 72.6717 138.075C72.6717 138.075 70.2754 138.141 69.8755 137.351C69.709 137.02 69.7524 136.378 69.8556 135.744C69.9608 135.151 70.101 134.564 70.2754 133.987L70.3714 133.911L70.9415 133.453L77.6163 133.256H77.667C77.6344 134.62 79.933 136.186 79.933 136.186C82.3745 137.091 82.7347 138.113 82.7637 138.58Z" fill="white"/>
<path opacity="0.1" d="M82.7636 138.58C82.77 138.668 82.7608 138.755 82.7365 138.839C82.7365 138.839 76.5448 139.873 75.2779 138.839C74.9209 138.537 74.5049 138.314 74.0564 138.182C73.6079 138.051 73.1368 138.014 72.6735 138.075C72.6735 138.075 70.2754 138.141 69.8772 137.351C69.7107 137.018 69.7523 136.378 69.8555 135.744C70.7785 135.837 72.2355 136.066 72.8074 136.615C73.6725 137.449 75.1385 138.282 76.0381 138.347C76.7421 138.392 80.9537 138.526 82.7636 138.58Z" fill="black"/>
<path opacity="0.1" d="M62.9831 140.039C62.9831 140.039 60.0873 141.103 58.0964 141.237C57.0394 141.308 56.4838 140.66 56.1996 140.034C56.9363 140.282 57.9588 140.542 58.4964 140.303C59.1335 140.021 61.3922 139.838 62.6591 139.76C62.7555 139.866 62.8643 139.96 62.9831 140.039V140.039Z" fill="black"/>
<path d="M67.2798 54.2776C64.8907 53.3491 61.8175 50.2814 62.5849 48.8479C62.7553 48.4862 62.8566 48.0958 62.8835 47.6969C62.9329 47.1553 62.9402 46.6107 62.9052 46.068C62.8514 45.1791 62.7445 44.2943 62.5849 43.4183C62.5849 43.4183 70.0435 43.5866 69.6091 44.6852C69.4824 45.0074 69.4625 45.5666 69.4969 46.1928C69.5313 46.8191 69.6218 47.5267 69.7159 48.1258C69.8462 48.9475 69.9765 49.5737 69.9765 49.5737C69.9765 49.5737 69.5204 50.2126 69.2525 50.247C68.9847 50.2814 70.7077 55.6006 67.2798 54.2776Z" fill="#CF6F80"/>
<path opacity="0.1" d="M61.1752 135.417L61.1191 135.478C58.8893 132.782 56.1926 136.143 56.1926 136.143L56.1528 136.072L56.2903 134.544L60.52 133.446L61.1191 135.277L61.1752 135.417Z" fill="black"/>
<path opacity="0.1" d="M77.6686 133.446C77.6686 133.446 76.0397 133.411 75.1709 134.179C74.3022 134.946 70.1032 134.345 70.2842 134.179C70.3378 134.096 70.3702 134.002 70.3783 133.904L70.9485 133.446L77.6233 133.248C77.6487 133.37 77.6686 133.446 77.6686 133.446Z" fill="black"/>
<path d="M63.9496 112.269C63.8283 112.568 63.7362 112.879 63.6745 113.197C63.5236 114.067 63.4816 114.952 63.5496 115.832C63.6166 117.099 63.5496 125.589 63.5496 125.589C63.5496 125.589 62.118 127.853 61.3198 128.652C60.5217 129.45 62.9487 130.883 62.9487 130.883C63.3107 132.947 61.1171 135.278 61.1171 135.278C58.8874 132.581 56.1906 135.944 56.1906 135.944C56.1906 135.944 54.7246 133.41 54.359 132.505C53.9934 131.6 55.7906 130.974 56.4223 130.606C57.0539 130.239 56.3915 128.072 56.3915 128.072C56.3915 128.072 55.8576 126.174 55.2241 124.442C54.5907 122.71 55.9228 114.087 55.9228 114.087C55.9228 114.087 55.9915 112.556 56.1562 112.022C56.2393 111.637 56.2559 111.24 56.2051 110.85C56.1942 110.717 56.1816 110.607 56.1725 110.533C56.1635 110.459 56.1562 110.424 56.1562 110.424L56.1816 110.381L57.0865 108.694C57.0865 108.694 64.384 111.206 63.9496 112.269Z" fill="#322864"/>
<path d="M77.6685 133.247C77.6685 133.247 76.0396 133.212 75.1709 133.971C74.3021 134.729 70.1032 134.137 70.2842 133.971C70.4652 133.804 70.4507 132.572 70.4507 132.572C67.9874 129.209 70.0887 127.844 70.0887 127.844C70.0887 127.844 68.9883 122.55 68.7892 120.587C68.6499 119.215 68.4779 115.528 68.3856 113.423C68.3458 112.518 68.3223 111.895 68.3223 111.895L70.3349 111.49L70.5937 111.438L75.4478 110.464C75.4478 110.464 75.5817 111.369 75.6722 112.109C75.7174 112.425 75.7427 112.744 75.7482 113.063C75.7157 113.425 75.7482 114.558 75.7482 114.558L75.9129 117.955C75.8053 118.311 75.7499 118.681 75.7482 119.054C75.7808 119.486 76.4125 125.68 76.4125 125.68C76.4125 125.68 77.5111 129.375 77.1364 129.641C76.7618 129.907 77.6685 133.247 77.6685 133.247Z" fill="#322864"/>
<path opacity="0.1" d="M69.6093 44.6852C69.4826 45.0074 69.4627 45.5666 69.4971 46.1928C68.498 46.7944 67.3495 47.102 66.1835 47.0802C65.0175 47.0585 63.8813 46.7082 62.9055 46.0698C62.8517 45.1803 62.7448 44.2949 62.5851 43.4183C62.5851 43.4183 70.0437 43.583 69.6093 44.6852Z" fill="black"/>
<path d="M72.4925 40.6854C72.4939 41.3376 72.3913 41.9859 72.1884 42.6057C71.735 43.9945 70.8051 45.1784 69.5633 45.948C68.3214 46.7176 66.8474 47.0234 65.4019 46.8113C63.9564 46.5993 62.6324 45.883 61.6639 44.7892C60.6953 43.6954 60.1447 42.2944 60.1092 40.8338C60.1092 40.7831 60.1092 40.7361 60.1092 40.6854C60.0951 39.8633 60.2449 39.0466 60.5498 38.283C60.8547 37.5193 61.3086 36.8241 61.885 36.2377C62.4615 35.6513 63.1489 35.1856 63.9072 34.8677C64.6655 34.5498 65.4795 34.3861 66.3017 34.3861C67.124 34.3861 67.938 34.5498 68.6963 34.8677C69.4546 35.1856 70.142 35.6513 70.7184 36.2377C71.2948 36.8241 71.7487 37.5193 72.0536 38.283C72.3585 39.0466 72.5083 39.8633 72.4943 40.6854H72.4925Z" fill="#CF6F80"/>
<path opacity="0.1" d="M67.2798 54.2777C64.8907 53.3493 61.8175 50.2815 62.5849 48.8481C62.7553 48.4863 62.8566 48.0959 62.8835 47.697L66.154 50.3846L68.1775 52.0443L69.7159 48.1277C69.8462 48.9494 69.9765 49.5756 69.9765 49.5756C69.9765 49.5756 69.5204 50.2145 69.2525 50.2489C68.9847 50.2833 70.7077 55.6008 67.2798 54.2777Z" fill="black"/>
<path d="M75.7376 66.1561L73.0065 112.037L69.4446 112.27L60.2214 85.6667L61.7345 54.0823L62.053 47.4093L66.1542 50.7775L68.1795 52.4371L69.7631 48.4065L72.7078 50.9729L75.7376 66.1561Z" fill="#322864"/>
<path opacity="0.1" d="M63.9499 112.268C63.8286 112.568 63.7365 112.879 63.6748 113.197C61.0831 112.797 58.5659 112.01 56.2073 110.864L56.1584 110.839L56.1747 110.547L56.1837 110.395L57.0887 108.708C57.0887 108.708 64.3843 111.206 63.9499 112.268Z" fill="black"/>
<path opacity="0.1" d="M70.3765 113.204C69.714 113.317 69.0457 113.393 68.3748 113.432C68.335 112.527 68.3115 111.905 68.3115 111.905L70.3241 111.499L70.3765 113.204Z" fill="black"/>
<path opacity="0.1" d="M75.6616 112.118C74.3748 112.453 72.3875 112.83 70.6084 112.594L70.5831 111.447L75.4372 110.473C75.4372 110.473 75.5711 111.369 75.6616 112.118Z" fill="black"/>
<path opacity="0.1" d="M70.5759 112.804C63.1554 114.071 56.3593 110.439 56.3593 110.439L56.4244 109.208C56.4244 109.208 56.5927 95.2554 56.1258 94.1857C55.6588 93.1161 55.295 87.6919 55.5593 86.8593C55.8235 86.0268 54.5946 73.5421 54.5946 73.5421L54.3955 68.4745L47.1089 65.5225L50.3667 58.7318C50.8067 57.7797 51.1852 56.8004 51.4997 55.7998C52.0662 54.037 54.696 52.3049 54.696 52.3049C54.696 52.3049 57.3927 50.5747 58.4587 50.6398C59.5248 50.705 60.922 49.1086 60.922 49.1086C61.9536 46.4789 62.8875 47.6698 62.8875 47.6698C62.8875 47.7947 62.8875 47.6698 62.8369 48.0589C62.4749 50.9457 68.69 60.0675 68.7787 60.2286L69.3706 74.6462L69.9696 92.8917L70.5759 112.804Z" fill="black"/>
<path d="M70.3768 112.804C62.9562 114.071 56.1583 110.439 56.1583 110.439L56.2252 109.208C56.2252 109.208 56.3936 95.2554 55.9248 94.1858C55.456 93.1161 55.0941 87.6919 55.3601 86.8594C55.6262 86.0268 54.3954 73.5422 54.3954 73.5422L54.1945 68.4745L46.9043 65.5117L50.1621 58.721C50.6012 57.7685 50.9796 56.7892 51.2951 55.789C51.8598 54.0262 54.4914 52.2941 54.4914 52.2941C54.4914 52.2941 57.1881 50.5638 58.2523 50.629C59.3165 50.6941 60.7156 49.0978 60.7156 49.0978C61.749 46.4681 62.8874 47.659 62.8874 47.659C62.8874 47.7838 62.7788 47.84 62.8368 48.0481C63.6331 50.848 68.4909 60.0567 68.5795 60.2178L69.1786 74.6354L69.7777 92.8808L70.3768 112.804Z" fill="white"/>
<path opacity="0.1" d="M68.3768 60.6287C67.5786 60.2957 63.3507 55.4687 63.3507 55.4687V54.3701C63.1968 54.0081 62.2829 54.2289 61.5408 54.4823L61.8593 47.8093L62.2213 48.1097C63.0141 50.9078 68.2845 60.4676 68.3768 60.6287Z" fill="black"/>
<path d="M68.5776 60.2287C67.7776 59.8957 63.5497 55.0687 63.5497 55.0687V53.9701C63.3959 53.6081 62.4819 53.8289 61.7398 54.0823L62.0602 47.4092L62.4221 47.7097C63.2167 50.5078 68.4889 60.0694 68.5776 60.2287Z" fill="white"/>
<path opacity="0.1" d="M56.359 84.3021C56.4585 84.3021 61.519 83.77 61.519 83.77C61.519 83.77 64.5831 89.7951 64.3822 91.2611C64.1813 92.7272 63.8175 94.0248 62.585 93.795C61.3525 93.5651 55.9518 93.976 55.9518 93.976L56.359 84.3021Z" fill="black"/>
<path d="M56.1584 83.902C56.2579 83.902 61.3184 83.3699 61.3184 83.3699C61.3184 83.3699 64.3807 89.3969 64.1816 90.8611C63.9825 92.3253 63.6151 93.6248 62.3844 93.3949C61.1537 93.1651 55.7512 93.5759 55.7512 93.5759L56.1584 83.902Z" fill="white"/>
<path d="M59.9716 81.0732C59.9716 81.0732 64.6158 83.569 64.7153 84.331C64.8149 85.093 62.3516 83.998 61.8195 83.8658C61.4693 83.7814 61.1127 83.7258 60.7535 83.6993L57.2043 83.7953L59.9716 81.0732Z" fill="#CF6F80"/>
<path opacity="0.1" d="M67.0807 60.9399C67.3506 60.9399 67.5694 60.7211 67.5694 60.4512C67.5694 60.1813 67.3506 59.9626 67.0807 59.9626C66.8109 59.9626 66.5921 60.1813 66.5921 60.4512C66.5921 60.7211 66.8109 60.9399 67.0807 60.9399Z" fill="black"/>
<path d="M67.0807 60.7409C67.3506 60.7409 67.5694 60.5221 67.5694 60.2522C67.5694 59.9823 67.3506 59.7635 67.0807 59.7635C66.8109 59.7635 66.5921 59.9823 66.5921 60.2522C66.5921 60.5221 66.8109 60.7409 67.0807 60.7409Z" fill="#3F3D56"/>
<path opacity="0.1" d="M67.9805 82.0938C68.2504 82.0938 68.4691 81.875 68.4691 81.6051C68.4691 81.3352 68.2504 81.1164 67.9805 81.1164C67.7106 81.1164 67.4918 81.3352 67.4918 81.6051C67.4918 81.875 67.7106 82.0938 67.9805 82.0938Z" fill="black"/>
<path d="M67.9805 81.8931C68.2504 81.8931 68.4691 81.6744 68.4691 81.4045C68.4691 81.1346 68.2504 80.9158 67.9805 80.9158C67.7106 80.9158 67.4918 81.1346 67.4918 81.4045C67.4918 81.6744 67.7106 81.8931 67.9805 81.8931Z" fill="#3F3D56"/>
<path opacity="0.1" d="M67.5676 71.5167C67.8375 71.5167 68.0563 71.298 68.0563 71.0281C68.0563 70.7582 67.8375 70.5394 67.5676 70.5394C67.2977 70.5394 67.0789 70.7582 67.0789 71.0281C67.0789 71.298 67.2977 71.5167 67.5676 71.5167Z" fill="black"/>
<path d="M67.5676 71.3177C67.8375 71.3177 68.0563 71.0989 68.0563 70.829C68.0563 70.5592 67.8375 70.3404 67.5676 70.3404C67.2977 70.3404 67.0789 70.5592 67.0789 70.829C67.0789 71.0989 67.2977 71.3177 67.5676 71.3177Z" fill="#3F3D56"/>
<path d="M78.8323 83.5979C78.8323 83.5979 79.1654 84.0974 78.8323 84.3309C78.4993 84.5644 78.8649 85.1291 78.8649 85.1291C78.8649 85.1291 78.0342 85.6159 78.3998 86.0539C78.7654 86.4919 78.5337 88.4701 78.5337 88.4701L77.5347 90.1244C77.5347 90.1244 77.5944 91.1904 77.598 92.6311C77.598 94.879 77.4659 98.039 76.7347 99.4797L76.836 111.3C76.836 111.3 73.3375 112.578 70.4091 112.189L69.9748 93.2211C69.9748 93.2211 70.6082 82.4649 70.8417 80.4017C70.9783 79.3305 71.034 78.2505 71.0082 77.171C71.0082 77.171 70.9087 73.9422 70.5738 72.4436C70.5738 72.4436 70.2118 65.9515 70.1757 64.1543C70.1594 63.2946 70.2046 60.7861 70.2553 58.4006C70.3114 55.7926 70.3747 53.3329 70.3747 53.3329L69.7141 48.106C69.7141 48.106 70.3747 48.039 70.5738 48.3051C70.663 48.3884 70.76 48.4629 70.8634 48.5277V48.5277C72.0036 49.2987 76.0325 51.6697 76.0325 51.6697C76.0325 51.6697 78.2622 52.5565 78.7961 53.8271C79.3301 55.0976 79.7011 55.9989 79.9599 56.3609C80.2187 56.7229 80.3599 58.4242 80.3599 58.4242C80.3599 58.4242 81.1273 61.5553 81.7264 62.0856C82.3254 62.6159 82.7634 65.9895 82.7634 65.9895L77.4695 70.1522C77.4695 70.1522 77.0044 77.0769 76.9048 77.3448C76.8053 77.6126 78.8323 83.5979 78.8323 83.5979Z" fill="white"/>
<path d="M79.0335 83.598C79.0335 83.598 79.3647 84.0975 79.0335 84.331C78.7023 84.5645 79.0643 85.1292 79.0643 85.1292C79.0643 85.1292 78.239 85.6215 78.6009 86.0595C78.9629 86.4974 78.7349 88.4757 78.7349 88.4757L77.7358 90.1299C77.7358 90.1299 77.7955 91.1959 77.801 92.6366C77.801 94.8845 77.6688 98.0446 76.9376 99.4852L77.0372 111.306C77.0372 111.306 73.5332 112.583 70.6085 112.194L70.1759 93.2266C70.1759 93.2266 70.8094 82.4704 71.0428 80.4072C71.1796 79.336 71.2347 78.256 71.2075 77.1765C71.2075 77.1765 71.108 73.9477 70.775 72.4491C70.775 72.4491 70.413 65.957 70.375 64.1598C70.3587 63.3001 70.4058 60.7916 70.4546 58.4061C70.5107 55.7981 70.5741 53.3385 70.5741 53.3385L69.7017 48.0409C69.7017 48.0409 70.5741 48.0409 70.775 48.3106C70.8633 48.3949 70.9604 48.4695 71.0646 48.5332C72.2048 49.3042 76.2354 51.6752 76.2354 51.6752C76.2354 51.6752 78.4634 52.562 78.9973 53.8326C79.5312 55.1031 79.9022 56.0044 80.1629 56.3664C80.4235 56.7284 80.561 58.4297 80.561 58.4297C80.561 58.4297 81.3284 61.5608 81.9275 62.0911C82.5266 62.6214 82.9591 65.9878 82.9591 65.9878L77.6652 70.1505C77.6652 70.1505 77.2001 77.0752 77.0987 77.343C76.9974 77.6109 79.0335 83.598 79.0335 83.598Z" fill="white"/>
<path opacity="0.1" d="M72.6932 54.8749L73.171 56.2685L70.6553 58.8024C70.7114 56.1961 70.7747 53.7347 70.7747 53.7347L69.9023 48.4371C69.9023 48.4371 70.7747 48.4371 70.9756 48.7068C71.0637 48.7908 71.1608 48.8649 71.2652 48.9276L73.4045 55.0993L72.6932 54.8749Z" fill="black"/>
<path d="M72.4926 54.4751L72.9722 55.8687L70.4564 58.4025C70.5125 55.7945 70.5759 53.3348 70.5759 53.3348L69.7017 48.0373C69.7017 48.0373 70.5759 48.0373 70.775 48.307C70.8637 48.3907 70.9608 48.4653 71.0646 48.5296L73.2057 54.6995L72.4926 54.4751Z" fill="white"/>
<path opacity="0.1" d="M72.4925 40.6854C72.4939 41.3376 72.3913 41.9859 72.1884 42.6057C72.1542 42.611 72.1193 42.6095 72.0857 42.6011C72.0521 42.5927 72.0206 42.5776 71.9929 42.5568C71.9459 40.9279 71.1441 39.3986 70.1577 38.0973C69.8808 37.7044 69.545 37.3564 69.1623 37.0656C68.7753 36.775 68.294 36.6388 67.8121 36.6837C67.2691 36.7579 66.7895 37.1272 66.2411 37.1742C65.5171 37.2339 64.8692 36.7326 64.1507 36.7073C63.8586 36.71 63.5704 36.7751 63.3055 36.8981C63.0405 37.021 62.8048 37.1991 62.6141 37.4204C62.2366 37.8669 61.9562 38.3871 61.7906 38.9479C61.506 39.7983 61.351 40.6866 61.3309 41.5831C61.3218 42.0899 61.273 42.7252 60.8024 42.9098C60.8378 42.5371 60.7955 42.1611 60.678 41.8056C60.5605 41.4501 60.3706 41.1229 60.1201 40.8447L60.1092 40.8338C60.1092 40.7831 60.1092 40.7361 60.1092 40.6854C60.0951 39.8633 60.2449 39.0466 60.5498 38.283C60.8547 37.5193 61.3086 36.8241 61.885 36.2377C62.4615 35.6513 63.1489 35.1856 63.9072 34.8677C64.6655 34.5498 65.4795 34.3861 66.3017 34.3861C67.124 34.3861 67.938 34.5498 68.6963 34.8677C69.4546 35.1856 70.142 35.6513 70.7184 36.2377C71.2948 36.8241 71.7487 37.5193 72.0536 38.283C72.3585 39.0466 72.5083 39.8633 72.4943 40.6854H72.4925Z" fill="black"/>
<path d="M68.8653 30.8522C67.9248 30.4098 66.8551 30.3261 65.8573 30.6169C65.3559 30.7653 64.8836 31.006 64.375 31.1273C63.2891 31.3897 62.0221 31.1056 61.09 31.7409C60.5724 32.1028 60.2611 32.6748 59.9715 33.2304L59.2476 34.6095C58.853 35.3643 58.4548 36.1317 58.2901 36.9624C58.1254 37.7931 58.225 38.7234 58.7517 39.3913C59.1354 39.8781 59.7019 40.184 60.1181 40.6419C60.3675 40.9204 60.5567 41.2475 60.6738 41.6025C60.7909 41.9575 60.8334 42.3329 60.7986 42.7052C61.271 42.5242 61.3163 41.8871 61.3271 41.3803C61.3473 40.4838 61.5023 39.5955 61.7868 38.7451C61.952 38.1842 62.2325 37.6639 62.6103 37.2176C62.8012 36.9965 63.0369 36.8185 63.3019 36.6956C63.5668 36.5726 63.8549 36.5075 64.1469 36.5045C64.8709 36.5298 65.5207 37.0294 66.2374 36.9696C66.7803 36.9244 67.2618 36.5534 67.8084 36.481C68.2903 36.4354 68.7719 36.5716 69.1585 36.8629C69.5412 37.1532 69.8764 37.5012 70.1522 37.8945C71.1404 39.1958 71.9421 40.7215 71.9892 42.3541C72.1937 42.5043 72.4887 42.3088 72.5901 42.0771C72.6914 41.8455 72.6951 41.574 72.8236 41.3532C72.972 41.098 73.2561 40.9623 73.4787 40.7704C74.0434 40.2835 74.1846 39.4637 74.1629 38.7198C74.1412 37.9759 73.9964 37.2212 74.1375 36.49C74.2226 36.0412 74.4145 35.6213 74.5194 35.1778C74.6244 34.7344 74.6371 34.2367 74.3891 33.8548C74.0271 33.2938 73.2652 33.1833 72.6009 33.1309C71.8462 33.0657 71.1711 33.149 70.6897 32.5137C70.4637 32.1822 70.2094 31.8709 69.9295 31.5834C69.8336 31.4893 68.8653 30.892 68.8653 30.8522Z" fill="#512E4E"/>
<path opacity="0.1" d="M49.1937 69.0193L47.3024 65.5226L46.7033 70.9178C46.7033 70.9178 47.0363 73.3141 46.9694 73.6815C46.9024 74.0489 48.334 77.3429 48.334 77.3429C48.334 77.3429 53.0633 85.7662 54.9944 86.2005L61.5191 81.5383L59.7888 79.3411C59.7888 79.3411 59.1897 79.1076 59.0395 79.3411C59.0395 79.3411 55.827 73.8137 55.4939 73.4137C55.1609 73.0137 55.2261 72.2155 55.2261 72.2155C55.2261 72.2155 54.7265 71.6834 54.8931 71.1839C55.0596 70.6844 53.9284 68.9523 53.9284 68.9523L54.96 67.9876L49.1937 69.0193Z" fill="black"/>
<path d="M47.4019 65.1245L46.9023 65.5227L46.3033 70.918C46.3033 70.918 46.6363 73.3143 46.5693 73.6817C46.5024 74.0491 47.9358 77.3431 47.9358 77.3431C47.9358 77.3431 52.6632 85.7663 54.5944 86.2007L61.1208 81.5384L59.3888 79.3412C59.3888 79.3412 58.7897 79.1077 58.6395 79.3412C58.6395 79.3412 55.4269 73.8138 55.0939 73.4138C54.7609 73.0138 54.8278 72.2157 54.8278 72.2157C54.8278 72.2157 54.3283 71.6836 54.4948 71.184C54.6613 70.6845 53.5283 68.9524 53.5283 68.9524L54.56 67.9878L47.4019 65.1245Z" fill="white"/>
<path opacity="0.1" d="M78.4001 86.2602C78.7621 86.7 78.5341 88.6746 78.5341 88.6746L77.535 90.3289C77.535 90.3289 77.5947 91.3967 77.5983 92.8356L75.9187 93.3604C75.7669 93.4078 75.606 93.4183 75.4494 93.3908C75.2927 93.3634 75.1449 93.2989 75.0183 93.2027C74.8916 93.1065 74.7898 92.9815 74.7214 92.8379C74.6529 92.6944 74.6197 92.5366 74.6247 92.3777L74.9142 83.0368L78.8327 84.5354C78.4997 84.7671 78.8653 85.3354 78.8653 85.3354C78.8653 85.3354 78.0345 85.8204 78.4001 86.2602Z" fill="black"/>
<path d="M78.6007 86.0594C78.9627 86.4992 78.7346 88.4756 78.7346 88.4756L77.7356 90.1298C77.7356 90.1298 77.7953 91.1959 77.8007 92.6365L76.0904 93.1705C75.9417 93.2166 75.7842 93.2267 75.6309 93.1997C75.4775 93.1727 75.3329 93.1094 75.209 93.0153C75.085 92.9211 74.9854 92.7986 74.9183 92.6581C74.8513 92.5177 74.8187 92.3632 74.8234 92.2076L75.1148 82.8378L79.0351 84.3364C78.7002 84.5681 79.0658 85.1345 79.0658 85.1345C79.0658 85.1345 78.2387 85.6214 78.6007 86.0594Z" fill="white"/>
<path d="M79.8987 81.607C79.8987 81.607 79.6326 83.3065 78.9665 83.406C78.3005 83.5055 78.0019 86.1552 77.3376 86.0611C76.6734 85.967 77.1132 83.5978 77.1367 83.1381C77.1603 82.6784 76.4128 80.7744 76.972 80.3418C77.5313 79.9093 79.3014 80.3418 79.3014 80.3418L79.8987 81.607Z" fill="#CF6F80"/>
<path opacity="0.1" d="M81.3156 68.5197L82.5717 65.9858C82.5717 65.9858 83.0712 67.917 83.0712 68.9486C83.0712 69.9803 83.7698 70.0816 83.7698 70.0816C83.7698 70.0816 84.5354 70.9866 84.1318 71.6454C83.7282 72.3042 83.5653 73.9439 83.5653 73.9439C83.5653 73.9439 83.6974 77.0732 83.0984 77.5058C82.4993 77.9383 82.3744 78.9718 82.3744 78.9718C82.3744 78.9718 81.274 80.9355 81.3084 81.4025C81.3428 81.8694 79.7772 85.0313 79.7772 85.0313C79.7772 85.0313 80.5428 81.102 76.0814 79.4044C76.0814 79.4044 76.047 78.0705 76.3801 77.7049C76.7131 77.3393 77.2325 77.1728 76.9067 75.3249C76.581 73.477 76.8126 71.2689 76.8126 70.8255C76.8126 70.3821 77.8117 67.6166 77.8117 67.6166L81.3156 68.5197Z" fill="black"/>
<path d="M81.8586 65.6239L82.9553 65.9858C82.9553 65.9858 83.4567 67.917 83.4567 68.9486C83.4567 69.9803 84.1553 70.0816 84.1553 70.0816C84.1553 70.0816 84.9209 70.9866 84.5173 71.6454C84.1137 72.3042 83.9526 73.9439 83.9526 73.9439C83.9526 73.9439 84.0847 77.0732 83.4856 77.5058C82.8866 77.9383 82.7526 78.9718 82.7526 78.9718C82.7526 78.9718 81.654 80.9355 81.6884 81.4025C81.7228 81.8694 80.1554 85.0313 80.1554 85.0313C80.1554 85.0313 80.9228 81.102 76.4597 79.4043C76.4597 79.4043 76.4271 78.0705 76.7601 77.7049C77.0931 77.3393 77.6126 77.1728 77.2868 75.3249C76.961 73.477 77.1927 71.2689 77.1927 70.8255C77.1927 70.3821 78.1917 67.6165 78.1917 67.6165L81.8586 65.6239Z" fill="white"/>
<path opacity="0.1" d="M57.6331 131.299C57.6331 131.299 59.3815 130.201 60.5289 130.999C61.6764 131.797 57.6331 131.299 57.6331 131.299Z" fill="black"/>
<path opacity="0.1" d="M71.2181 127.902C71.2181 127.902 72.7656 127.703 74.0651 129.102C75.3646 130.501 71.2181 127.902 71.2181 127.902Z" fill="black"/>
<g opacity="0.1">
<path opacity="0.1" d="M73.4825 40.3743C73.2599 40.5661 72.9739 40.7037 72.8255 40.9589C72.6988 41.1779 72.6952 41.4475 72.5938 41.6828C72.4925 41.9181 72.1975 42.1099 71.993 41.9615C71.9459 40.3326 71.1423 38.8033 70.1559 37.5002C69.8801 37.1069 69.5449 36.7589 69.1623 36.4685C68.7749 36.1773 68.2928 36.0411 67.8103 36.0866C67.2673 36.1608 66.7895 36.5301 66.2411 36.5753C65.5172 36.6368 64.8674 36.1355 64.1489 36.1102C63.8569 36.1131 63.5689 36.1784 63.3042 36.3017C63.0395 36.425 62.8042 36.6034 62.6141 36.8251C62.2363 37.2707 61.9558 37.7904 61.7906 38.3508C61.5062 39.2012 61.3512 40.0895 61.3309 40.986C61.32 41.491 61.273 42.1208 60.806 42.309C60.8169 42.4427 60.8169 42.5771 60.806 42.7108C61.2766 42.5298 61.3237 41.8928 61.3345 41.386C61.3547 40.4895 61.5097 39.6012 61.7942 38.7508C61.9594 38.1898 62.2399 37.6696 62.6177 37.2232C62.8082 37.0022 63.0436 36.8243 63.3083 36.7013C63.5729 36.5783 63.8607 36.5132 64.1525 36.5102C64.8765 36.5355 65.528 37.035 66.2448 36.9753C66.7877 36.93 67.2691 36.559 67.8139 36.4866C68.2964 36.4411 68.7785 36.5773 69.1659 36.8685C69.5486 37.1589 69.8838 37.5069 70.1595 37.9002C71.1459 39.2015 71.9495 40.7272 71.9966 42.3597C72.2011 42.5099 72.4961 42.3145 72.5975 42.0828C72.6988 41.8511 72.7024 41.5796 72.8291 41.3588C72.9775 41.1036 73.2635 40.9679 73.4861 40.7761C74.0508 40.2892 74.192 39.4693 74.1703 38.7255C74.1703 38.7019 74.1703 38.6784 74.1703 38.6567C74.1359 39.301 73.9639 39.958 73.4825 40.3743Z" fill="black"/>
<path opacity="0.1" d="M60.1219 40.2456C59.7056 39.7877 59.1373 39.4819 58.7555 38.9968C58.4339 38.5674 58.2502 38.0505 58.2288 37.5145C58.1718 38.1843 58.3589 38.8522 58.7555 39.395C59.1373 39.8818 59.7056 40.1877 60.1219 40.6456C60.5216 41.0935 60.7616 41.6613 60.8043 42.26C60.832 41.8956 60.7858 41.5294 60.6686 41.1832C60.5513 40.8371 60.3654 40.5182 60.1219 40.2456V40.2456Z" fill="black"/>
<path opacity="0.1" d="M74.5231 34.7816C74.4163 35.2251 74.2262 35.6468 74.1394 36.0938C74.0879 36.3925 74.0691 36.696 74.0833 36.9988C74.0893 36.8263 74.1081 36.6545 74.1394 36.4847C74.2262 36.0359 74.4163 35.616 74.5231 35.1726C74.5853 34.928 74.6055 34.6746 74.5828 34.4233C74.5715 34.544 74.5516 34.6638 74.5231 34.7816V34.7816Z" fill="black"/>
</g>
<path opacity="0.1" d="M25.0226 138.658C34.7625 138.658 42.6582 137.39 42.6582 135.826C42.6582 134.261 34.7625 132.993 25.0226 132.993C15.2828 132.993 7.38707 134.261 7.38707 135.826C7.38707 137.39 15.2828 138.658 25.0226 138.658Z" fill="#322864"/>
<path d="M25.5909 81.5653H24.4561V107.116H25.5909V81.5653Z" fill="#535461"/>
<path d="M32.7219 107.038L32.6513 108.189L32.55 109.818L32.5083 110.495L32.4088 112.124L32.3654 112.801L32.264 114.43L31.1202 132.903C31.0704 133.698 30.7197 134.444 30.1394 134.989C29.559 135.535 28.7927 135.838 27.9963 135.839H22.049C21.2528 135.838 20.4866 135.535 19.9066 134.989C19.3265 134.444 18.9762 133.698 18.9269 132.903L17.7885 114.417L17.6872 112.788L17.6455 112.111L17.5442 110.482L17.5026 109.805L17.4012 108.176L17.3288 107.025C17.3162 106.804 17.3491 106.582 17.4253 106.374C17.5015 106.165 17.6195 105.974 17.772 105.813C17.9245 105.652 18.1084 105.524 18.3123 105.436C18.5162 105.349 18.7358 105.304 18.9577 105.304H31.122C31.343 105.306 31.5614 105.353 31.7635 105.443C31.9656 105.532 32.1472 105.662 32.2972 105.825C32.4471 105.987 32.5621 106.179 32.6352 106.387C32.7082 106.596 32.7377 106.817 32.7219 107.038V107.038Z" fill="#3F3D56"/>
<path d="M32.6513 108.189L32.5499 109.812H17.4953L17.3939 108.189H32.6513Z" fill="#9D9CB5"/>
<path d="M32.5083 110.489L32.4087 112.114H17.6382L17.5369 110.489H32.5083Z" fill="#9D9CB5"/>
<path d="M32.3652 112.793L32.2657 114.417H17.7812L17.6798 112.793H32.3652Z" fill="#9D9CB5"/>
<path d="M15.6621 91.1416C22.27 95.9234 25.0283 103.402 25.0283 103.402C25.0283 103.402 17.0648 103.129 10.4551 98.3468C3.84534 93.5651 1.0925 86.0884 1.0925 86.0884C1.0925 86.0884 9.05239 86.3599 15.6621 91.1416Z" fill="#322864"/>
<path d="M1.0869 86.0884C1.0869 86.0884 9.35447 90.6765 12.006 94.4754C14.6574 98.2744 25.0281 103.402 25.0281 103.402" stroke="#535461" stroke-width="2" stroke-miterlimit="10"/>
<path d="M19.928 81.5094C23.5243 84.1102 25.0283 88.1806 25.0283 88.1806C25.0283 88.1806 20.6936 88.0322 17.0955 85.4314C13.4975 82.8306 11.9971 78.7584 11.9971 78.7584C11.9971 78.7584 16.3299 78.9068 19.928 81.5094Z" fill="#322864"/>
<path d="M11.9971 78.7584C11.9971 78.7584 16.4965 81.256 17.9389 83.3229C19.3814 85.3898 25.0283 88.1806 25.0283 88.1806" stroke="#535461" stroke-width="2" stroke-miterlimit="10"/>
<path d="M30.2495 87.9744C26.1175 92.5154 25.2433 98.45 25.2433 98.45C25.2433 98.45 31.0693 97.0202 35.1977 92.4774C39.326 87.9346 40.2038 82.0017 40.2038 82.0017C40.2038 82.0017 34.3814 83.4334 30.2495 87.9744Z" fill="#322864"/>
<path d="M40.2075 82.0034C40.2075 82.0034 34.8249 86.6584 33.4566 89.8655C32.0883 93.0727 25.2433 98.4498 25.2433 98.4498" stroke="#535461" stroke-width="2" stroke-miterlimit="10"/>
<path d="M181.929 86.3761C181.929 86.3761 178.941 71.5097 180.085 69.66C180.085 69.66 180.127 67.9406 180.058 65.7488C180.058 65.6656 180.058 65.5823 180.058 65.4972C180.259 65.6314 180.469 65.7523 180.686 65.8592C181.74 66.4007 182.95 66.5569 184.106 66.3008L183.202 65.2927C182.984 65.052 182.758 64.7914 182.711 64.4728C182.664 64.1543 182.794 63.8702 182.907 63.586C183.766 61.4141 183.811 58.683 182.155 57.0252C180.756 55.6315 180.416 53.8325 178.898 52.5602C177.788 51.6281 177.178 50.2616 176.603 48.9404C176.116 47.8237 175.625 46.6979 175.347 45.5143C175.129 44.5894 175.043 43.632 174.744 42.7288C174.445 41.8257 173.886 40.9479 173.012 40.5443C172.701 40.4013 172.355 40.3199 172.071 40.1298C171.698 39.8783 171.473 39.4692 171.204 39.1109C169.834 37.301 165.246 38.367 163.074 39.1018C162.483 39.2869 161.937 39.5898 161.467 39.9923L161.486 39.9597C161.503 39.9326 161.523 39.9054 161.541 39.8783C161.303 40.0705 161.098 40.2996 160.933 40.557C160.616 41.0583 160.484 41.6429 160.22 42.1859C159.901 42.8284 158.129 44.622 158.891 45.3441C158.945 45.3926 159.006 45.4318 159.072 45.46C159.358 45.579 159.673 45.6105 159.977 45.5505L159.944 45.6283C159.684 46.2654 159.551 46.9472 159.552 47.6354C159.552 50.6091 162.004 53.0199 165.032 53.0199C165.601 53.0204 166.167 52.9331 166.71 52.7611C166.723 52.8298 166.733 52.8986 166.746 52.9674C166.746 52.9945 166.755 53.0217 166.759 53.0488L166.663 53.1828C166.658 53.1745 166.653 53.1666 166.646 53.1592L163.805 57.1301C163.371 57.436 160.869 59.2459 160.728 60.6033C160.58 62.0892 160.431 63.8285 160.431 63.8285L160.411 64.2014C160.287 64.3051 160.142 64.3807 159.986 64.4229C159.83 64.4651 159.666 64.4729 159.506 64.4457C158.62 64.3009 158.62 67.7035 158.62 67.7035C158.62 67.7035 158.03 68.2465 157.624 67.7759C157.219 67.3053 156.147 68.8998 156.147 68.8998L149.433 69.1894L149.279 69.1985L148.917 68.0781C148.878 67.96 148.794 67.8619 148.683 67.8054C148.572 67.7488 148.444 67.7382 148.325 67.7759C148.297 67.7851 148.27 67.7966 148.244 67.8103L148.218 67.8248L148.171 67.8573L148.148 67.8791C148.135 67.8908 148.123 67.9035 148.111 67.9171L148.09 67.9424L148.079 67.9533C148.037 68.011 148.009 68.0778 147.998 68.1482C147.987 68.2186 147.992 68.2907 148.014 68.3587L148.325 69.3197C147.029 69.5804 145.704 70.3152 146.785 72.3386L141.308 71.3269L143.08 72.8146L152.227 74.7023C152.106 74.9195 152.185 75.2345 152.564 75.6779C154.193 77.5909 157.161 78.1104 158.355 78.2443C158.671 78.95 159.065 79.6178 159.53 80.2352L159.427 82.141C159.427 82.141 156.403 96.6672 155.849 97.4038C156.128 97.087 156.384 96.75 156.614 96.3957C155.736 99.3802 154.509 103.465 154.187 104.077C153.67 105.054 153.19 109.009 153.78 109.262C153.961 109.34 154.479 109.302 155.217 109.246V109.573L155.184 121.988C155.184 121.988 155.333 129.602 154.926 130.327C154.518 131.053 154.41 132.575 154.41 132.575C154.41 132.575 152.781 135.578 151.49 136.785C151.482 136.795 151.472 136.803 151.462 136.811L151.422 136.528C151.422 136.528 149.871 138.486 146.439 138.376C146.439 138.376 144.374 139.719 147.436 139.791C150.499 139.864 154.41 139.683 154.41 139.683C154.41 139.683 157.141 135.52 159.429 136.063V139.218H160.129V136.012C160.454 135.798 160.732 135.521 160.946 135.196C161.161 134.872 161.307 134.507 161.376 134.125C161.436 133.73 161.392 133.327 161.249 132.955C161.105 132.582 160.867 132.254 160.558 132.002C160.419 131.876 160.308 131.723 160.231 131.552C160.154 131.382 160.113 131.197 160.111 131.01L160.086 131.032C160.086 130.968 160.069 130.903 160.062 130.836C159.861 129.207 159.61 125.846 160.498 123.359C161.716 119.95 162.086 115.2 161.199 112.373C160.913 111.47 160.678 110.551 160.495 109.621C160.473 109.503 160.453 109.391 160.435 109.286C161.041 109.368 161.641 109.489 162.232 109.648C164.286 110.214 168.78 110.319 172.617 110.288C172.626 110.393 172.637 110.504 172.65 110.614C172.718 111.382 172.861 112.14 173.077 112.88C173.558 114.328 173.779 120.712 173.779 120.712C173.779 120.712 174.4 125.96 174.062 128.096C173.881 129.283 173.7 130.476 173.596 131.674V131.698C173.596 131.698 172.579 134.593 171.835 136.166C171.817 136.206 171.797 136.246 171.779 136.284C171.581 136.302 171.386 136.345 171.198 136.412C171.198 136.412 170.201 138.403 169.207 138.733C168.214 139.062 168.543 140.146 170.793 139.748C173.043 139.35 176.44 139.024 176.44 139.024L176.586 136.993L177.278 136.128L177.097 138.153L177.833 138.009L177.736 135.545L178.867 134.13C178.867 134.13 180.233 132.914 178.203 130.521V130.574C178.181 130.539 178.161 130.503 178.137 130.469V130.458C177.801 129.937 177.533 128.965 178.023 127.24C178.91 124.123 179.426 121.294 179.426 121.294C179.426 121.294 181.406 113.716 179.026 110.131H179.131C178.887 109.626 178.715 109.09 178.619 108.538C178.607 108.473 178.596 108.406 178.586 108.337C180.347 108.236 182.076 107.917 183.486 107.23C183.48 107.222 182.631 89.2394 181.929 86.3761ZM159.572 73.8336V73.8698L159.21 73.8879L159.572 73.8336ZM158.33 74.0055C158.271 74.0187 158.215 74.0453 158.167 74.0834C158.012 74.3036 157.914 74.5594 157.883 74.8272L157.318 74.7005C157.318 74.7005 156.922 74.6155 156.352 74.5195L156.082 74.2481C156.824 74.1865 157.595 74.096 158.33 74.0055V74.0055Z" fill="url(#paint1_linear)"/>
<path d="M177.014 135.571L176.798 138.135L177.52 137.99L177.412 135.209L177.014 135.571Z" fill="#1D2366"/>
<path d="M160.538 123.394C159.668 125.873 159.914 129.22 160.109 130.845C160.182 131.446 160.249 131.812 160.249 131.812C160.249 131.812 158.947 134.776 158.839 134.888C158.73 135.001 155.009 137.272 155.009 137.272L152.408 138.791C152.408 138.791 149.769 137.634 151.034 137.236C151.293 137.132 151.526 136.973 151.717 136.771C152.984 135.567 154.575 132.575 154.575 132.575C154.575 132.575 154.683 131.057 155.081 130.335C155.48 129.613 155.335 122.024 155.335 122.024L155.365 109.653V108.041L160.316 108.077C160.347 108.624 160.418 109.169 160.529 109.706C160.707 110.633 160.937 111.549 161.219 112.449C162.091 115.271 161.729 119.997 160.538 123.394Z" fill="#FFB0B1"/>
<path opacity="0.1" d="M160.249 131.812C160.249 131.812 158.947 134.776 158.839 134.888C158.73 135.001 155.009 137.272 155.009 137.272L152.408 138.791C152.408 138.791 149.769 137.634 151.034 137.236C151.293 137.132 151.526 136.973 151.717 136.771L151.829 137.562L152.696 137.525L160.116 130.849C160.182 131.446 160.249 131.812 160.249 131.812Z" fill="black"/>
<path d="M160.158 131.017L152.696 137.739L151.829 137.775L151.648 136.508C151.648 136.508 150.131 138.459 146.761 138.351C146.761 138.351 144.738 139.688 147.737 139.76C150.736 139.833 154.565 139.652 154.565 139.652C154.565 139.652 157.24 135.489 159.479 136.032V139.176H160.167V136.003C160.487 135.788 160.76 135.51 160.969 135.187C161.179 134.863 161.321 134.501 161.387 134.121C161.446 133.73 161.404 133.33 161.265 132.959C161.125 132.589 160.892 132.261 160.589 132.007C160.453 131.88 160.345 131.727 160.271 131.556C160.197 131.386 160.159 131.203 160.158 131.017V131.017Z" fill="#1D2366"/>
<path d="M177.701 127.26C177.22 128.979 177.482 129.947 177.812 130.467V130.478C178.234 131.119 178.528 131.836 178.677 132.59L178.706 132.753L175.31 137.703L173.468 138.427C173.468 138.427 170.505 137.415 171.046 137.125C171.182 137.055 171.394 136.678 171.636 136.159C172.36 134.593 173.359 131.705 173.359 131.705V131.681C173.464 130.488 173.631 129.299 173.815 128.116C174.147 125.985 173.538 120.757 173.538 120.757C173.538 120.757 173.321 114.398 172.851 112.952C172.638 112.217 172.497 111.463 172.429 110.701C172.331 109.796 172.31 109.05 172.31 109.05C172.31 109.05 174.261 106.335 177.837 109.267C178.123 109.501 178.375 109.774 178.584 110.078C181.055 113.593 179.066 121.336 179.066 121.336C179.066 121.336 178.568 124.152 177.701 127.26Z" fill="#FFB0B1"/>
<path opacity="0.1" d="M178.711 132.753L175.316 137.703L173.473 138.427C173.473 138.427 170.511 137.415 171.052 137.125C171.188 137.055 171.399 136.678 171.642 136.159C172.896 136.148 173.546 137.343 173.546 137.343L175.135 137.089C175.135 137.089 177.231 132.97 177.701 132.718C178.172 132.467 177.774 130.838 177.774 130.838V130.423C177.786 130.438 177.797 130.454 177.812 130.469V130.48C178.234 131.121 178.528 131.838 178.677 132.592L178.711 132.753Z" fill="black"/>
<path d="M173.654 137.449C173.654 137.449 172.749 135.788 171.016 136.401C171.016 136.401 170.04 138.392 169.065 138.714C168.089 139.037 168.415 140.123 170.619 139.726C172.824 139.33 176.147 139.002 176.147 139.002L176.291 136.977L178.532 134.123C178.532 134.123 179.868 132.912 177.881 130.528V130.943C177.881 130.943 178.279 132.572 177.808 132.823C177.338 133.075 175.249 137.196 175.249 137.196L173.654 137.449Z" fill="#1D2366"/>
<path opacity="0.1" d="M160.321 108.073C160.352 108.621 160.424 109.165 160.535 109.702C158.497 109.403 156.605 109.552 155.366 109.65V108.037L160.321 108.073Z" fill="black"/>
<path opacity="0.1" d="M178.785 110.529C178.785 110.529 175.89 110.67 172.436 110.699C172.339 109.794 172.317 109.049 172.317 109.049C172.317 109.049 174.268 106.334 177.844 109.266C178.13 109.5 178.382 109.773 178.592 110.077C178.648 110.231 178.712 110.382 178.785 110.529V110.529Z" fill="black"/>
<path d="M178.785 110.203C178.785 110.203 166.102 110.817 162.236 109.733C158.37 108.649 154.538 109.588 153.961 109.336C153.384 109.085 153.852 105.145 154.359 104.169C154.866 103.194 157.646 93.3279 157.646 93.3279L160.321 79.3808L163.139 78.6044L163.338 78.5483L168.248 77.1945L171.846 76.2009C171.846 76.2009 179.001 104.133 178.387 106.193C178.164 106.981 178.129 107.811 178.282 108.616C178.376 109.166 178.545 109.7 178.785 110.203V110.203Z" fill="#1D2366"/>
<path d="M150.996 69.8427C150.996 69.8427 148.462 72.5575 150.381 74.0706C152.299 75.5836 153.561 74.2154 153.561 74.2154L150.996 69.8427Z" fill="#C7DAF5"/>
<path opacity="0.1" d="M150.996 69.8427C150.996 69.8427 148.462 72.5575 150.381 74.0706C152.299 75.5836 153.561 74.2154 153.561 74.2154L150.996 69.8427Z" fill="black"/>
<path d="M171.468 51.9936C171.468 51.9936 171.171 52.2759 170.724 52.6922C170.087 53.2876 169.144 54.1582 168.308 54.8876C167.15 55.8957 166.194 56.6359 166.536 56.0043C166.878 55.3726 166.813 54.2722 166.643 53.2424C166.63 53.1736 166.619 53.1048 166.607 53.0379C166.466 52.2816 166.279 51.5345 166.047 50.8009C166.047 50.8009 167.919 48.3829 168.954 47.429C169.34 47.0671 169.609 46.9187 169.626 47.1702C169.644 47.5087 169.897 48.2562 170.212 49.0489C170.221 49.0742 170.23 49.0978 170.241 49.1231C170.451 49.6661 170.688 50.2235 170.896 50.7049C171.215 51.4434 171.468 51.9936 171.468 51.9936Z" fill="#FFB0B1"/>
<path opacity="0.1" d="M170.241 49.1231C170.065 50.069 169.638 50.9504 169.005 51.675C168.373 52.3996 167.557 52.941 166.643 53.2424C166.499 52.4162 166.3 51.6006 166.047 50.8009C166.047 50.8009 169.571 46.249 169.626 47.1702C169.638 47.5196 169.913 48.2942 170.241 49.1231Z" fill="black"/>
<path opacity="0.1" d="M166.292 54.4586L166.748 53.8161C166.748 53.8161 167.05 55.6586 168.161 54.846C169.273 54.0333 169.327 60.9616 169.327 60.9616L168.134 78.7944L159.515 78.2786L159.76 69.6617L160.735 65.318L163.148 59.0033L164.583 56.9165L166.292 54.4586Z" fill="black"/>
<path d="M169.327 61.0721L168.241 77.1964L168.127 78.905L163.322 78.6172L163.141 78.6063L159.521 78.3891L159.765 69.7705L160.741 65.4267L163.153 59.112L164.589 57.0252L166.297 54.5583L166.753 53.9176C166.753 53.9176 167.056 55.7601 168.167 54.9475L168.19 54.9312C169.276 54.2434 169.327 61.0721 169.327 61.0721Z" fill="#1D2366"/>
<path d="M160.862 63.9173C160.862 63.9173 160.429 64.8222 159.561 64.6756C158.692 64.529 158.694 67.9334 158.694 67.9334C158.694 67.9334 158.116 68.4764 157.718 68.0058C157.32 67.5352 156.27 69.1261 156.27 69.1261L149.693 69.4157C149.693 69.4157 152.62 70.7532 152.046 74.8001C152.046 74.8001 161.982 74.1848 162.308 73.2454C162.634 72.3061 160.862 63.9173 160.862 63.9173Z" fill="white"/>
<path opacity="0.03" d="M160.862 63.9173C160.862 63.9173 160.429 64.8222 159.561 64.6756C158.692 64.529 158.694 67.9334 158.694 67.9334C158.694 67.9334 158.116 68.4764 157.718 68.0058C157.32 67.5352 156.27 69.1261 156.27 69.1261L149.693 69.4157C149.693 69.4157 152.62 70.7532 152.046 74.8001C152.046 74.8001 161.982 74.1848 162.308 73.2454C162.634 72.3061 160.862 63.9173 160.862 63.9173Z" fill="black"/>
<path d="M141.748 71.5424L143.482 73.0229L157.754 76.0219L155.984 74.2157L141.748 71.5424Z" fill="white"/>
<path d="M166.319 55.0289C166.082 55.3908 165.403 57.2442 164.837 58.8622C164.364 60.2106 163.97 61.396 163.97 61.396C163.97 61.396 163.048 67.394 162.578 68.4781C162.107 69.5623 162.362 73.7902 162.362 73.7902L160.609 84.2314C160.609 84.2314 159.814 89.6158 158.587 92.832C157.376 95.9975 156.028 97.4816 155.986 97.5287C156.529 96.7939 159.488 82.3256 159.488 82.3256L160.466 64.0783C160.466 64.0783 160.609 62.3444 160.753 60.8621C160.898 59.3798 163.83 57.3564 163.83 57.3564L166.657 53.3366C166.941 53.7167 166.751 54.3791 166.319 55.0289Z" fill="white"/>
<path d="M158.947 78.4796C158.947 78.4796 154.785 78.2986 152.768 75.877C150.752 73.4553 157.429 74.9105 157.429 74.9105L159.165 75.3087L158.947 78.4796Z" fill="#FFB0B1"/>
<path opacity="0.1" d="M178.387 106.194C178.164 106.983 178.128 107.813 178.282 108.618C173.741 108.94 168.883 107.713 168.883 107.713C167.979 108.545 165.595 109.772 165.595 109.772L164.295 93.6645C163.465 91.4926 163.139 80.1138 163.139 80.1138C163.139 80.1138 163.213 79.5184 163.32 78.6261C163.32 78.6044 163.32 78.5809 163.329 78.5591C163.653 76.0669 164.295 71.3884 164.61 70.7567C165.045 69.888 163.275 67.5767 163.275 67.5767L164.08 60.7082L164.178 59.8793C165.875 59.1209 167.177 56.6993 167.177 56.6993L168.176 54.9491C169.262 54.2523 169.318 61.0811 169.318 61.0811L168.232 77.2053L171.83 76.2117C171.83 76.2117 179.001 104.135 178.387 106.194Z" fill="black"/>
<path d="M183.048 107.307C178.098 109.765 169.101 107.488 169.101 107.488C168.196 108.321 165.812 109.548 165.812 109.548L164.511 93.4401C163.682 91.2682 163.356 79.8895 163.356 79.8895C163.356 79.8895 164.402 71.3993 164.837 70.5323C164.963 70.2789 164.902 69.9025 164.752 69.4971C164.013 67.5674 163.741 65.4904 163.959 63.4358L164.306 60.4838L164.402 59.6567C166.102 58.8966 167.403 56.4749 167.403 56.4749L168.308 54.8895L169.973 51.9683L170.762 50.5856L170.896 50.7068L171.919 51.6335C171.919 51.6335 172.353 51.9955 173.005 52.5384C174.422 53.733 176.871 55.836 178.134 57.1229C179.245 58.2559 179.596 62.6629 179.698 65.9805C179.765 68.165 179.725 69.8772 179.725 69.8772C178.605 71.7214 181.535 86.5281 181.535 86.5281C182.217 89.3896 183.048 107.307 183.048 107.307Z" fill="white"/>
<path opacity="0.03" d="M173.546 56.4388C173.546 56.4388 170.149 62.9055 170.543 65.3634C170.938 67.8212 172.06 70.603 171.519 71.2527C171.333 71.4989 171.092 71.6987 170.816 71.8366C170.54 71.9744 170.236 72.0465 169.928 72.0473C169.385 72.0835 167.937 73.0952 167.937 73.2038C167.937 73.3124 166.599 73.3124 165.403 73.8192C164.207 74.3259 162.44 74.6137 162.44 74.6137C162.44 74.6137 159.001 74.5051 158.681 74.8309C158.361 75.1567 158.031 77.1059 158.717 78.6606C159.403 80.2153 160.165 81.3755 160.741 81.5872C161.316 81.799 164.969 80.5755 167.931 80.2859C170.894 79.9963 174.11 77.6489 174.11 77.6489C174.11 77.6489 177.652 76.382 178.273 74.2517C178.894 72.1215 177.515 60.4133 177.515 60.4133C177.515 60.4133 176.472 54.9565 173.546 56.4388Z" fill="black"/>
<path opacity="0.03" d="M173.111 55.8957C173.111 55.8957 169.714 62.3643 170.112 64.8203C170.511 67.2763 171.629 70.0599 171.086 70.7115C170.901 70.9579 170.661 71.158 170.385 71.2958C170.109 71.4337 169.805 71.5057 169.497 71.506C168.954 71.5422 167.506 72.5539 167.506 72.6625C167.506 72.7711 166.169 72.7711 164.972 73.2761C163.776 73.7811 162.01 74.0706 162.01 74.0706C162.01 74.0706 158.571 73.962 158.252 74.2878C157.934 74.6136 157.601 76.5647 158.288 78.1175C158.976 79.6704 159.736 80.8324 160.312 81.0441C160.887 81.2559 164.54 80.0324 167.503 79.7446C170.465 79.4569 173.682 77.1058 173.682 77.1058C173.682 77.1058 177.222 75.8389 177.835 73.7105C178.449 71.582 177.077 59.8702 177.077 59.8702C177.077 59.8702 176.038 54.4152 173.111 55.8957Z" fill="black"/>
<path d="M173.439 56.113C173.439 56.113 170.042 62.5816 170.44 65.0376C170.838 67.4936 171.957 70.2772 171.416 70.927C171.23 71.174 170.99 71.3745 170.714 71.5127C170.438 71.651 170.134 71.7231 169.825 71.7233C169.282 71.7595 167.834 72.7713 167.834 72.878C167.834 72.9848 166.498 72.9866 165.3 73.4934C164.102 74.0002 162.337 74.2879 162.337 74.2879C162.337 74.2879 158.899 74.1794 158.578 74.5051C158.258 74.8309 157.928 76.782 158.614 78.3349C159.3 79.8877 160.062 81.0497 160.638 81.2614C161.213 81.4732 164.866 80.2497 167.828 79.9601C170.791 79.6706 174.007 77.3231 174.007 77.3231C174.007 77.3231 177.549 76.0562 178.17 73.926C178.791 71.7957 177.421 60.0876 177.421 60.0876C177.421 60.0876 176.364 54.6398 173.439 56.113Z" fill="white"/>
<path opacity="0.1" d="M173.365 73.4625C173.365 73.4625 170.65 72.9195 171.595 73.8244C172.54 74.7294 172.534 75.5221 173.691 75.4859C174.847 75.4497 173.365 73.4625 173.365 73.4625Z" fill="black"/>
<path opacity="0.1" d="M177.953 92.9332C177.953 92.9332 176.726 93.7639 179.073 95.6787C181.421 97.5936 177.953 92.9332 177.953 92.9332Z" fill="black"/>
<path opacity="0.1" d="M175.611 99.7619C175.611 99.8705 175.177 103.744 176.802 104.712C178.427 105.68 175.611 99.7619 175.611 99.7619Z" fill="black"/>
<path d="M149.806 69.4066C148.495 69.4518 145.665 69.8518 147.132 72.5902C148.43 75.0136 150.611 73.3938 151.838 72.1649C151.539 71.0191 150.811 70.0319 149.806 69.4066V69.4066Z" fill="#FFB0B1"/>
<path d="M151.854 72.1431L151.909 72.087L151.854 72.1431Z" fill="#FFB0B1"/>
<path opacity="0.1" d="M173.005 52.6488C171.615 53.5989 170.449 54.4007 170.221 54.5672C169.599 55.0288 168.411 57.7382 167.646 59.1209C167.036 60.234 165.054 60.52 164.306 60.5905L164.402 59.7634C166.102 59.0033 167.403 56.5816 167.403 56.5816L170.762 50.6923L171.919 51.7438C171.919 51.7438 172.353 52.1058 173.005 52.6488Z" fill="black"/>
<path d="M173.005 52.5402C171.615 53.4904 170.449 54.2922 170.221 54.4605C169.599 54.9203 168.411 57.6297 167.646 59.0124C167.036 60.1255 165.054 60.4115 164.306 60.482L164.402 59.6549C166.102 58.8948 167.403 56.4731 167.403 56.4731L170.762 50.5838L171.919 51.6317C171.919 51.6317 172.353 51.99 173.005 52.5402Z" fill="#DCE7FF"/>
<path d="M170.33 47.9287C170.331 49.0151 170.001 50.0762 169.385 50.9711C168.658 52.0292 167.575 52.7915 166.333 53.1196C165.092 53.4477 163.774 53.3198 162.618 52.7593C161.463 52.1988 160.547 51.2427 160.036 50.0644C159.526 48.8862 159.454 47.564 159.835 46.3376C160.216 45.1113 161.024 44.0621 162.112 43.3804C163.2 42.6987 164.497 42.4297 165.766 42.6221C167.036 42.8146 168.195 43.4558 169.032 44.4294C169.869 45.4031 170.33 46.6446 170.33 47.9287V47.9287Z" fill="#FFB0B1"/>
<path opacity="0.1" d="M179.697 65.9822C178.963 65.5301 178.364 64.8871 177.965 64.1217C177.663 63.5244 177.462 62.8348 176.946 62.4113C176.481 62.0312 175.861 61.9389 175.281 61.7688C173.377 61.2059 171.781 59.4684 171.721 57.4848C171.692 56.5509 171.984 55.6188 171.852 54.6939C171.777 54.1705 171.568 53.6751 171.247 53.2551C171.088 53.0542 170.913 52.866 170.724 52.6922C170.471 52.4533 170.205 52.2216 169.973 51.9683C169.827 51.8114 169.7 51.6383 169.593 51.4524C169.507 51.3003 169.437 51.1396 169.385 50.9728C169.023 49.8652 169.352 48.5512 168.954 47.4309L168.932 47.3693C168.782 46.9712 168.476 46.573 168.051 46.5422C167.626 46.5114 167.262 46.8644 166.856 47.0218C166.007 47.3512 165.092 46.7902 164.384 46.2182C163.676 45.6463 162.878 44.9929 161.979 45.1196C161.383 45.2047 160.913 45.6101 160.364 45.8201C160.24 45.868 160.113 45.9049 159.982 45.9305C160.446 44.7731 161.299 43.8134 162.394 43.2164C163.489 42.6194 164.757 42.4222 165.982 42.6589C167.206 42.8955 168.31 43.5512 169.103 44.5131C169.896 45.4751 170.33 46.6834 170.33 47.9304C170.33 48.3069 170.291 48.6825 170.212 49.0507C170.221 49.0761 170.23 49.0996 170.241 49.1249C170.451 49.6679 170.688 50.2253 170.896 50.7068L171.919 51.6334C171.919 51.6334 172.353 51.9954 173.005 52.5384C174.422 53.7329 176.87 55.836 178.134 57.1228C179.245 58.2594 179.593 62.6647 179.697 65.9822Z" fill="black"/>
<path d="M160.301 42.5135C160.56 41.9868 160.688 41.3968 160.998 40.8973C161.452 40.1733 162.245 39.71 163.059 39.4294C165.186 38.6964 169.68 37.6322 171.023 39.4294C171.287 39.7914 171.506 40.1932 171.871 40.443C172.15 40.633 172.487 40.7145 172.793 40.8575C173.649 41.2592 174.195 42.1352 174.487 43.0293C174.778 43.9234 174.865 44.8826 175.079 45.8039C175.352 46.9857 175.832 48.1061 176.309 49.2191C176.872 50.5331 177.469 51.896 178.555 52.8244C180.038 54.0914 180.365 55.885 181.741 57.275C183.37 58.9256 183.317 61.6495 182.477 63.8123C182.367 64.0964 182.242 64.3933 182.286 64.6955C182.329 64.9978 182.553 65.2729 182.765 65.5136L183.656 66.5181C181.549 67.0267 179.165 65.9262 178.184 63.9951C177.882 63.3978 177.681 62.7101 177.164 62.2847C176.7 61.9047 176.078 61.8142 175.5 61.644C173.596 61.0794 172 59.3401 171.94 57.3564C171.911 56.4243 172.203 55.4922 172.071 54.5692C171.997 54.0422 171.788 53.5434 171.464 53.1213C170.967 52.4715 170.215 52.0353 169.81 51.3114C169.124 50.1006 169.645 48.5278 169.151 47.2283C168.999 46.8301 168.695 46.4319 168.27 46.4011C167.844 46.3704 167.481 46.7233 167.073 46.8808C166.226 47.2102 165.311 46.6509 164.603 46.0772C163.895 45.5034 163.097 44.8519 162.196 44.9804C161.6 45.0636 161.132 45.4691 160.583 45.6808C160.178 45.8365 159.356 45.9758 159.001 45.6337C158.252 44.9442 159.988 43.1578 160.301 42.5135Z" fill="#591D4B"/>
<path opacity="0.1" d="M178.688 63.3977C178.384 62.8004 178.185 62.1126 177.667 61.6891C177.204 61.3091 176.581 61.2168 176.002 61.0466C174.1 60.4837 172.503 58.7444 172.442 56.7608C172.413 55.8287 172.704 54.8948 172.574 53.9718C172.498 53.4482 172.289 52.9528 171.968 52.5329C171.468 51.8832 170.717 51.447 170.313 50.723C169.627 49.514 170.149 47.9412 169.653 46.6399C169.503 46.2435 169.197 45.8454 168.773 45.8128C168.35 45.7802 167.982 46.1368 167.577 46.2942C166.73 46.6236 165.812 46.0626 165.106 45.4906C164.4 44.9187 163.599 44.2653 162.699 44.392C162.104 44.4771 161.633 44.8825 161.087 45.0925C160.681 45.2481 159.858 45.3893 159.503 45.0472C158.757 44.3232 160.493 42.5405 160.804 41.8998C161.063 41.3713 161.192 40.7831 161.503 40.2836C161.519 40.2564 161.537 40.2293 161.555 40.2021C161.322 40.395 161.122 40.6235 160.96 40.879C160.65 41.3786 160.522 41.965 160.263 42.4953C159.95 43.136 158.214 44.9241 158.962 45.6427C159.324 45.9865 160.138 45.8454 160.544 45.6897C161.087 45.478 161.561 45.0725 162.156 44.9893C163.061 44.8608 163.858 45.5142 164.563 46.0861C165.269 46.658 166.192 47.2191 167.036 46.8897C167.441 46.7322 167.796 46.3775 168.23 46.41C168.665 46.4426 168.954 46.839 169.112 47.2372C169.606 48.5367 169.084 50.1095 169.77 51.3203C170.176 52.0316 170.927 52.4768 171.425 53.1302C171.749 53.5523 171.957 54.0511 172.031 54.5781C172.163 55.5011 171.872 56.4332 171.901 57.3653C171.96 59.3562 173.557 61.0882 175.461 61.6529C176.034 61.8231 176.661 61.9136 177.124 62.2936C177.643 62.719 177.848 63.4067 178.145 64.004C179.126 65.9351 181.509 67.0355 183.616 66.527L183.196 66.0528C181.37 66.0799 179.522 65.041 178.688 63.3977Z" fill="black"/>
<path opacity="0.1" d="M166.21 55.1375C165.973 55.4994 165.294 57.3528 164.728 58.9708C164.198 58.7645 163.716 57.4487 163.716 57.4487L166.543 53.4271C166.833 53.8253 166.643 54.4859 166.21 55.1375Z" fill="black"/>
<path d="M166.319 55.0287C166.082 55.3907 165.403 57.244 164.836 58.8621C164.306 58.6576 163.825 57.34 163.825 57.34L166.652 53.3202C166.941 53.7166 166.751 54.379 166.319 55.0287Z" fill="#DCE7FF"/>
<path d="M149.881 73.5188L148.314 68.576C148.295 68.5181 148.289 68.4572 148.294 68.3966C148.299 68.3361 148.316 68.2771 148.344 68.2231C148.371 68.1691 148.41 68.1212 148.456 68.0821C148.503 68.0429 148.557 68.0133 148.614 67.995V67.995C148.731 67.9586 148.857 67.9698 148.966 68.026C149.074 68.0823 149.156 68.1791 149.194 68.2955L150.761 73.2329L150.605 74.2663L149.881 73.5188Z" fill="#BE8B87"/>
<path opacity="0.1" d="M148.463 68.1416C148.579 68.1046 148.706 68.1155 148.815 68.1718C148.924 68.2281 149.006 68.3253 149.044 68.4421L150.611 73.3794L150.493 74.1541L150.607 74.2735L150.763 73.2401L149.186 68.3027C149.149 68.1864 149.067 68.0895 148.959 68.0333C148.85 67.977 148.724 67.9658 148.607 68.0023V68.0023C148.509 68.0341 148.424 68.0978 148.367 68.1832C148.397 68.1667 148.429 68.1528 148.463 68.1416V68.1416Z" fill="white"/>
<path d="M149.881 73.5185L150.761 73.2398L150.633 74.0868L150.605 74.2732L150.348 74.0054L149.881 73.5185Z" fill="#EFC8C4"/>
<path d="M150.348 74.0055C150.364 73.9862 150.383 73.9701 150.404 73.9584C150.417 73.9504 150.432 73.9461 150.447 73.9461C150.462 73.9461 150.477 73.9504 150.489 73.9584C150.502 73.9733 150.512 73.9898 150.52 74.0073C150.532 74.0273 150.548 74.0443 150.568 74.0572C150.587 74.07 150.609 74.0783 150.632 74.0815L150.605 74.2625L150.348 74.0055Z" fill="#727A9C"/>
<path d="M148.305 70.3315C148.305 70.3315 151.449 70.3134 150.708 71.6509C149.968 72.9884 148.812 73.1495 148.812 73.1495L148.305 70.3315Z" fill="#FFB0B1"/>
<path d="M128.753 10.3065H128.617C123.216 10.3065 118.44 13.1643 115.693 17.3814C112.945 13.1643 108.169 10.3065 102.768 10.3065H102.632C98.5794 10.3451 94.7053 11.9817 91.8521 14.8607C88.9989 17.7396 87.3972 21.6283 87.395 25.6815C87.395 30.7148 89.5995 37.8566 93.898 43.7334C102.088 54.9311 115.693 64.7281 115.693 64.7281C115.693 64.7281 129.298 54.933 137.486 43.7334C141.786 37.8566 143.988 30.7148 143.988 25.6815C143.986 21.6286 142.385 17.7402 139.532 14.8613C136.679 11.9824 132.806 10.3456 128.753 10.3065V10.3065ZM126.811 44.5949C126.196 44.5925 125.596 44.4043 125.09 44.0548C124.583 43.7053 124.195 43.2109 123.975 42.6366H120.746C120.533 42.6352 120.326 42.5676 120.154 42.443C119.982 42.3184 119.853 42.1431 119.785 41.9416L118.793 38.9534L115.655 49.9196C115.594 50.1307 115.466 50.3162 115.29 50.4484C115.114 50.5806 114.901 50.6522 114.681 50.6526H114.618C114.388 50.6415 114.17 50.552 113.998 50.3992C113.827 50.2463 113.713 50.0393 113.676 49.8128L110.442 30.3601L108.078 41.871C108.024 42.0897 107.898 42.2839 107.721 42.4226C107.543 42.5614 107.325 42.6367 107.099 42.6366H102.551C102.415 42.6423 102.279 42.6205 102.151 42.5723C102.023 42.5241 101.907 42.4505 101.808 42.3561C101.71 42.2617 101.631 42.1483 101.578 42.0228C101.524 41.8973 101.497 41.7622 101.497 41.6257C101.497 41.4893 101.524 41.3542 101.578 41.2287C101.631 41.1032 101.71 40.9898 101.808 40.8954C101.907 40.8009 102.023 40.7274 102.151 40.6792C102.279 40.631 102.415 40.6091 102.551 40.6149H106.303L109.651 25.1386C109.706 24.9097 109.839 24.7071 110.027 24.5653C110.215 24.4236 110.446 24.3514 110.681 24.3613C110.916 24.3711 111.14 24.4623 111.316 24.6192C111.491 24.7762 111.606 24.9892 111.642 25.2218L114.945 45.0654L117.758 35.254C117.816 35.0474 117.94 34.8652 118.111 34.7348C118.281 34.6043 118.49 34.5325 118.704 34.5301H118.724C118.937 34.5301 119.144 34.5974 119.316 34.7222C119.489 34.847 119.617 35.023 119.683 35.2251L121.477 40.6203H123.935C124.11 40.0894 124.428 39.6171 124.854 39.2556C125.28 38.894 125.798 38.6572 126.35 38.5714C126.903 38.4855 127.468 38.5539 127.984 38.769C128.5 38.9842 128.946 39.3376 129.274 39.7904C129.601 40.2432 129.797 40.7778 129.841 41.335C129.884 41.8923 129.772 42.4506 129.518 42.9484C129.263 43.4462 128.877 43.864 128.4 44.1558C127.923 44.4477 127.375 44.6021 126.816 44.6021L126.811 44.5949Z" fill="#322864"/>
<defs>
<linearGradient id="paint0_linear" x1="65.4919" y1="141.243" x2="65.4919" y2="29.8732" gradientUnits="userSpaceOnUse">
<stop stop-color="#808080" stop-opacity="0.25"/>
<stop offset="0.54" stop-color="#808080" stop-opacity="0.12"/>
<stop offset="1" stop-color="#808080" stop-opacity="0.1"/>
</linearGradient>
<linearGradient id="paint1_linear" x1="40400.5" y1="84030.9" x2="40400.5" y2="26863.9" gradientUnits="userSpaceOnUse">
<stop stop-color="#808080" stop-opacity="0.25"/>
<stop offset="0.54" stop-color="#808080" stop-opacity="0.12"/>
<stop offset="1" stop-color="#808080" stop-opacity="0.1"/>
</linearGradient>
</defs>
</svg>
