<svg width="23" height="26" viewBox="0 0 23 26" fill="none" xmlns="http://www.w3.org/2000/svg">
<path fill-rule="evenodd" clip-rule="evenodd" d="M16.5409 4.50488C15.9669 4.18331 15.2644 4.47446 15.0098 5.08113C14.7551 5.6878 15.0466 6.37887 15.6096 6.7193C16.8661 7.47903 17.9004 8.56902 18.5934 9.88028C19.4729 11.5446 19.7482 13.4624 19.3723 15.3069C18.9964 17.1514 17.9925 18.8085 16.5318 19.9958C15.0711 21.1831 13.2438 21.8273 11.3614 21.8184C9.47903 21.8096 7.65794 21.1483 6.20844 19.9473C4.75894 18.7462 3.77072 17.0798 3.41217 15.2318C3.05361 13.3839 3.3469 11.4687 4.24206 9.81279C4.94734 8.50811 5.99185 7.42789 7.25545 6.68001C7.82165 6.34489 8.11958 5.65659 7.87066 5.04755C7.62174 4.43852 6.922 4.14078 6.34499 4.45693C4.5752 5.42663 3.1137 6.88979 2.14609 8.67976C0.988791 10.8206 0.609616 13.2966 1.07317 15.6856C1.53672 18.0747 2.81432 20.2292 4.68828 21.7819C6.56223 23.3346 8.9166 24.1896 11.3502 24.201C13.7839 24.2124 16.1462 23.3797 18.0346 21.8447C19.9231 20.3097 21.2209 18.1673 21.7069 15.7827C22.1929 13.398 21.837 10.9187 20.6999 8.76702C19.7492 6.96802 18.3015 5.49118 16.5409 4.50488ZM10.3242 13.898C10.3204 14.5361 10.8346 15.0565 11.4727 15.0603C12.1108 15.0641 12.6312 14.5499 12.6351 13.9118L12.7062 2.00255C12.71 1.36442 12.1958 0.844024 11.5577 0.840212C10.9195 0.8364 10.3991 1.35062 10.3953 1.98875L10.3242 13.898Z" fill="#D7D7D7"/>
</svg>
