<svg width="100" height="111" viewBox="0 0 100 111" fill="none" xmlns="http://www.w3.org/2000/svg">
<path d="M42.1187 26.9932C40.511 26.6548 39.6156 27.8393 39.3688 28.4739C38.8399 32.3872 37.7188 41.0812 37.4649 44.5503C37.1476 48.8867 39.7918 53.3288 42.2244 54.1749C44.1705 54.8518 43.2468 59.3927 42.5417 61.5785C39.3687 73.2572 5.94683 72.8954 5.52377 56.1845C5.10071 39.4735 21.2828 27.522 43.7051 25.6183C66.1274 23.7145 74.2713 30.1662 83.1556 40.4254C90.2631 48.6328 83.6492 58.7934 79.4538 62.8477L57.9834 84.4239L54.8105 85.27C40.3418 84.6777 36.8656 92.9204 36.9361 97.1157C37.7822 114.25 59.2526 113.404 64.964 103.99C69.533 96.46 64.823 90.5583 61.8968 88.5487C64.8583 86.3276 86.1171 65.5976 90.1362 55.0211C94.1552 44.4445 86.4344 31.5411 67.2909 23.7145C51.9761 17.4532 29.5326 23.2914 20.2252 26.9932C-4.56621 42.8157 -1.45671 59.3222 3.19697 65.5976C17.7926 82.4143 39.263 75.0107 45.7147 67.3956C52.1664 59.7805 54.0702 57.5594 56.9258 57.6652C59.2104 57.7498 64.8582 55.0916 67.2909 53.6461L81.3577 41.3773C81.7807 40.8838 82.3096 39.6216 81.0404 38.5217C79.7712 37.4217 78.6783 37.4287 78.2905 37.5698C74.3419 40.778 65.5351 47.8502 61.8968 50.4732C57.3489 53.7519 50.5799 52.4827 46.6666 50.4732C43.5359 48.8655 42.3302 45.7137 42.1187 44.3388C42.8943 39.1915 44.4244 28.8758 44.3397 28.7912C44.234 28.6855 44.1282 27.4163 42.1187 26.9932Z" fill="#131313"/>
<path d="M60.3103 0.0229805C47.4492 -0.738531 42.1891 17.6153 41.1667 26.8874L43.0705 27.0989C47.0896 2.77288 56.82 2.13829 60.0988 1.82099C62.7218 1.56716 68.7363 3.26646 71.4157 4.14784L71.9445 2.13829L60.3103 0.0229805Z" fill="url(#paint0_linear)"/>
<path d="M72.8963 1.08064L74.8 1.60946C77.0845 1.27101 78.3609 2.59661 78.7135 3.30171C80.3211 2.20175 82.0627 2.91391 82.7326 3.40748C84.4248 3.15364 85.0594 3.86579 85.1652 4.2536C83.1345 5.18434 83.6845 7.25029 84.2133 8.16692C83.4518 8.58999 82.1332 8.13167 81.5691 7.84963C79.6231 7.93424 78.4667 6.79197 78.0789 6.26315C76.3866 7.27849 74.3771 6.58044 73.6367 6.05161C72.7061 6.13623 71.9092 5.80483 71.6271 5.62855C70.8656 3.59786 72.1559 1.75049 72.8963 1.08064Z" fill="url(#paint1_linear)"/>
<path d="M84.1513 8.11549C83.0513 5.74634 84.3629 4.48421 85.1032 4.20216C85.2524 4.82855 85.2703 5.50713 85.1652 6.05161C84.9722 7.05164 84.448 7.77308 84.1513 8.11549Z" fill="url(#paint2_radial)"/>
<path d="M94.4726 7.0035L84.8479 4.99396C83.7479 5.50163 84.037 6.68621 84.3191 7.21503L89.8189 8.16692C94.7898 8.80152 96.5879 9.43611 97.857 12.6091C99.1262 15.782 94.1553 22.6568 91.1938 26.2528C88.8247 29.1296 82.5916 35.0666 79.7711 37.6755C80.3634 37.6755 81.2166 38.6626 81.5692 39.1562C85.412 35.8422 94.1553 27.247 98.3859 19.3781C102.616 11.5091 97.5397 7.84963 94.4726 7.0035Z" fill="url(#paint3_linear)"/>
<path d="M40.1092 92.6735C42.4783 88.1045 48.1474 86.8917 50.6857 86.8564C60.2047 86.4334 67.7139 93.7312 63.4833 101.029C59.2526 108.327 50.6857 107.269 45.5032 105.577C40.3207 103.885 37.1478 98.3849 40.1092 92.6735Z" fill="url(#paint4_linear)"/>
<path d="M44.2339 96.058C44.5724 96.058 45.3621 94.4363 45.7147 93.6254C49.0639 90.6993 56.2489 84.8892 58.195 85.0584C60.1411 85.2277 61.0506 87.3148 61.2622 88.3372L60.2045 89.0775L60.7333 89.6064L61.5266 90.3467C61.957 92.6496 60.174 95.2337 59.2287 96.2379C57.4866 96.9766 55.3003 98.2123 53.4355 100.077C49.7337 103.779 46.6665 104.731 46.2435 104.308L42.5417 100.817C41.9071 99.8656 43.8109 96.058 44.2339 96.058Z" fill="url(#paint5_radial)"/>
<path d="M51.6375 85.3757C47.4915 89.6063 45.9614 92.8498 45.7147 93.9427C46.7098 95.2196 49.1183 97.5783 50.7914 96.7984C56.397 91.4043 57.4546 91.7216 58.0892 91.2986C58.7238 90.8755 62.1083 88.0198 58.8296 84.9526C56.2066 82.4989 52.942 84.2123 51.6375 85.3757Z" fill="url(#paint6_radial)"/>
<defs>
<linearGradient id="paint0_linear" x1="55.4451" y1="-2.09233" x2="44.0224" y2="25.5125" gradientUnits="userSpaceOnUse">
<stop stop-color="#7D7B7A"/>
<stop offset="0.411458" stop-color="#DCDCDC"/>
<stop offset="1" stop-color="#A5A09F"/>
</linearGradient>
<linearGradient id="paint1_linear" x1="78.3962" y1="0.869106" x2="77.2328" y2="8.27269" gradientUnits="userSpaceOnUse">
<stop stop-color="#2B2A2A"/>
<stop offset="0.491986" stop-color="#4E4C4D"/>
<stop offset="1" stop-color="#201D1E"/>
</linearGradient>
<radialGradient id="paint2_radial" cx="0" cy="0" r="1" gradientUnits="userSpaceOnUse" gradientTransform="translate(84.8479 6.15738) rotate(98.5308) scale(2.13897 0.790667)">
<stop offset="0.195921" stop-color="#9A9697"/>
<stop offset="1" stop-color="#E2E0DC"/>
</radialGradient>
<linearGradient id="paint3_linear" x1="99.9724" y1="6.79197" x2="65.0697" y2="30.3777" gradientUnits="userSpaceOnUse">
<stop stop-color="#A7A6A4"/>
<stop offset="0.3125" stop-color="#D9D8D6"/>
<stop offset="0.598958" stop-color="#F2EDED"/>
<stop offset="1" stop-color="#97938F"/>
</linearGradient>
<linearGradient id="paint4_linear" x1="42.2244" y1="88.6545" x2="63.2717" y2="104.625" gradientUnits="userSpaceOnUse">
<stop stop-color="#DBDBD8"/>
<stop offset="0.46875" stop-color="#B7B6B3"/>
<stop offset="1" stop-color="#F3F0ED"/>
</linearGradient>
<radialGradient id="paint5_radial" cx="0" cy="0" r="1" gradientUnits="userSpaceOnUse" gradientTransform="translate(49.8395 97.2215) rotate(68.2901) scale(12.2948 12.6509)">
<stop stop-color="#C4C4C4"/>
<stop stop-color="#EAEAEA"/>
<stop offset="0.307292" stop-color="#E4E4E4"/>
<stop offset="0.916667" stop-color="#828282"/>
</radialGradient>
<radialGradient id="paint6_radial" cx="0" cy="0" r="1" gradientUnits="userSpaceOnUse" gradientTransform="translate(52.9767 90.3336) rotate(89.4781) scale(3.92659 4.2995)">
<stop stop-color="#F3F2F0"/>
<stop offset="1" stop-color="#DEDEDB"/>
</radialGradient>
</defs>
</svg>
