<svg width="200" height="140" viewBox="0 0 200 140" fill="none" xmlns="http://www.w3.org/2000/svg">
<path d="M167.107 21.4061L151.679 21.5564C150.954 17.9863 148.517 8.61886 150.711 6.06379C150.811 5.10214 151.278 4.2161 152.015 3.59014C152.752 2.96418 153.702 2.64653 154.667 2.7033V2.7033C157.058 -1.0399 161.042 -0.477884 163.734 1.85991C166.443 2.79477 167.464 4.45559 167.107 6.7094C169.114 8.46571 169.484 10.6025 168.583 13.0348L167.107 21.4061Z" fill="#2F2E41"/>
<path d="M165.622 30.9105L154.491 29.3693L152.265 26.1155C155.332 24.0813 156.417 21.2401 155.005 17.3818L162.711 17.2106C162.35 20.6464 163.486 23.3067 166.65 24.9168L165.622 30.9105Z" fill="#FFB9B9"/>
<path d="M151.859 131.311L151.433 137.129C151.414 137.393 151.451 137.657 151.543 137.905C151.634 138.153 151.777 138.378 151.963 138.566C152.148 138.754 152.372 138.9 152.619 138.994C152.865 139.089 153.129 139.129 153.393 139.113L156.381 138.932C156.52 138.924 156.655 138.885 156.777 138.819C156.898 138.752 157.004 138.66 157.086 138.548C157.168 138.436 157.225 138.308 157.251 138.171C157.278 138.035 157.274 137.895 157.241 137.76L155.582 131.125L151.859 131.311Z" fill="#E6E6E6"/>
<path d="M161.535 131.125L159.876 137.76C159.842 137.895 159.839 138.035 159.865 138.171C159.892 138.308 159.949 138.436 160.031 138.548C160.113 138.66 160.218 138.752 160.34 138.819C160.462 138.885 160.597 138.924 160.735 138.932L163.724 139.113C163.988 139.129 164.252 139.089 164.498 138.994C164.745 138.9 164.968 138.754 165.154 138.566C165.34 138.378 165.483 138.153 165.574 137.905C165.665 137.657 165.703 137.393 165.683 137.129L165.258 131.311L161.535 131.125Z" fill="#E6E6E6"/>
<path d="M165.451 132.119L161.418 131.714L157.402 88.7927L155.885 131.576L151.922 131.434L145.244 72.1814H170.76L165.451 132.119Z" fill="#63B0F8"/>
<path d="M159.286 20.1218C163.542 20.1218 166.992 16.6716 166.992 12.4156C166.992 8.15956 163.542 4.70938 159.286 4.70938C155.03 4.70938 151.58 8.15956 151.58 12.4156C151.58 16.6716 155.03 20.1218 159.286 20.1218Z" fill="#FFB9B9"/>
<path d="M174.527 73.5513L143.359 73.8938C147.985 56.2855 150.752 39.9288 145.928 28.6841L153.634 24.9166C157.35 28.7923 161.488 28.3927 165.964 24.5741L173.328 26.4579C172.067 41.2036 172.632 56.9964 174.527 73.5513Z" fill="#63B0F8"/>
<path d="M134.797 55.399L154.148 63.1052L158.475 64.3777C158.668 64.4346 158.871 64.4518 159.072 64.4283C159.272 64.4048 159.466 64.341 159.641 64.2408C159.816 64.1406 159.969 64.006 160.09 63.8452C160.212 63.6843 160.3 63.5005 160.349 63.3048C160.435 62.9617 160.396 62.5993 160.24 62.2819C160.084 61.9644 159.821 61.7125 159.497 61.5707L155.005 60.194L141.476 52.3165L144.302 44.8672L138.394 41.6991L134.797 55.399Z" fill="#FFB9B9"/>
<path d="M134.968 41.3567C138.65 42.793 141.578 45.2444 143.873 48.5491L151.066 38.103L145.928 28.6843L134.968 41.3567Z" fill="#63B0F8"/>
<path d="M167.971 11.1666C164.843 10.3608 161.768 10.2501 158.779 11.2723C156.875 12.1945 154.588 12.1096 152.045 11.3497V3.66122L165.774 4.02733L167.971 11.1666Z" fill="#2F2E41"/>
<path d="M154.084 46.4203C153.479 46.421 152.899 46.6617 152.471 47.0896C152.043 47.5175 151.802 48.0976 151.802 48.7027L152.703 67.5614C152.703 68.1665 152.944 68.7466 153.372 69.1745C153.8 69.6024 154.38 69.8431 154.985 69.8438H165.285C165.89 69.8431 166.47 69.6024 166.898 69.1745C167.326 68.7466 167.567 68.1665 167.568 67.5614L168.468 48.7027C168.468 48.0976 168.227 47.5175 167.799 47.0896C167.371 46.6617 166.791 46.421 166.186 46.4203H154.084Z" fill="#3F3D56"/>
<path d="M183.309 53.9744L166.442 60.6906L165.169 61.1974C165.129 61.2131 165.088 61.2267 165.045 61.2402L160.782 62.4947C160.237 62.6546 159.482 61.9204 159.041 61.4136C158.822 61.1694 158.698 60.8549 158.692 60.5273C158.685 60.1996 158.796 59.8804 159.005 59.6276C159.064 59.5596 159.129 59.4971 159.198 59.4406C159.363 59.3127 159.556 59.2276 159.762 59.1929L164.021 58.355C164.173 58.3251 164.32 58.2703 164.455 58.1929L166.442 57.0352L176.755 51.0307C177.042 50.864 177.26 50.6009 177.371 50.2882C177.482 49.9756 177.478 49.6337 177.361 49.3235L175.392 44.1321C175.271 43.8144 175.27 43.4637 175.389 43.1454C175.508 42.8271 175.739 42.5629 176.039 42.4023L179.3 40.6546C179.486 40.5545 179.693 40.4981 179.904 40.4895C180.115 40.4809 180.326 40.5204 180.52 40.6049C180.714 40.6895 180.886 40.817 181.023 40.9777C181.161 41.1385 181.26 41.3283 181.313 41.533L184.144 52.3167C184.231 52.6474 184.195 52.9985 184.041 53.3039C183.887 53.6092 183.626 53.8477 183.309 53.9744V53.9744Z" fill="#FFB9B9"/>
<path d="M184.288 39.4728C180.606 40.9091 177.678 43.3605 175.383 46.6652L168.191 36.2191L173.328 26.4579L184.288 39.4728Z" fill="#63B0F8"/>
<path d="M164.414 19.2745C161.043 20.6768 157.508 20.6199 153.829 19.2745C154.899 17.447 153.299 16.0158 152.477 14.171L166.216 13.7627C165.166 15.3653 163.615 17.2588 164.414 19.2745Z" fill="white"/>
<path d="M166.07 14.0676L165.911 13.9083L166.136 13.6831L167.482 12.1128L167.653 12.2592L166.301 13.8358L166.07 14.0676Z" fill="white"/>
<path d="M151.536 13.1131L151.392 13.2862L152.743 14.4123L152.887 14.2392L151.536 13.1131Z" fill="white"/>
<path d="M166.459 15.3917L164.093 19.1076L164.283 19.2285L166.649 15.5127L166.459 15.3917Z" fill="white"/>
<path d="M151.784 15.3914L151.594 15.5124L153.959 19.2286L154.149 19.1076L151.784 15.3914Z" fill="white"/>
<path d="M166.892 56.7165V60.7968L165.471 61.3625C165.426 61.3801 165.381 61.3952 165.333 61.4102L160.574 62.8105C159.965 62.989 159.123 62.1695 158.63 61.6038C158.386 61.3312 158.248 60.9802 158.241 60.6145C158.233 60.2487 158.357 59.8924 158.59 59.6102C158.656 59.5344 158.728 59.4645 158.806 59.4015C158.99 59.2588 159.206 59.1637 159.435 59.125L164.189 58.1897C164.36 58.1563 164.523 58.0951 164.674 58.0087L166.892 56.7165Z" fill="white"/>
<path d="M168.951 42.1626H168.137C168.137 30.6512 165.766 22.6291 163.457 22.6291L163.253 21.8152C165.325 21.8152 166.645 25.154 167.388 27.9549C168.396 31.7521 168.951 36.7978 168.951 42.1626Z" fill="#3F3D56"/>
<path d="M150.231 39.314H149.417C149.417 28.7714 151.803 22.2222 155.318 22.2222L155.114 23.0361C152.683 23.0361 150.231 28.0694 150.231 39.314Z" fill="#3F3D56"/>
<path d="M168.543 44.4009C169.667 44.4009 170.578 43.4899 170.578 42.3661C170.578 41.2423 169.667 40.3314 168.543 40.3314C167.42 40.3314 166.509 41.2423 166.509 42.3661C166.509 43.4899 167.42 44.4009 168.543 44.4009Z" fill="#3F3D56"/>
<path d="M146.975 44.1974H146.161C146.161 41.2803 147.804 38.907 149.824 38.907V39.7209C148.253 39.7209 146.975 41.729 146.975 44.1974Z" fill="#3F3D56"/>
<path d="M153.486 44.1974H152.672C152.672 41.729 151.395 39.7209 149.824 39.7209V38.907C151.843 38.907 153.486 41.2803 153.486 44.1974Z" fill="#3F3D56"/>
<path d="M153.08 45.2147C153.529 45.2147 153.894 44.8503 153.894 44.4008C153.894 43.9513 153.529 43.5869 153.08 43.5869C152.63 43.5869 152.266 43.9513 152.266 44.4008C152.266 44.8503 152.63 45.2147 153.08 45.2147Z" fill="#3F3D56"/>
<path d="M146.568 45.2147C147.018 45.2147 147.382 44.8503 147.382 44.4008C147.382 43.9513 147.018 43.5869 146.568 43.5869C146.119 43.5869 145.754 43.9513 145.754 44.4008C145.754 44.8503 146.119 45.2147 146.568 45.2147Z" fill="#3F3D56"/>
<path d="M48.4847 17.049L34.1906 19.4697C33.8375 19.5299 33.4746 19.457 33.1721 19.2651C32.8696 19.0732 32.6491 18.7759 32.5532 18.4308C31.5204 14.7034 29.3613 9.84094 31.4576 7.4C31.5644 6.3731 32.0631 5.42696 32.85 4.75854C33.6368 4.09011 34.6512 3.7509 35.6818 3.81152C38.2353 -0.185624 42.4886 0.414523 45.3633 2.91092C48.2564 3.90919 49.3472 5.68269 48.9658 8.08941C50.2156 9.18342 50.8709 10.4157 51.009 11.7682C51.0745 12.5209 50.9788 13.2788 50.7281 13.9915C50.4775 14.7043 50.0777 15.3553 49.5555 15.9013L48.4847 17.049Z" fill="#2F2E41"/>
<path d="M46.2618 28.3023L35.1806 27.6505C36.2666 25.1579 36.7004 22.7577 36.267 20.4803H44.5236C44.5048 22.2289 45.375 25.2537 46.2618 28.3023Z" fill="#9F616A"/>
<path d="M32.923 130.696L32.4685 136.909C32.4479 137.19 32.4877 137.473 32.5852 137.737C32.6827 138.002 32.8357 138.243 33.0338 138.443C33.232 138.644 33.4707 138.8 33.7341 138.901C33.9975 139.002 34.2793 139.045 34.5608 139.028L37.7523 138.835C37.9002 138.826 38.0443 138.784 38.1743 138.713C38.3044 138.642 38.4172 138.543 38.5048 138.424C38.5924 138.304 38.6526 138.167 38.6811 138.022C38.7097 137.876 38.7058 137.727 38.6699 137.583L36.8984 130.497L32.923 130.696Z" fill="#E6E6E6"/>
<path d="M43.2554 130.497L41.4838 137.583C41.4479 137.727 41.4441 137.876 41.4726 138.022C41.5011 138.167 41.5613 138.304 41.6489 138.424C41.7365 138.543 41.8493 138.642 41.9794 138.713C42.1095 138.784 42.2535 138.826 42.4014 138.835L45.5929 139.028C45.8744 139.045 46.1563 139.002 46.4196 138.901C46.683 138.8 46.9218 138.644 47.1199 138.443C47.3181 138.243 47.471 138.002 47.5685 137.737C47.666 137.473 47.7058 137.19 47.6853 136.909L47.2308 130.696L43.2554 130.497Z" fill="#E6E6E6"/>
<path d="M47.4366 131.558L43.1298 131.126L38.842 85.293L37.2215 130.978L32.9902 130.827L25.8584 67.5549H53.1055L47.4366 131.558Z" fill="#63B0F8"/>
<path d="M40.6135 23.118C45.1582 23.118 48.8425 19.4338 48.8425 14.889C48.8425 10.3443 45.1582 6.66003 40.6135 6.66003C36.0687 6.66003 32.3845 10.3443 32.3845 14.889C32.3845 19.4338 36.0687 23.118 40.6135 23.118Z" fill="#9F616A"/>
<path d="M49.8882 10.9579C46.5483 10.3762 43.2645 10.2964 40.0725 11.0341C38.0391 11.6998 35.5972 11.6385 32.8816 11.09V5.54071L47.5424 5.80496L49.8882 10.9579Z" fill="#2F2E41"/>
<path d="M46.0898 21.4916C42.4899 22.989 38.7151 22.9282 34.7861 21.4916C35.9294 19.5402 34.2204 18.0118 33.3431 16.0418L48.0139 15.6059C46.892 17.3172 45.2365 19.3391 46.0898 21.4916Z" fill="white"/>
<path d="M32.3326 14.9182L32.1883 15.0913L33.6313 16.2938L33.7755 16.1206L32.3326 14.9182Z" fill="white"/>
<path d="M48.2798 17.3495L45.7539 21.3175L45.9439 21.4385L48.4699 17.4705L48.2798 17.3495Z" fill="white"/>
<path d="M32.5962 17.3492L32.4062 17.4702L34.9315 21.4386L35.1215 21.3176L32.5962 17.3492Z" fill="white"/>
<path d="M24.9686 52.4202L18.6675 48.5092L24.0412 32.7707C24.6405 31.1467 25.7885 29.7831 27.2866 28.9158L29.0969 27.8678L29.2543 43.7449L24.9686 52.4202Z" fill="#63B0F8"/>
<path d="M52.2049 60.064L51.2727 52.0793C51.2229 47.8647 51.9399 43.7899 53.6496 40.0354L54.5187 28.3024L44.9585 24.3914C44.9292 24.5862 44.9043 24.7809 44.8763 24.9757L40.3957 27.216L36.0259 26.2229L36.0501 24.8259L27.359 28.7369C30.2331 42.0991 28.6655 55.9751 23.723 72.3651L35.1727 75.4959L35.2679 69.998L45.4721 69.2692C45.5773 71.0529 45.6617 72.8049 45.7107 74.5181C51.4687 76.638 51.6664 76.6028 56.9126 73.5676C54.8234 69.1751 53.1692 64.6042 52.2049 60.064Z" fill="#63B0F8"/>
<path d="M66.9035 50.4646L61.037 48.5092L51.6533 37.5851L54.5186 28.3024L67.5553 46.5538L66.9035 50.4646Z" fill="#63B0F8"/>
<path d="M48.5175 58.9219C48.6135 59.3431 48.8726 59.7091 49.238 59.9396C49.6034 60.1701 50.0453 60.2462 50.4668 60.1514L55.4467 59.0236L54.727 55.845L49.747 56.9725C49.3255 57.0681 48.9592 57.3271 48.7286 57.6926C48.498 58.0582 48.4221 58.5004 48.5175 58.9219V58.9219Z" fill="#E6E6E6"/>
<path d="M52.9976 55.2449L55.8222 60.4596C60.5731 59.1345 64.6906 54.9571 68.6416 50.0302L67.5552 46.5538L60.8196 48.292L52.9976 55.2449Z" fill="#63B0F8"/>
<path d="M16.1689 38.8877L21.5914 39.8559L33.9858 57.4791L27.4013 55.9298L16.1689 38.8877Z" fill="#E6E6E6"/>
<path d="M15.2071 38.6719C15.1244 38.6731 15.0437 38.6966 14.9732 38.7397C14.9027 38.7829 14.8451 38.8442 14.8064 38.9172C14.7677 38.9902 14.7494 39.0723 14.7533 39.1548C14.7572 39.2374 14.7832 39.3174 14.8286 39.3864L26.4141 56.9644C26.4787 57.0627 26.5786 57.1324 26.6931 57.1593L32.0835 58.4275C32.1743 58.4489 32.2696 58.4422 32.3565 58.4082C32.4435 58.3742 32.5181 58.3146 32.5704 58.2372C32.6227 58.1599 32.6502 58.0685 32.6494 57.9751C32.6485 57.8817 32.6193 57.7908 32.5655 57.7145L19.8454 39.6281C19.8109 39.5788 19.7671 39.5368 19.7163 39.5045C19.6656 39.4722 19.609 39.4502 19.5498 39.4398L15.294 38.6797C15.2653 38.6746 15.2362 38.672 15.2071 38.6719Z" fill="#3F3D56"/>
<path d="M22.4345 51.2399L22.7565 54.4831L27.8375 53.9788C28.2676 53.9361 28.6631 53.7243 28.937 53.39C29.2109 53.0557 29.3409 52.6263 29.2982 52.1962C29.2555 51.7661 29.0437 51.3706 28.7094 51.0967C28.3751 50.8227 27.9457 50.6928 27.5156 50.7355L22.4345 51.2399Z" fill="#E6E6E6"/>
<path d="M18.0157 50.8643C18.0231 51.9702 18.4672 53.0283 19.2514 53.8082C20.0355 54.588 21.0961 55.0263 22.202 55.0276H23.0375L23.6457 49.9588L18.6096 48.1458L18.0157 50.8643Z" fill="#63B0F8"/>
<path d="M47.6121 16.1666L47.4529 16.0073L47.6934 15.7668L49.1306 14.0896L49.3015 14.236L47.8585 15.9195L47.6121 16.1666Z" fill="white"/>
<path d="M200 138.763H0V139.213H200V138.763Z" fill="#3F3D56"/>
<path d="M76.3513 138.537H123.649V81.1689C123.649 78.1311 120.656 75.6598 116.979 75.6598H83.0212C79.3434 75.6598 76.3513 78.1311 76.3513 81.1689V138.537Z" fill="#E6E6E6"/>
<path d="M79.955 136.165H120.045V87.5383C120.045 84.9635 117.509 82.8687 114.392 82.8687H85.6085C82.4911 82.8687 79.955 84.9635 79.955 87.5383V136.165Z" fill="white"/>
<path d="M75.994 71.1951C74.825 71.1951 73.8739 71.9807 73.8739 72.9463V78.0012C73.8739 78.9668 74.825 79.7524 75.994 79.7524H124.006C125.175 79.7524 126.126 78.9668 126.126 78.0012V72.9463C126.126 71.9807 125.175 71.1951 124.006 71.1951H75.994Z" fill="#3F3D56"/>
<path d="M85.8513 129.93C85.3025 129.931 84.7766 130.15 84.3885 130.538C84.0004 130.926 83.7816 131.452 83.78 132.001V132.001C83.7816 132.55 84.0004 133.076 84.3885 133.464C84.7766 133.852 85.3025 134.071 85.8513 134.073H89.7284V129.93H85.8513Z" fill="#3F3D56"/>
<path d="M93.2867 129.93H89.5159V134.073H93.2867C93.8356 134.071 94.3615 133.852 94.7496 133.464C95.1377 133.076 95.3565 132.55 95.3581 132.001V132.001C95.3565 131.452 95.1377 130.926 94.7496 130.538C94.3615 130.15 93.8356 129.931 93.2867 129.93V129.93Z" fill="#63B0F8"/>
<path opacity="0.2" d="M94.6383 130.437C94.965 130.812 95.1452 131.292 95.1456 131.789V131.789C95.144 132.338 94.9253 132.864 94.5372 133.252C94.1491 133.64 93.6231 133.859 93.0743 133.86H89.5159V134.073H93.2867C93.8356 134.071 94.3615 133.852 94.7496 133.464C95.1377 133.076 95.3565 132.55 95.3581 132.001C95.3576 131.704 95.293 131.411 95.1688 131.141C95.0446 130.871 94.8637 130.631 94.6383 130.437V130.437Z" fill="black"/>
<path d="M103.347 98.7302C102.97 98.3319 102.45 98.0993 101.901 98.0831C101.353 98.0669 100.82 98.2685 100.419 98.6438V98.6438C100.021 99.0214 99.7885 99.5413 99.7723 100.09C99.7561 100.639 99.9577 101.171 100.333 101.572L102.992 104.393L106.007 101.551L103.347 98.7302Z" fill="#3F3D56"/>
<path d="M108.448 104.141L105.861 101.397L102.847 104.239L105.433 106.982C105.811 107.381 106.331 107.613 106.879 107.63C107.428 107.646 107.961 107.444 108.361 107.069V107.069C108.759 106.691 108.992 106.171 109.008 105.623C109.024 105.074 108.823 104.541 108.448 104.141V104.141Z" fill="#63B0F8"/>
<path opacity="0.2" d="M109.006 105.472C108.957 105.967 108.731 106.427 108.37 106.769V106.769C107.97 107.144 107.437 107.345 106.888 107.329C106.34 107.313 105.82 107.08 105.442 106.682L103.001 104.093L102.847 104.238L105.433 106.982C105.811 107.381 106.331 107.613 106.879 107.63C107.428 107.646 107.961 107.444 108.361 107.069C108.577 106.865 108.746 106.616 108.858 106.341C108.969 106.065 109.019 105.769 109.006 105.472V105.472Z" fill="black"/>
<path d="M92.3114 105.262C91.9337 104.863 91.4138 104.631 90.8652 104.615C90.3166 104.598 89.7839 104.8 89.3834 105.175V105.175C88.9851 105.553 88.7525 106.073 88.7363 106.622C88.7201 107.17 88.9216 107.703 89.2969 108.103L91.9564 110.925L94.9708 108.083L92.3114 105.262Z" fill="#3F3D56"/>
<path d="M97.4116 110.672L94.8251 107.928L91.8106 110.77L94.3972 113.514C94.7748 113.912 95.2947 114.145 95.8433 114.161C96.392 114.177 96.9247 113.976 97.3252 113.6V113.6C97.7235 113.223 97.9561 112.703 97.9723 112.154C97.9885 111.606 97.7869 111.073 97.4116 110.672V110.672Z" fill="#63B0F8"/>
<path opacity="0.2" d="M97.9696 112.004C97.9211 112.498 97.6954 112.959 97.334 113.3V113.3C96.9336 113.675 96.4008 113.877 95.8522 113.861C95.3036 113.845 94.7837 113.612 94.406 113.214L91.9652 110.624L91.8106 110.77L94.3972 113.514C94.7748 113.912 95.2947 114.145 95.8433 114.161C96.392 114.177 96.9247 113.976 97.3252 113.6V113.6C97.541 113.396 97.7103 113.148 97.8215 112.872C97.9328 112.597 97.9833 112.301 97.9696 112.004Z" fill="black"/>
<path d="M103.347 111.343C102.97 110.945 102.45 110.712 101.901 110.696C101.353 110.68 100.82 110.881 100.419 111.256V111.256C100.021 111.634 99.7885 112.154 99.7723 112.703C99.7561 113.251 99.9577 113.784 100.333 114.184L102.992 117.006L106.007 114.164L103.347 111.343Z" fill="#3F3D56"/>
<path d="M108.448 116.754L105.861 114.01L102.847 116.851L105.433 119.595C105.811 119.993 106.331 120.226 106.879 120.242C107.428 120.258 107.961 120.057 108.361 119.682V119.682C108.759 119.304 108.992 118.784 109.008 118.235C109.024 117.687 108.823 117.154 108.448 116.754V116.754Z" fill="#63B0F8"/>
<path opacity="0.2" d="M109.006 118.085C108.957 118.58 108.731 119.04 108.37 119.381C107.97 119.756 107.437 119.958 106.888 119.942C106.34 119.926 105.82 119.693 105.442 119.295L103.001 116.705L102.847 116.851L105.433 119.595C105.811 119.993 106.331 120.226 106.879 120.242C107.428 120.258 107.961 120.057 108.361 119.681V119.681C108.577 119.477 108.746 119.229 108.858 118.953C108.969 118.678 109.019 118.382 109.006 118.085V118.085Z" fill="black"/>
<path d="M110.08 124.286C110.474 123.904 110.7 123.381 110.709 122.832C110.719 122.283 110.511 121.753 110.131 121.357V121.357C109.748 120.963 109.226 120.737 108.677 120.728C108.128 120.718 107.598 120.926 107.202 121.306L104.413 124L107.291 126.979L110.08 124.286Z" fill="#3F3D56"/>
<path d="M104.731 129.452L107.444 126.832L104.566 123.852L101.853 126.472C101.46 126.854 101.233 127.377 101.224 127.926C101.214 128.475 101.422 129.005 101.803 129.401V129.401C102.185 129.794 102.708 130.021 103.256 130.03C103.805 130.04 104.335 129.832 104.731 129.452V129.452Z" fill="#63B0F8"/>
<path opacity="0.2" d="M103.407 130.026C102.912 129.983 102.449 129.763 102.103 129.406V129.406C101.723 129.01 101.515 128.48 101.524 127.931C101.534 127.382 101.76 126.86 102.154 126.477L104.713 124.005L104.566 123.852L101.853 126.472C101.46 126.854 101.233 127.377 101.224 127.926C101.214 128.475 101.422 129.005 101.803 129.401V129.401C102.009 129.614 102.26 129.78 102.536 129.888C102.813 129.996 103.11 130.043 103.407 130.026Z" fill="black"/>
<path d="M95.215 117.754C95.6087 117.372 95.835 116.849 95.8445 116.301C95.854 115.752 95.646 115.221 95.2659 114.826C94.8834 114.432 94.3607 114.206 93.8119 114.196C93.2631 114.187 92.7329 114.395 92.337 114.775L89.5483 117.468L92.4263 120.448L95.215 117.754Z" fill="#3F3D56"/>
<path d="M89.8665 122.92L92.5788 120.3L89.7008 117.321L86.9885 119.94C86.5948 120.323 86.3685 120.845 86.359 121.394C86.3495 121.943 86.5575 122.473 86.9376 122.869V122.869C87.3201 123.263 87.8428 123.489 88.3916 123.499C88.9403 123.508 89.4706 123.3 89.8665 122.92V122.92Z" fill="#63B0F8"/>
<path opacity="0.2" d="M88.5419 123.494C88.0467 123.452 87.5836 123.232 87.238 122.874C86.8579 122.478 86.6498 121.948 86.6594 121.399C86.6689 120.851 86.8952 120.328 87.2889 119.946L89.8484 117.473L89.7008 117.321L86.9885 119.94C86.5948 120.323 86.3685 120.845 86.359 121.394C86.3495 121.943 86.5575 122.473 86.9376 122.869V122.869C87.1444 123.083 87.3947 123.249 87.6716 123.357C87.9484 123.465 88.2453 123.511 88.5419 123.494V123.494Z" fill="black"/>
<path d="M116.386 109.872C116.78 109.489 117.006 108.966 117.016 108.418C117.025 107.869 116.817 107.339 116.437 106.943V106.943C116.054 106.549 115.532 106.323 114.983 106.313C114.434 106.304 113.904 106.512 113.508 106.892L110.719 109.585L113.597 112.565L116.386 109.872Z" fill="#3F3D56"/>
<path d="M111.038 115.037L113.75 112.417L110.872 109.438L108.16 112.057C107.766 112.44 107.54 112.963 107.53 113.511C107.521 114.06 107.729 114.59 108.109 114.986V114.986C108.491 115.38 109.014 115.606 109.563 115.616C110.111 115.625 110.642 115.417 111.038 115.037Z" fill="#63B0F8"/>
<path opacity="0.2" d="M109.713 115.611C109.218 115.569 108.755 115.349 108.409 114.991V114.991C108.029 114.596 107.821 114.065 107.831 113.517C107.84 112.968 108.066 112.445 108.46 112.063L111.02 109.591L110.872 109.438L108.16 112.057C107.766 112.44 107.54 112.963 107.53 113.511C107.521 114.06 107.729 114.59 108.109 114.986V114.986C108.316 115.2 108.566 115.366 108.843 115.474C109.12 115.582 109.416 115.628 109.713 115.611Z" fill="black"/>
<path d="M111.681 126.208C111.303 125.809 110.783 125.577 110.235 125.561C109.686 125.544 109.153 125.746 108.753 126.121V126.121C108.354 126.499 108.122 127.019 108.106 127.567C108.089 128.116 108.291 128.649 108.666 129.049L111.326 131.871L114.34 129.029L111.681 126.208Z" fill="#3F3D56"/>
<path d="M116.781 131.618L114.194 128.874L111.18 131.716L113.767 134.46C114.144 134.858 114.664 135.091 115.213 135.107C115.761 135.123 116.294 134.922 116.695 134.546V134.546C117.093 134.169 117.325 133.649 117.342 133.1C117.358 132.552 117.156 132.019 116.781 131.618Z" fill="#63B0F8"/>
<path opacity="0.2" d="M117.339 132.95C117.29 133.444 117.065 133.905 116.703 134.246V134.246C116.303 134.621 115.77 134.823 115.222 134.807C114.673 134.791 114.153 134.558 113.775 134.16L111.335 131.57L111.18 131.716L113.767 134.46C114.144 134.858 114.664 135.091 115.213 135.107C115.761 135.123 116.294 134.922 116.695 134.546V134.546C116.91 134.342 117.08 134.094 117.191 133.818C117.302 133.543 117.353 133.247 117.339 132.95V132.95Z" fill="black"/>
<path d="M97.0411 125.983C96.6635 125.584 96.1436 125.352 95.595 125.335C95.0463 125.319 94.5136 125.521 94.1131 125.896V125.896C93.7148 126.274 93.4822 126.794 93.466 127.342C93.4498 127.891 93.6514 128.424 94.0267 128.824L96.6861 131.645L99.7006 128.804L97.0411 125.983Z" fill="#3F3D56"/>
<path d="M102.141 131.393L99.5548 128.649L96.5403 131.491L99.1269 134.235C99.5046 134.633 100.024 134.866 100.573 134.882C101.122 134.898 101.654 134.697 102.055 134.321V134.321C102.453 133.944 102.686 133.424 102.702 132.875C102.718 132.326 102.517 131.794 102.141 131.393V131.393Z" fill="#63B0F8"/>
<path opacity="0.2" d="M102.699 132.725C102.651 133.219 102.425 133.68 102.064 134.021V134.021C101.663 134.396 101.131 134.598 100.582 134.581C100.033 134.565 99.5134 134.333 99.1358 133.934L96.6949 131.345L96.5403 131.491L99.1269 134.235C99.5046 134.633 100.024 134.866 100.573 134.882C101.122 134.898 101.654 134.696 102.055 134.321V134.321C102.271 134.117 102.44 133.869 102.551 133.593C102.663 133.318 102.713 133.021 102.699 132.725Z" fill="black"/>
<path d="M101.161 118.552C101.162 119.24 100.924 119.908 100.488 120.441C100.053 120.975 99.4465 121.341 98.7717 121.479C98.3774 121.559 97.9712 121.559 97.5769 121.479C96.9022 121.341 96.2959 120.975 95.8604 120.441C95.4249 119.908 95.1871 119.24 95.1871 118.552C95.1871 117.863 95.4249 117.196 95.8604 116.662C96.2959 116.129 96.9022 115.762 97.5769 115.624C97.9712 115.545 98.3774 115.545 98.7717 115.624C99.4465 115.762 100.053 116.129 100.488 116.662C100.924 117.195 101.162 117.863 101.161 118.552V118.552Z" fill="#63B0F8"/>
<path opacity="0.2" d="M98.7719 115.624V121.479C98.3776 121.559 97.9713 121.559 97.577 121.479V115.624C97.9713 115.545 98.3776 115.545 98.7719 115.624Z" fill="black"/>
<path d="M102.513 106.615C102.513 107.303 102.275 107.971 101.84 108.504C101.404 109.038 100.798 109.404 100.123 109.542C99.7288 109.622 99.3225 109.622 98.9282 109.542C98.2535 109.404 97.6472 109.038 97.2117 108.504C96.7763 107.971 96.5385 107.303 96.5385 106.615C96.5385 105.926 96.7763 105.259 97.2117 104.725C97.6472 104.192 98.2535 103.825 98.9282 103.687C99.3225 103.608 99.7288 103.608 100.123 103.687C100.798 103.825 101.404 104.192 101.84 104.725C102.275 105.259 102.513 105.926 102.513 106.615V106.615Z" fill="#63B0F8"/>
<path opacity="0.2" d="M100.123 103.687V109.542C99.7289 109.622 99.3226 109.622 98.9283 109.542V103.687C99.3226 103.608 99.7289 103.608 100.123 103.687Z" fill="black"/>
<path d="M102.513 123.732C102.513 124.42 102.275 125.088 101.84 125.622C101.404 126.155 100.798 126.522 100.123 126.659C99.7288 126.739 99.3225 126.739 98.9282 126.659C98.2535 126.521 97.6472 126.155 97.2117 125.621C96.7763 125.088 96.5385 124.42 96.5385 123.732C96.5385 123.043 96.7763 122.376 97.2117 121.842C97.6472 121.309 98.2535 120.942 98.9282 120.804C99.3225 120.725 99.7288 120.725 100.123 120.804C100.798 120.942 101.404 121.309 101.84 121.842C102.275 122.376 102.513 123.043 102.513 123.732V123.732Z" fill="#63B0F8"/>
<path opacity="0.2" d="M100.123 120.804V126.659C99.7289 126.739 99.3226 126.739 98.9283 126.659V120.804C99.3226 120.725 99.7289 120.725 100.123 120.804Z" fill="black"/>
<path d="M109.945 132.065C109.945 132.754 109.708 133.421 109.272 133.955C108.837 134.488 108.23 134.855 107.556 134.993C107.161 135.072 106.755 135.072 106.361 134.993C105.686 134.855 105.08 134.488 104.644 133.955C104.209 133.421 103.971 132.754 103.971 132.065C103.971 131.377 104.209 130.709 104.644 130.176C105.08 129.642 105.686 129.276 106.361 129.138C106.755 129.058 107.161 129.058 107.556 129.138C108.23 129.275 108.837 129.642 109.272 130.176C109.708 130.709 109.945 131.377 109.945 132.065V132.065Z" fill="#63B0F8"/>
<path opacity="0.2" d="M107.556 129.138V134.993C107.161 135.072 106.755 135.072 106.361 134.993V129.138C106.755 129.058 107.161 129.058 107.556 129.138Z" fill="black"/>
<path d="M116.511 116.733C117.007 117.211 117.323 117.845 117.405 118.529C117.487 119.213 117.33 119.904 116.961 120.485C116.744 120.824 116.462 121.117 116.131 121.345C115.564 121.735 114.879 121.917 114.193 121.861C113.507 121.804 112.861 121.512 112.365 121.034C111.869 120.556 111.554 119.922 111.472 119.238C111.39 118.555 111.547 117.864 111.916 117.282C112.132 116.943 112.414 116.65 112.745 116.422C113.312 116.032 113.997 115.849 114.684 115.906C115.37 115.963 116.016 116.255 116.511 116.733V116.733Z" fill="#63B0F8"/>
<path opacity="0.2" d="M112.745 116.422L116.96 120.485C116.744 120.824 116.462 121.117 116.131 121.345L111.915 117.282C112.132 116.943 112.414 116.65 112.745 116.422V116.422Z" fill="black"/>
<path d="M117.412 123.264C117.908 123.742 118.224 124.377 118.306 125.06C118.387 125.744 118.231 126.435 117.862 127.016C117.645 127.356 117.363 127.648 117.032 127.877C116.465 128.267 115.78 128.449 115.094 128.392C114.408 128.336 113.762 128.044 113.266 127.566C112.77 127.088 112.455 126.453 112.373 125.77C112.291 125.086 112.448 124.395 112.817 123.814C113.033 123.474 113.315 123.182 113.646 122.953C114.213 122.563 114.898 122.381 115.585 122.438C116.271 122.494 116.916 122.786 117.412 123.264V123.264Z" fill="#63B0F8"/>
<path opacity="0.2" d="M113.646 122.953L117.861 127.016C117.645 127.356 117.363 127.648 117.032 127.877L112.816 123.814C113.033 123.474 113.315 123.182 113.646 122.953V122.953Z" fill="black"/>
<path d="M90.6104 124.841C91.1063 125.319 91.4219 125.953 91.5038 126.637C91.5857 127.321 91.4288 128.012 91.0597 128.593C90.8435 128.932 90.5615 129.225 90.2305 129.453C89.6631 129.843 88.9783 130.026 88.292 129.969C87.6057 129.912 86.9601 129.62 86.4643 129.142C85.9685 128.665 85.653 128.03 85.5711 127.346C85.4893 126.663 85.646 125.972 86.015 125.39C86.2313 125.051 86.5132 124.758 86.8442 124.53C87.4116 124.14 88.0964 123.957 88.7827 124.014C89.469 124.071 90.1147 124.363 90.6104 124.841V124.841Z" fill="#63B0F8"/>
<path opacity="0.2" d="M86.8438 124.53L91.0593 128.593C90.843 128.932 90.5611 129.225 90.2301 129.453L86.0146 125.39C86.2309 125.051 86.5128 124.758 86.8438 124.53V124.53Z" fill="black"/>
<path opacity="0.2" d="M80.9685 71.1951H79.8423V79.5284H80.9685V71.1951Z" fill="black"/>
<path opacity="0.2" d="M87.5 71.1951H86.3739V79.5284H87.5V71.1951Z" fill="black"/>
<path opacity="0.2" d="M94.0315 71.1951H92.9054V79.5284H94.0315V71.1951Z" fill="black"/>
<path opacity="0.2" d="M100.563 71.1951H99.437V79.5284H100.563V71.1951Z" fill="black"/>
<path opacity="0.2" d="M107.095 71.1951H105.969V79.5284H107.095V71.1951Z" fill="black"/>
<path opacity="0.2" d="M113.626 71.1951H112.5V79.5284H113.626V71.1951Z" fill="black"/>
<path opacity="0.2" d="M120.158 71.1951H119.032V79.5284H120.158V71.1951Z" fill="black"/>
</svg>
