<svg width="100" height="81" viewBox="0 0 100 81" fill="none" xmlns="http://www.w3.org/2000/svg">
<path d="M53.1783 43.513C45.6743 43.6752 43.7646 42.8707 43.7476 42.4482L31.0213 52.1831L31.7312 80.4243H53.1276L52.6205 60.5997L53.6853 61.8672C55.1557 63.3037 58.0863 66.9273 58.0457 69.9289C58.0051 72.9305 65.0595 72.7682 68.5918 72.3119L59.7189 48.7353C57.204 44.5574 54.3106 43.513 53.1783 43.513Z" fill="#FDFDFE"/>
<path d="M20.2217 7.41288C18.5181 10.0494 17.9571 14.1563 17.8894 15.8802L18.4471 20.2913L44.9645 23.8405L50.0347 16.1337C50.1564 11.753 48.4967 9.10295 47.6517 8.32551C47.8139 8.04158 47.9897 7.02415 48.0573 6.55093C47.6923 6.91598 47.1954 6.77064 46.9926 6.65233C48.3717 4.98929 48.4122 2.41024 48.2601 1.32858C47.5706 2.22095 45.5391 2.78205 44.6096 2.95106L45.0659 1.68351C40.1478 2.39334 39.5393 -0.445991 28.689 0.0610328C20.0088 0.466651 19.4274 5.13127 20.2217 7.41288Z" fill="#412413"/>
<path d="M98.7775 29.5498L61.645 21.9629L52.0208 69.0664L89.1534 76.6533L98.7775 29.5498Z" fill="#00616D"/>
<path d="M96.3408 31.603L63.0302 24.797L54.3829 67.1197L87.6935 73.9257L96.3408 31.603Z" fill="white"/>
<path fill-rule="evenodd" clip-rule="evenodd" d="M86.3243 40.9699L65.7051 36.7571L65.1924 39.2666L85.8116 43.4795L86.3243 40.9699ZM85.3634 45.647L67.383 41.9733L66.8702 44.4829L84.8506 48.1566L85.3634 45.647ZM68.1358 47.0006L84.4024 50.3241L83.8897 52.8337L67.623 49.5101L68.1358 47.0006ZM83.4414 55.0012L62.3288 50.6876L61.8161 53.1971L82.9287 57.5109L83.4414 55.0012ZM61.3978 55.5294L82.487 59.8383L81.9743 62.348L60.885 58.039L61.3978 55.5294ZM91.297 41.949L88.7771 41.4342L88.2643 43.9437L90.7842 44.4586L91.297 41.949ZM87.8161 46.1113L90.336 46.6261L89.8233 49.1357L87.3033 48.6208L87.8161 46.1113ZM89.3751 51.3032L86.8551 50.7883L86.3424 53.2979L88.8623 53.8127L89.3751 51.3032ZM85.8941 55.4654L88.4141 55.9803L87.9012 58.4899L85.3813 57.975L85.8941 55.4654ZM87.5544 60.7588L85.0345 60.2439L84.5218 62.7535L87.0417 63.2684L87.5544 60.7588Z" fill="#00606D"/>
<path d="M78.9858 38.6962C81.0859 38.6962 82.7884 36.9937 82.7884 34.8936C82.7884 32.7934 81.0859 31.0909 78.9858 31.0909C76.8856 31.0909 75.1831 32.7934 75.1831 34.8936C75.1831 36.9937 76.8856 38.6962 78.9858 38.6962Z" fill="#DB4137"/>
<path d="M80.6589 27.4403C82.8991 27.4403 84.7151 25.6243 84.7151 23.3841C84.7151 21.144 82.8991 19.3279 80.6589 19.3279C78.4187 19.3279 76.6027 21.144 76.6027 23.3841C76.6027 25.6243 78.4187 27.4403 80.6589 27.4403Z" fill="#254957"/>
<path d="M73.8141 23.3334L86.8953 25.97V30.0261L71.9888 27.2375L73.8141 23.3334Z" fill="#285157"/>
<path fill-rule="evenodd" clip-rule="evenodd" d="M74.1129 22.7018C73.7286 22.6295 73.3584 22.8824 73.286 23.2667C73.2137 23.651 73.4666 24.0213 73.8509 24.0936L86.6067 26.4944C86.991 26.5667 87.3612 26.3138 87.4335 25.9295C87.506 25.5452 87.2529 25.1749 86.8686 25.1026L74.1129 22.7018ZM72.8509 26.3969C72.3354 26.2905 71.8313 26.6223 71.725 27.1377C71.6187 27.6533 71.9505 28.1574 72.4659 28.2637L86.295 31.1155C86.8104 31.2218 87.3146 30.8901 87.4209 30.3746C87.5271 29.8591 87.1955 29.3551 86.6799 29.2487L72.8509 26.3969Z" fill="#254957"/>
<path d="M80.8617 23.8912C81.7578 23.8912 82.4842 23.1648 82.4842 22.2687C82.4842 21.3726 81.7578 20.6462 80.8617 20.6462C79.9657 20.6462 79.2393 21.3726 79.2393 22.2687C79.2393 23.1648 79.9657 23.8912 80.8617 23.8912Z" fill="#676487"/>
<path fill-rule="evenodd" clip-rule="evenodd" d="M79.9082 34.287L80.2215 32.5663L78.757 32.2996L78.4443 34.017L76.7155 33.6983L76.4482 35.1485L78.18 35.4677L77.8643 37.2015L79.3288 37.4682L79.6439 35.7375L81.3481 36.0517L81.6154 34.6016L79.9082 34.287Z" fill="white"/>
<path d="M26.3567 49.0902H31.0213L33.7592 46.3016L39.8942 52.3859L37.9168 61.9179L29.6524 62.4756L26.3567 49.0902Z" fill="#DADCE2"/>
<path fill-rule="evenodd" clip-rule="evenodd" d="M33.81 46.2509L43.2406 40.9271L39.8158 52.3859L33.81 46.2509ZM33.81 46.3016L24.1765 40.9778L27.675 52.4366L33.81 46.3016Z" fill="#C7D2CC"/>
<path fill-rule="evenodd" clip-rule="evenodd" d="M23.923 52.8929L20.9823 52.1831L23.2639 42.2454L24.3286 41.3835L26.7623 49.3944L29.6524 62.4756L24.8356 62.8813L21.6921 56.0364L23.923 52.8929ZM37.7647 62.0193L39.083 62.1714L39.4379 63.1348L43.0885 62.1714L45.6743 56.5435L44.0011 53.7041L46.4855 52.0817L44.3053 42.0933L42.8857 41.9412L39.8435 52.4873L37.7647 62.0193Z" fill="#EDEDEC"/>
<path d="M14.1881 75.7597L14.3402 73.833L33.2015 70.2838L39.6407 74.3907L33.6071 80.4243L14.1881 75.7597Z" fill="#EDEDEC"/>
<path d="M20.1203 43.513C21.0127 43.513 21.8103 43.2425 22.0977 43.1073H22.9089L20.5259 52.0817L23.7202 52.8929L21.9456 56.8984L24.8356 62.8813L37.6633 61.9179L38.2718 73.5288C29.534 74.2554 10.7809 75.5873 5.67011 75.1005C0.559309 74.6138 -0.211367 70.2669 0.0421444 68.1543C2.17164 62.7799 6.80584 51.1589 8.30663 47.6706C9.80742 44.1822 12.4473 43.4453 13.5797 43.513H20.1203Z" fill="#FDFDFE"/>
<path d="M30.7171 74.7963L14.1881 75.709V80.4243H33.5564L30.7171 74.7963Z" fill="#FDFDFE"/>
<path d="M39.7928 62.932L40.1985 60.3969H41.0097L40.7562 62.3235L39.7928 62.932Z" fill="#BDBBB8"/>
<path d="M48.4122 72.7175C48.2094 73.042 47.6517 73.2245 47.3982 73.2752V73.9851C48.4122 74.0256 49.1051 73.1569 49.3249 72.7175C49.1051 72.5822 48.615 72.393 48.4122 72.7175Z" fill="#BDBBB8"/>
<path fill-rule="evenodd" clip-rule="evenodd" d="M20.2217 53.5013C19.5288 49.631 20.0088 41.3632 27.4722 39.254H40.2492C43.3251 40.1159 49.1119 43.9186 47.6517 52.2338C49.2235 52.538 52.2048 54.8196 51.5558 61.5123H50.3389C50.6769 58.9265 50.4505 53.6737 46.8405 53.3492C45.5222 53.045 42.5409 54.0692 41.1618 60.5997L39.9956 60.4475C40.4013 57.6927 42.2671 52.1628 46.4855 52.0817C47.0602 48.7184 46.6174 41.8094 40.2492 41.0793C33.8809 40.3491 27.8947 40.9102 25.6976 41.2821C23.754 42.1778 20.1507 45.8453 21.2865 53.3492L20.2217 53.5013ZM21.3372 60.194C23.2414 60.194 24.7849 58.6731 24.7849 56.797C24.7849 54.9208 23.2414 53.3999 21.3372 53.3999C19.433 53.3999 17.8894 54.9208 17.8894 56.797C17.8894 58.6731 19.433 60.194 21.3372 60.194ZM47.4844 73.5056C47.576 74.0326 47.0265 74.5683 46.257 74.7021C45.4875 74.8359 44.7894 74.5171 44.6978 73.9901C44.6062 73.4631 45.1557 72.9275 45.9252 72.7938C46.6947 72.6599 47.3928 72.9786 47.4844 73.5056ZM40.7626 73.7452C41.4101 74.1818 42.1775 74.1762 42.4765 73.7328C42.7756 73.2892 42.493 72.5758 41.8455 72.1391C41.1979 71.7025 40.4305 71.708 40.1314 72.1516C39.8324 72.595 40.115 73.3085 40.7626 73.7452Z" fill="#050000"/>
<path fill-rule="evenodd" clip-rule="evenodd" d="M33.6578 39.0005V13.5986C35.331 13.8014 39.7016 13.5479 43.7983 10.9114L45.2687 18.0097L46.5941 21.208C46.6028 20.6329 46.6914 19.9948 46.8677 19.3385C47.4311 17.2416 48.6769 15.7538 49.6503 16.0154C50.6236 16.2769 50.9559 18.1888 50.3925 20.2856C49.8291 22.3825 48.5833 23.8703 47.6099 23.6087C47.602 23.6066 47.5941 23.6043 47.5862 23.602L47.601 23.6376C44.3966 35.8873 36.9704 38.9835 33.6578 39.0005ZM90.0107 48.5203C90.1442 47.4285 91.1377 46.6516 92.2296 46.7852L97.625 47.4454C98.7168 47.579 99.4936 48.5725 99.36 49.6643C99.2264 50.7562 98.233 51.533 97.1411 51.3994L91.7458 50.7393C90.6539 50.6056 89.877 49.6123 90.0107 48.5203ZM90.6357 52.7404C90.7693 51.6486 91.7627 50.8717 92.8547 51.0054L98.25 51.6655C99.3418 51.799 100.119 52.7925 99.985 53.8844C99.8515 54.9763 98.858 55.7531 97.7662 55.6195L92.3709 54.9593C91.2789 54.8258 90.5021 53.8323 90.6357 52.7404ZM92.0038 54.9468C90.919 54.7645 89.8918 55.4962 89.7096 56.581C89.5274 57.6658 90.2591 58.6929 91.3439 58.8752L96.7044 59.7755C97.7892 59.9578 98.8163 59.2261 98.9986 58.1413C99.1808 57.0565 98.4491 56.0294 97.3642 55.8471L92.0038 54.9468ZM88.3913 60.5358C88.5736 59.4509 89.6007 58.7193 90.6855 58.9015L96.046 59.8019C97.1308 59.9841 97.8625 61.0113 97.6803 62.0961C97.4981 63.1809 96.471 63.9125 95.3861 63.7303L90.0257 62.83C88.9408 62.6477 88.2091 61.6206 88.3913 60.5358Z" fill="#E6C19B"/>
<path fill-rule="evenodd" clip-rule="evenodd" d="M33.6578 39.0512V13.5986C29.3583 13.3146 26.0525 11.6042 24.937 10.7085C24.5314 14.6836 22.1314 18.4491 20.9822 19.835L20.9437 19.9474C20.9017 19.7232 20.8492 19.4952 20.7859 19.2651C20.1892 17.0956 18.8608 15.5693 17.8189 15.8558C16.777 16.1424 16.416 18.1334 17.0126 20.3028C17.5531 22.2682 18.6941 23.7057 19.6788 23.7457C22.851 36.0286 30.3166 39.068 33.6578 39.0512ZM27.827 36.9724V38.8483C27.2524 39.6089 25.9308 41.2314 25.2412 41.637L33.8099 46.3016L42.48 41.637L41.466 40.7243C38.745 41.1468 32.2077 40.988 27.827 36.9724Z" fill="#F5D0A9"/>
<path d="M39.7421 63.0334C39.5393 63.1145 39.421 63.1348 39.3872 63.1348L39.7928 72.2105C40.6041 72.1294 41.8209 72.6161 42.3279 72.8696L48.2094 72.6161C50.6431 72.2105 50.8966 73.0724 51.6065 71.7035C52.1743 70.6083 51.2009 69.9964 50.6431 69.8275C52.1439 69.868 52.6543 69.4049 52.7219 69.1683C53.2492 67.8704 52.367 67.1403 51.86 66.9374L53.0768 66.836V66.3797C54.8616 65.5685 54.1247 64.3516 53.5332 63.8446V63.5404L58.6034 63.3883C60.1752 62.8813 59.4653 61.0053 58.6034 60.6503C57.7415 60.2954 45.6743 62.932 48.5136 61.0053C51.353 59.0786 51.4544 58.673 50.998 57.9124C50.633 57.304 50.0685 57.3885 49.8319 57.5068C47.0095 58.994 41.2632 62.0092 40.8576 62.1714C40.3506 62.3742 39.9956 62.932 39.7421 63.0334Z" fill="#E7C19C"/>
<path d="M21.3372 59.7884C22.9613 59.7884 24.2779 58.4718 24.2779 56.8477C24.2779 55.2236 22.9613 53.907 21.3372 53.907C19.7131 53.907 18.3964 55.2236 18.3964 56.8477C18.3964 58.4718 19.7131 59.7884 21.3372 59.7884Z" fill="#EDEEED"/>
<path d="M21.3372 59.0786C22.6253 59.0786 23.6695 58.0571 23.6695 56.797C23.6695 55.5369 22.6253 54.5154 21.3372 54.5154C20.0491 54.5154 19.0049 55.5369 19.0049 56.797C19.0049 58.0571 20.0491 59.0786 21.3372 59.0786Z" fill="#BCBBB8"/>
<path d="M41.5167 40.775C33.6071 41.5052 29.0609 38.5103 27.7764 36.9217C32.6438 40.2477 37.7647 38.1554 39.3365 36.9217C39.3771 38.3819 40.5534 40.2511 41.5167 40.775Z" fill="#DBB795"/>
<path fill-rule="evenodd" clip-rule="evenodd" d="M33.8607 46.3016L31.0213 49.0902L31.8326 50.2057L30.5143 62.4249L36.7 61.9179L35.4324 50.2057L36.4465 48.9381L33.8607 46.3016ZM32.1368 73.9851L35.1282 73.833L33.6071 80.4243L32.1368 73.9851Z" fill="#3C577A"/>
<path d="M39.3872 63.2362C39.3061 61.9382 38.1704 62.0193 37.6126 62.2221L38.3225 72.7682C39.2959 72.9305 39.7084 72.3626 39.7928 72.0584C39.6914 69.6584 39.4683 64.5342 39.3872 63.2362Z" fill="white"/>
<path d="M14.4924 61.2081L13.3769 63.6925H14.4924V61.2081Z" fill="#8B89A6"/>
</svg>
