<svg width="100" height="69" viewBox="0 0 100 69" fill="none" xmlns="http://www.w3.org/2000/svg">
<path fill-rule="evenodd" clip-rule="evenodd" d="M30.9257 3.56053C30.9257 1.5941 32.5198 0 34.4863 0H65.412C67.3784 0 68.9725 1.5941 68.9725 3.56053V60.8342H71.3123V15.3611H90.9461C92.9125 15.3611 94.5066 16.9552 94.5066 18.9217V60.8342H100V68.2604H0V60.8342H5.79858V18.9217C5.79858 16.9552 7.39268 15.3611 9.35911 15.3611H28.4842V60.8342H30.9257V3.56053Z" fill="#2176AB"/>
<path fill-rule="evenodd" clip-rule="evenodd" d="M49.9491 26.6531C56.8597 26.6531 62.4618 21.051 62.4618 14.1404C62.4618 7.22981 56.8597 1.62767 49.9491 1.62767C43.0386 1.62767 37.4364 7.22981 37.4364 14.1404C37.4364 21.051 43.0386 26.6531 49.9491 26.6531ZM16.4802 24.1099H11.292V29.1963H16.4802V24.1099ZM11.292 32.6551H16.4802V37.7416H11.292V32.6551ZM16.4802 41.5056H11.292V46.5921H16.4802V41.5056ZM19.2269 24.1099H24.4151V29.1963H19.2269V24.1099ZM24.4151 32.6551H19.2269V37.7416H24.4151V32.6551ZM19.2269 41.5056H24.4151V46.5921H19.2269V41.5056ZM82.0956 24.1099H76.9074V29.1963H82.0956V24.1099ZM76.9074 32.6551H82.0956V37.7416H76.9074V32.6551ZM82.0956 41.5056H76.9074V46.5921H82.0956V41.5056ZM84.8423 24.1099H90.0305V29.1963H84.8423V24.1099ZM90.0305 32.6551H84.8423V37.7416H90.0305V32.6551ZM84.8423 41.5056H90.0305V46.5921H84.8423V41.5056ZM57.7823 42.2177H43.0315V60.8342H57.7823V42.2177Z" fill="white"/>
<path fill-rule="evenodd" clip-rule="evenodd" d="M46.7955 17.0905V21.7701H53.1027V17.0905H57.7823V10.7833H53.1027V6.10376H46.7955V10.7833H42.116V17.0905H46.7955Z" fill="#2176AB"/>
</svg>
