<svg width="100" height="101" viewBox="0 0 100 101" fill="none" xmlns="http://www.w3.org/2000/svg">
<path d="M50 100.269C77.6142 100.269 100 77.8229 100 50.1344C100 22.4459 77.6142 0 50 0C22.3858 0 0 22.4459 0 50.1344C0 77.8229 22.3858 100.269 50 100.269Z" fill="#322864"/>
<path fill-rule="evenodd" clip-rule="evenodd" d="M46.0349 6.41772C42.137 6.20267 38.452 7.40336 37.0967 8.03064L37.3655 9.17311C37.3655 8.83709 41.5994 7.76182 41.8682 7.89623C42.137 8.03064 42.8763 10.2148 41.8682 10.5172C41.0618 10.7591 40.3225 9.94596 40.0537 9.50914L38.9784 10.618L43.8843 14.9191L45.1276 13.7766L42.5066 11.7269C43.34 11.8344 43.7051 11.122 43.7835 10.7524H46.5389L46.6733 14.4487H48.1854L47.7486 7.25779L54.9058 7.52661C54.9058 8.42264 54.8454 10.3223 54.6034 10.7524C54.301 11.29 51.7472 12.8357 51.6464 10.618C51.5658 8.84381 53.1585 9.20672 53.965 9.60994V8.29946C53.3378 8.12022 51.8548 7.86935 50.9408 8.29946C49.7983 8.83709 49.4623 10.4836 49.9327 11.7269C50.5599 12.679 52.2983 14.1193 54.2338 12.2645L54.0658 14.8183L55.5779 15.0535L56.4851 7.76182C57.3185 7.76182 58.4228 8.12022 58.8709 8.29946L57.3924 15.0535L59.1061 15.5239L60.4166 8.83709C60.9811 8.72957 61.6375 9.08353 61.8951 9.27392V7.76182C59.18 6.49838 51.064 6.13772 47.3454 6.11532L43.0443 2.6543L41.9018 3.79677L46.0349 6.41772ZM17.0777 20.49C11.2311 26.4135 7.88239 35.1582 6.90927 38.8972C6.89825 38.9396 6.93105 38.9782 6.97493 38.9782H8.40692C8.46102 38.9782 8.49529 38.9163 8.47399 38.8665C8.0961 37.9817 9.09677 35.5464 9.68925 34.3511C9.70235 34.3247 9.73118 34.3108 9.76021 34.3161C10.9869 34.5391 11.5879 35.348 11.7496 35.7567C11.757 35.7753 11.7546 35.7964 11.7442 35.8136C11.1071 36.8731 10.3703 37.0204 10.0035 36.9521C9.95813 36.9436 9.91257 36.9766 9.91257 37.0228V38.4185C9.91257 38.4632 9.95538 38.4955 9.99832 38.4832L16.4163 36.64C16.4452 36.6318 16.465 36.6054 16.465 36.5755V34.9335C16.465 34.8891 16.4226 34.8569 16.3798 34.8687L13.1725 35.7579C13.1252 35.771 13.0804 35.7292 13.087 35.6806C13.3782 33.5487 11.6003 32.9223 10.5774 32.8663C10.5314 32.8637 10.5001 32.8178 10.5159 32.7745L11.1299 31.0858C11.1437 31.0479 11.1876 31.0306 11.2235 31.0489L17.5802 34.2766C17.6136 34.2936 17.6546 34.2799 17.671 34.2462L18.3184 32.9206C18.3342 32.8882 18.3217 32.8491 18.2901 32.8319L12.3162 29.5975C12.2867 29.5815 12.2735 29.5462 12.2853 29.5148L13.036 27.5128C13.0528 27.4681 13.1115 27.4564 13.1468 27.4886C16.7226 30.7458 18.6894 28.4371 19.2605 26.7938C19.2749 26.7527 19.3237 26.7358 19.3618 26.7572C20.7651 27.547 22.5882 26.4301 23.4405 25.6756C23.4847 25.6365 23.555 25.6679 23.555 25.7269V28.0575C23.555 28.0946 23.5851 28.1247 23.6222 28.1247H24.7311C24.7682 28.1247 24.7983 28.0946 24.7983 28.0575V25.2013C24.7983 25.1642 24.8284 25.1341 24.8655 25.1341H27.5537C27.5908 25.1341 27.6209 25.104 27.6209 25.0669V24.3613C27.6209 24.3242 27.5908 24.2941 27.5537 24.2941H24.5631C24.526 24.2941 24.4959 24.264 24.4959 24.2269V22.3788C24.4959 22.3417 24.4658 22.3116 24.4287 22.3116H23.307C23.2753 22.3116 23.2481 22.3325 23.2407 22.3632C23.1291 22.8276 22.2144 26.2373 19.6572 25.1341C19.3771 25.0221 18.8642 24.6234 19.0524 23.9245C19.2368 23.2393 20.8786 21.6156 21.7241 20.8449C21.7519 20.8196 21.753 20.7769 21.7273 20.7496L20.2769 19.2046C20.2505 19.1765 20.2532 19.1321 20.2826 19.1073L22.327 17.3823C22.3556 17.3581 22.3984 17.362 22.4222 17.3909L26.7714 22.6626C26.7951 22.6913 26.8378 22.6952 26.8663 22.6713L28.0094 21.7136C28.0366 21.6909 28.0414 21.6509 28.0204 21.6223L23.9969 16.1477C23.9754 16.1184 23.981 16.0773 24.0097 16.055L26.547 14.0706C26.5668 14.0552 26.5948 14.0525 26.6176 14.0632C28.8458 15.1064 27.7649 16.2714 26.8837 16.7633C26.8476 16.7835 26.8381 16.8323 26.8634 16.8651C29.0137 19.65 31.4942 18.0772 32.5335 16.8725C32.5637 16.8375 32.6191 16.8423 32.643 16.8819L33.5357 18.3595C33.5542 18.39 33.593 18.4008 33.6245 18.3843L34.8551 17.7382C34.8872 17.7214 34.9007 17.6834 34.885 17.6508C33.8795 15.56 31.922 11.4569 31.922 11.3237C31.922 11.2009 32.4267 11.1248 32.7446 11.0955C32.7878 11.0915 32.8166 11.0487 32.8034 11.0073L32.3822 9.6834C32.3698 9.64455 32.3253 9.62587 32.2886 9.64348C26.6974 12.314 23.4033 14.6993 22.4125 15.5941C22.3915 15.6132 22.3613 15.6154 22.3361 15.6023C17.7607 13.2198 15.388 15.5317 14.8521 18.0441C14.4474 19.9409 16.0335 20.3803 17.0249 20.3697C17.087 20.369 17.1213 20.4458 17.0777 20.49ZM66.465 9.13951C69.4556 10.5396 75.6854 13.6758 76.68 15.0199L75.2351 10.282H77.2849L77.8225 15.8935C81.631 18.5481 90.1814 26.8411 93.1115 38.911L91.7338 39.079L91.4314 38.4742L84.6773 40.4231L84.1397 38.743L90.7593 36.5253C90.8044 36.0212 90.719 34.8989 90.0201 34.4419L83.3669 37.2981L83.0308 35.45L86.6263 33.8035L85.5174 31.5185L84.1397 32.2578C83.9717 31.3954 83.9045 29.4487 84.9798 28.5616L87.9704 33.1987L89.0456 32.5602C88.6982 31.1153 87.5066 27.8425 85.5174 26.3102L79.7378 30.2417L78.9314 28.5616L82.3924 25.9742L81.3843 24.8317C81.0705 25.7054 79.9394 27.2511 77.9233 26.4446C75.4032 25.4366 77.4193 20.0266 77.5537 19.825H79.4354C78.4273 21.3371 76.848 24.5226 78.5954 25.1677C78.9764 25.4253 79.9193 25.1543 80.6451 22.0091L83.3669 25.403L84.5765 24.4621C83.3333 22.7148 80.1881 18.8371 77.5537 17.3048L72.9166 22.7484L71.7405 21.8075L76.008 16.0616C75.5933 15.6807 74.6101 14.9056 73.9919 14.8519L70.0268 20.7995L68.7163 19.825L69.8252 18.1449C68.4475 18.0889 65.8467 17.0024 66.465 13.1046C67.5066 13.8998 69.4556 14.7242 68.9179 11.6597C68.6713 11.4132 67.762 10.8801 66.0954 10.7188L66.465 9.13951ZM80.8467 50.2685C80.8467 67.5273 66.9308 81.5185 49.7647 81.5185C32.5986 81.5185 18.6827 67.5273 18.6827 50.2685C18.6827 33.0097 32.5986 19.0185 49.7647 19.0185C66.9308 19.0185 80.8467 33.0097 80.8467 50.2685ZM87.4327 50.6046V54.5696L94.8924 55.3425L95.0268 50.739L94.0859 50.6046V54.0656H91.633V50.907H90.5913L90.5241 53.9312L88.6088 53.864V50.6046H87.4327ZM12.1975 50.6718H4.56982V52.5199L9.61015 52.1839L5.00665 54.6368V56.5185L12.3319 55.4769V53.9984L7.05638 54.6368L12.1975 52.5199V50.6718ZM13.1048 57.829L5.37628 57.6274V59.3075H7.66122V61.1556L6.11552 61.8949L6.68676 63.7094L13.1048 59.9124V57.829ZM7.42601 65.7255L13.3736 63.575L12.8696 62.0965L14.012 61.6261L15.6921 65.9271L14.6169 66.4312L13.844 65.1207L8.19886 67.372L7.42601 65.7255ZM15.6921 66.6664L9.34133 69.993L10.0806 71.6059L16.5322 68.1113L15.6921 66.6664ZM11.7271 72.9164C12.3207 72.2222 13.965 70.6449 15.7929 69.8922C18.0779 68.9513 19.6908 71.5387 19.254 73.118C18.8171 74.6973 15.3897 77.1839 13.844 76.9822C12.2983 76.7806 10.7862 74.3949 11.7271 72.9164ZM20.6653 74.2605L15.1545 78.7968L16.5322 80.1409L19.758 76.9822L17.7755 81.7874L19.254 82.9634L24.2607 77.5871L23.0846 76.6462L19.5228 80.1409L21.9085 75.4029L20.6653 74.2605ZM19.8924 83.6019L26.008 79.2L27.5537 80.3425L24.5967 87.7013L23.2862 86.7269L24.2607 84.8115L22.547 83.8035L21.0013 85.0804L19.8924 83.6019ZM29.3682 81.7874L25.6384 88.1382L29.7042 90.7255L30.5107 89.6503L27.5537 87.9365L30.8467 82.5266L29.3682 81.7874ZM38.508 88.4742H39.9529C40.1657 87.5333 40.0873 85.618 38.0712 85.4836C35.551 85.3156 34.8118 87.3989 35.6182 88.7766L36.9959 90.2215C37.4215 90.8149 37.9569 92.0629 36.6935 92.3048C35.43 92.5468 35.495 90.9493 35.6854 90.1207L34.4421 89.6503C34.2517 90.4231 34.0725 92.1435 34.879 92.8425C35.887 93.7161 38.676 94.0185 39.1128 92.0024C39.5497 89.9863 37.2983 88.1382 36.9959 87.9365C36.6935 87.7349 37.0295 86.5925 38.0712 86.8949C38.9045 87.1368 38.7096 88.0488 38.508 88.4742ZM40.1545 94.0857L41.465 86.7605L45.4972 87.2645V88.4742L42.8091 88.3734L42.7083 90.2215L44.8252 90.4567V91.5992L42.305 91.3304L42.0362 93.5817L44.5564 93.7833V94.825L40.1545 94.0857ZM46.6397 87.4661L46.1021 95.1274H47.7822V92.7753C47.771 92.5064 47.9099 91.9688 48.555 91.9688C49.3615 91.9688 49.9663 92.3048 49.9999 92.7753C50.0268 93.1516 50.0112 94.5004 49.9999 95.1274L52.1843 95.0615C52.197 95.0622 52.2083 95.0615 52.2177 95.0602L52.1843 95.0615C52.0906 95.0555 51.9128 94.9843 51.7472 94.7242C51.6797 94.618 51.6842 94.3236 51.6899 93.9486C51.7042 93.0185 51.7259 91.5938 50.672 91.3304C51.0304 91.0615 51.7674 90.2753 51.5792 89.415C51.344 88.3398 50.672 87.8021 50.1343 87.6005C49.7042 87.4392 47.6254 87.4439 46.6397 87.4661ZM53.9986 87.7349H52.0833L54.8386 94.8922L57.1908 94.7914L57.3924 87.1301L55.9475 87.1973V93.5817L53.9986 87.7349ZM58.2325 86.6933L59.8454 86.5589L61.8279 93.5817L60.047 94.0185L58.2325 86.6933ZM63.5752 85.954C64.5429 85.739 64.8745 86.6482 64.9193 87.1301L66.0618 86.8277C66.0618 86.2564 65.2553 84.9796 64.3144 84.8788C63.3736 84.7779 61.4247 84.8452 61.5591 88.071C61.6935 91.2968 63.3736 93.2457 65.6585 93.1449C67.4865 93.0642 67.5181 90.3559 67.305 89.0118L66.2298 89.1798C66.4986 91.4917 65.7817 91.9802 65.3897 91.9352C63.2056 91.9352 62.3655 86.2228 63.5752 85.954ZM66.4314 84.0723L69.59 81.989L70.43 83.0642L68.2459 84.3747L69.0523 85.8196L70.8669 84.8115L71.5389 85.6852L69.5228 86.8949L70.6316 88.8438L72.715 87.4997L73.5214 88.3734L69.6908 90.8263L66.4314 84.0723ZM77.3185 78.7632L76.3776 79.7376C75.2687 78.8539 74.4959 79.4016 74.5967 80.1409C74.6908 80.8284 75.1915 80.8183 75.4233 80.8136H75.424C75.4415 80.8129 75.4569 80.8129 75.4704 80.8129C75.6316 80.8129 77.3743 80.6335 78.2257 80.5441C78.4495 80.4769 79.0725 80.4769 79.7714 81.0145C80.6451 81.6865 80.7795 83.7027 78.6626 85.0468C76.969 86.122 75.6941 84.823 75.2687 84.0387L76.5792 82.997C77.5201 84.2605 78.3601 83.6805 78.6626 83.2322C78.797 82.7282 78.5819 81.8075 76.6464 82.157C74.2271 82.5938 73.4206 81.989 73.051 80.8129C72.6814 79.6368 73.3198 78.6624 74.8655 78.0239C76.1021 77.5132 77.0161 78.3042 77.3185 78.7632ZM80.7795 75.5374L81.5859 74.5293C81.2614 74.0925 80.3225 73.3129 79.1666 73.6892C77.7217 74.1597 76.9489 75.8062 77.5873 76.7806C77.6921 76.9413 77.7782 77.0857 77.8622 77.2275C78.2466 77.8747 78.5907 78.4554 80.5382 80.1409C80.6989 80.2793 80.9683 80.4339 81.211 80.5723C81.2963 80.6214 81.379 80.6684 81.4515 80.7121C82.0678 81.0817 83.6558 81.196 84.5429 79.6368C85.6518 77.6879 85.4502 76.915 83.6357 75.9406L82.6276 77.1503C83.1095 77.374 83.8911 78.0306 83.1653 78.864C82.8884 79.1818 82.3191 79.2101 81.7876 78.9648C80.5772 78.4056 79.137 76.749 78.7634 76.1422C78.2257 75.2685 79.5362 74.3949 80.7795 75.5374ZM81.2163 70.9003L80.2755 72.1771L86.3575 76.4782L87.5335 75.0669L84.8118 73.118L85.8534 71.4715L88.844 73.0172L89.6169 71.4715L83.0308 67.7753L82.3924 69.1866L84.6773 70.8331L83.7701 72.4124L81.2163 70.9003ZM83.5685 66.8008L84.9798 63.239L86.3239 63.407L85.3158 65.9607L86.8279 66.6664L87.6343 64.4823L89.18 64.8519L88.2056 67.0696L89.8521 68.0441L91.0618 65.2887L92.4058 65.9607L90.3225 70.1274L83.5685 66.8008ZM86.0214 60.0132L85.6518 62.2309L92.6747 64.7175L93.1787 63.071L87.0631 61.3236L93.7835 61.6597L94.0859 60.4164L88.1384 57.5266L94.2876 58.6691L94.5228 56.9554L86.9623 55.9137L86.8279 58.0978L91.3306 60.3156L86.0214 60.0132Z" fill="white"/>
<path d="M37.0968 8.0313L37.0404 7.90933L36.9409 7.95536L36.966 8.06208L37.0968 8.0313ZM46.035 6.41839L46.0276 6.55259L46.5424 6.58099L46.107 6.30488L46.035 6.41839ZM37.3657 9.17378L37.2348 9.20455L37.5001 9.17378H37.3657ZM41.8683 10.5179L41.907 10.6466L41.8683 10.5179ZM40.0538 9.5098L40.1683 9.43937L40.0777 9.29212L39.9573 9.41625L40.0538 9.5098ZM38.9786 10.6187L38.8821 10.5251L38.7837 10.6265L38.89 10.7197L38.9786 10.6187ZM43.8845 14.9197L43.7959 15.0208L43.8866 15.1003L43.9754 15.0187L43.8845 14.9197ZM45.1278 13.7773L45.2187 13.8763L45.3354 13.769L45.2105 13.6714L45.1278 13.7773ZM42.5068 11.7275L42.524 11.5942L42.038 11.5315L42.424 11.8334L42.5068 11.7275ZM43.7837 10.7531V10.6187H43.6748L43.6522 10.7252L43.7837 10.7531ZM46.539 10.7531L46.6734 10.7482L46.6687 10.6187H46.539V10.7531ZM46.6735 14.4493L46.5391 14.4542L46.5438 14.5837H46.6735V14.4493ZM48.1856 14.4493V14.5837H48.3284L48.3197 14.4412L48.1856 14.4493ZM47.7487 7.25845L47.7538 7.12411L47.6056 7.1186L47.6146 7.26658L47.7487 7.25845ZM54.906 7.52727H55.0404V7.39783L54.911 7.39293L54.906 7.52727ZM54.6036 10.7531L54.7207 10.819L54.6036 10.7531ZM51.6466 10.6187L51.7808 10.6126L51.6466 10.6187ZM53.9651 9.6106L53.905 9.73083L54.0995 9.82808V9.6106H53.9651ZM53.9651 8.30012H54.0995V8.19871L54.002 8.17089L53.9651 8.30012ZM50.9409 8.30012L50.9982 8.42176L50.9409 8.30012ZM49.9329 11.7275L49.8071 11.7751L49.8124 11.789L49.8206 11.8015L49.9329 11.7275ZM54.2339 12.2652L54.3681 12.274L54.3908 11.9287L54.1409 12.1681L54.2339 12.2652ZM54.0659 14.8189L53.9318 14.8101L53.9237 14.9328L54.0453 14.9517L54.0659 14.8189ZM55.578 15.0542L55.5574 15.1869L55.6943 15.2083L55.7114 15.0708L55.578 15.0542ZM56.4853 7.76249V7.62808H56.3665L56.3519 7.74589L56.4853 7.76249ZM58.871 8.30012L59.0023 8.32888L59.0267 8.21759L58.921 8.17532L58.871 8.30012ZM57.3925 15.0542L57.2612 15.0254L57.2339 15.15L57.357 15.1838L57.3925 15.0542ZM59.1062 15.5246L59.0707 15.6542L59.2103 15.6925L59.2382 15.5505L59.1062 15.5246ZM60.4167 8.83775L60.3916 8.7057L60.3023 8.7227L60.2848 8.81188L60.4167 8.83775ZM61.8952 9.27458L61.8153 9.38265L62.0296 9.54105V9.27458H61.8952ZM61.8952 7.76249H62.0296V7.6768L61.9519 7.64064L61.8952 7.76249ZM47.3455 6.11598L47.2612 6.2207L47.2978 6.25011L47.3447 6.25039L47.3455 6.11598ZM43.0444 2.65496L43.1287 2.55024L43.0347 2.47461L42.9494 2.55992L43.0444 2.65496ZM41.9019 3.79743L41.8069 3.70239L41.6882 3.82106L41.83 3.91094L41.9019 3.79743ZM6.9094 38.8978L6.77936 38.864L6.9094 38.8978ZM17.0778 20.4906L16.9821 20.3963L17.0778 20.4906ZM8.47412 38.8672L8.59778 38.8144L8.47412 38.8672ZM9.68938 34.3517L9.56895 34.2921L9.68938 34.3517ZM9.76035 34.3168L9.73635 34.449L9.76035 34.3168ZM11.7497 35.7574L11.6247 35.8068L11.7497 35.7574ZM11.7444 35.8143L11.6292 35.745L11.7444 35.8143ZM10.0036 36.9527L10.0282 36.8206L10.0036 36.9527ZM9.99845 38.4839L10.0355 38.613L9.99845 38.4839ZM16.4165 36.6407L16.4536 36.7699L16.4165 36.6407ZM16.38 34.8694L16.3441 34.7399L16.38 34.8694ZM13.1726 35.7586L13.1368 35.6291L13.1726 35.7586ZM13.0872 35.6812L12.954 35.6631L13.0872 35.6812ZM10.5775 32.8669L10.5849 32.7327L10.5775 32.8669ZM10.516 32.7752L10.3896 32.7293L10.516 32.7752ZM11.13 31.0865L11.2564 31.1324L11.13 31.0865ZM11.2237 31.0495L11.2845 30.9297L11.2237 31.0495ZM17.5803 34.2773L17.6412 34.1574L17.5803 34.2773ZM17.6712 34.2468L17.7919 34.3058L17.6712 34.2468ZM18.3185 32.9212L18.1978 32.8622L18.3185 32.9212ZM18.2902 32.8326L18.2262 32.9508L18.2902 32.8326ZM12.3163 29.5982L12.2523 29.7164L12.3163 29.5982ZM12.2854 29.5154L12.4113 29.5627L12.2854 29.5154ZM13.0362 27.5135L12.9103 27.4663L13.0362 27.5135ZM13.147 27.4892L13.0564 27.5886L13.147 27.4892ZM19.2607 26.7945L19.3876 26.8386L19.2607 26.7945ZM19.3619 26.7578L19.296 26.875L19.3619 26.7578ZM23.4407 25.6763L23.5298 25.7769L23.4407 25.6763ZM23.2408 22.3639L23.3715 22.3953L23.2408 22.3639ZM19.6573 25.1348L19.7105 25.0114L19.7089 25.0107L19.7073 25.01L19.6573 25.1348ZM19.0525 23.9251L19.1823 23.9601L19.0525 23.9251ZM21.7243 20.8455L21.6337 20.7462L21.7243 20.8455ZM21.7274 20.7503L21.8254 20.6583L21.7274 20.7503ZM20.2771 19.2053L20.3751 19.1133L20.2771 19.2053ZM20.2827 19.1079L20.196 19.0052L20.2827 19.1079ZM22.3271 17.3829L22.4138 17.4857L22.3271 17.3829ZM22.4223 17.3915L22.526 17.306L22.4223 17.3915ZM26.7715 22.6632L26.6678 22.7488L26.7715 22.6632ZM26.8665 22.672L26.9528 22.775L26.8665 22.672ZM28.0095 21.7143L27.9232 21.6113L28.0095 21.7143ZM28.0205 21.623L27.9122 21.7025L28.0205 21.623ZM23.997 16.1484L24.1053 16.0688L23.997 16.1484ZM24.0098 16.0556L24.0926 16.1615L24.0098 16.0556ZM26.5471 14.0713L26.4643 13.9654L26.5471 14.0713ZM26.6177 14.0639L26.6747 13.9421L26.6177 14.0639ZM26.8839 16.764L26.9494 16.8813L26.8839 16.764ZM26.8636 16.8658L26.97 16.7836L26.8636 16.8658ZM32.5336 16.8732L32.4319 16.7854L32.5336 16.8732ZM32.6431 16.8826L32.5281 16.9521L32.6431 16.8826ZM33.5359 18.3602L33.4208 18.4297L33.5359 18.3602ZM33.6247 18.3849L33.6871 18.504L33.6247 18.3849ZM34.8552 17.7389L34.9177 17.8579L34.8552 17.7389ZM34.8851 17.6515L35.0063 17.5932L34.8851 17.6515ZM32.7447 11.0962L32.7323 10.9624L32.7447 11.0962ZM32.8036 11.008L32.9317 10.9673L32.8036 11.008ZM32.3823 9.68406L32.5104 9.64326L32.3823 9.68406ZM32.2887 9.64414L32.3466 9.76537L32.2887 9.64414ZM22.4126 15.5948L22.3226 15.4951L22.4126 15.5948ZM22.3362 15.6029L22.2742 15.7222L22.3362 15.6029ZM14.8522 18.0447L14.9837 18.0728L14.8522 18.0447ZM17.025 20.3703L17.0236 20.2359L17.025 20.3703ZM76.6802 15.0205L76.572 15.1005L76.8085 14.9814L76.6802 15.0205ZM66.4651 9.14017L66.5221 9.01847L66.372 8.94817L66.3343 9.10953L66.4651 9.14017ZM75.2353 10.2826V10.1482H75.0538L75.1069 10.3218L75.2353 10.2826ZM77.285 10.2826L77.4187 10.2698L77.4073 10.1482H77.285V10.2826ZM77.8226 15.8942L77.6889 15.907L77.695 15.9689L77.746 16.0045L77.8226 15.8942ZM93.1116 38.9117L93.1278 39.0451L93.2776 39.0268L93.242 38.88L93.1116 38.9117ZM91.7339 39.0797L91.6136 39.1398L91.656 39.2246L91.7501 39.2131L91.7339 39.0797ZM91.4315 38.4748L91.5518 38.4148L91.5014 38.3147L91.3946 38.3457L91.4315 38.4748ZM84.6775 40.4238L84.5498 40.4648L84.5894 40.5891L84.7145 40.5529L84.6775 40.4238ZM84.1399 38.7437L84.0968 38.6162L83.9712 38.6583L84.0122 38.7847L84.1399 38.7437ZM90.7595 36.5259L90.8025 36.6533L90.8858 36.6255L90.8932 36.5378L90.7595 36.5259ZM90.0202 34.4426L90.0935 34.3301L90.0337 34.2906L89.9671 34.3191L90.0202 34.4426ZM83.367 37.2988L83.2346 37.3228L83.2648 37.4888L83.4201 37.4223L83.367 37.2988ZM83.031 35.4507L82.9752 35.3285L82.8798 35.372L82.8986 35.4747L83.031 35.4507ZM86.6264 33.8041L86.6822 33.9263L86.8072 33.8691L86.7474 33.7455L86.6264 33.8041ZM85.5175 31.5192L85.6385 31.4605L85.5774 31.3346L85.4537 31.4008L85.5175 31.5192ZM84.1399 32.2585L84.0081 32.2841L84.0431 32.4631L84.2037 32.3769L84.1399 32.2585ZM84.9799 28.5622L85.0928 28.4894L85.0108 28.3623L84.8946 28.4585L84.9799 28.5622ZM87.9705 33.1993L87.8576 33.2722L87.9275 33.381L88.039 33.3149L87.9705 33.1993ZM89.0458 32.5609L89.1143 32.6765L89.1997 32.6259L89.1761 32.5295L89.0458 32.5609ZM85.5175 26.3109L85.5995 26.2044L85.5222 26.145L85.4416 26.1997L85.5175 26.3109ZM79.738 30.2423L79.617 30.3005L79.6842 30.4413L79.8132 30.3535L79.738 30.2423ZM78.9315 28.5622L78.8509 28.4546L78.7628 28.5208L78.8105 28.6203L78.9315 28.5622ZM82.3925 25.9748L82.4732 26.0825L82.5895 25.9952L82.4933 25.8859L82.3925 25.9748ZM81.3845 24.8324L81.4853 24.7435L81.3347 24.5729L81.2581 24.7869L81.3845 24.8324ZM77.5538 19.8257V19.6912H77.4819L77.4423 19.7511L77.5538 19.8257ZM79.4355 19.8257L79.5471 19.9002L79.6869 19.6912H79.4355V19.8257ZM78.5955 25.1684L78.6708 25.057L78.6573 25.048L78.6419 25.0423L78.5955 25.1684ZM80.6452 22.0098L80.7501 21.9257L80.5767 21.7094L80.5142 21.9796L80.6452 22.0098ZM83.367 25.4036L83.2622 25.4877L83.3448 25.591L83.4497 25.5097L83.367 25.4036ZM84.5767 24.4628L84.6593 24.5689L84.7608 24.4898L84.6862 24.3848L84.5767 24.4628ZM77.5538 17.3055L77.6217 17.1893L77.5243 17.1328L77.4517 17.2183L77.5538 17.3055ZM72.9167 22.749L72.8327 22.854L72.9342 22.9354L73.0189 22.8362L72.9167 22.749ZM71.7407 21.8082L71.6325 21.7281L71.5552 21.8321L71.6567 21.9132L71.7407 21.8082ZM76.0081 16.0622L76.1163 16.1423L76.1882 16.0451L76.0989 15.9632L76.0081 16.0622ZM73.992 14.8525L74.0034 14.7187L73.9241 14.7117L73.8804 14.778L73.992 14.8525ZM70.0269 20.8001L69.947 20.908L70.0605 20.9924L70.1385 20.8746L70.0269 20.8001ZM68.7165 19.8257L68.6042 19.7516L68.5343 19.8577L68.6365 19.9335L68.7165 19.8257ZM69.8253 18.1455L69.9376 18.2196L70.0686 18.021L69.8307 18.0113L69.8253 18.1455ZM66.4651 13.1052L66.5467 12.9984L66.3677 12.8617L66.3324 13.0842L66.4651 13.1052ZM68.9181 11.6603L69.0505 11.6371L69.0431 11.5953L69.0128 11.5653L68.9181 11.6603ZM66.0955 10.7195L65.9646 10.6888L65.9296 10.8384L66.0825 10.8533L66.0955 10.7195ZM87.4329 54.5703H87.2985V54.6914L87.4188 54.7039L87.4329 54.5703ZM87.4329 50.6052V50.4708H87.2985V50.6052H87.4329ZM94.8925 55.3431L94.8784 55.4768L95.0229 55.4917L95.0269 55.347L94.8925 55.3431ZM95.0269 50.7396L95.1614 50.7435L95.1647 50.6236L95.0458 50.6066L95.0269 50.7396ZM94.0861 50.6052L94.1049 50.4722L93.9517 50.4502V50.6052H94.0861ZM94.0861 54.0662V54.2007H94.2205V54.0662H94.0861ZM91.6331 54.0662H91.4987V54.2007H91.6331V54.0662ZM91.6331 50.9076H91.7675V50.7732H91.6331V50.9076ZM90.5915 50.9076V50.7732H90.4597L90.4571 50.9047L90.5915 50.9076ZM90.5243 53.9318L90.5196 54.0662L90.6553 54.0709L90.6587 53.9348L90.5243 53.9318ZM88.6089 53.8646H88.4745V53.9944L88.6042 53.999L88.6089 53.8646ZM88.6089 50.6052H88.7433V50.4708H88.6089V50.6052ZM4.56996 50.6724V50.538H4.43555V50.6724H4.56996ZM12.1976 50.6724H12.3321V50.538H12.1976V50.6724ZM4.56996 52.5205H4.43555V52.6642L4.57889 52.6547L4.56996 52.5205ZM9.61028 52.1845L9.67352 52.3031L9.60134 52.0504L9.61028 52.1845ZM5.00678 54.6375L4.94358 54.5189L4.87237 54.5568V54.6375H5.00678ZM5.00678 56.5192H4.87237V56.6741L5.02571 56.6523L5.00678 56.5192ZM12.3321 55.4775L12.351 55.6106L12.4665 55.5942V55.4775H12.3321ZM12.3321 53.999H12.4665V53.8474L12.3159 53.8656L12.3321 53.999ZM7.05651 54.6375L7.00537 54.5132L7.07264 54.771L7.05651 54.6375ZM12.1976 52.5205L12.2488 52.6448L12.3321 52.6105V52.5205H12.1976ZM5.37641 57.6281L5.37992 57.4937L5.242 57.4901V57.6281H5.37641ZM13.1049 57.8297H13.2393V57.6987L13.1084 57.6953L13.1049 57.8297ZM5.37641 59.3082H5.242V59.4426H5.37641V59.3082ZM7.66135 59.3082H7.79576V59.1738H7.66135V59.3082ZM7.66135 61.1563L7.71935 61.2775L7.79576 61.241V61.1563H7.66135ZM6.11565 61.8955L6.05766 61.7743L5.95242 61.8246L5.98745 61.9359L6.11565 61.8955ZM6.68689 63.7101L6.55869 63.7505L6.60955 63.912L6.7553 63.8257L6.68689 63.7101ZM13.1049 59.913L13.1733 60.0287L13.2393 59.9897V59.913H13.1049ZM13.3737 63.5757L13.4194 63.7021L13.5435 63.6572L13.5009 63.5323L13.3737 63.5757ZM7.42614 65.7262L7.38044 65.5998L7.24186 65.6499L7.3045 65.7833L7.42614 65.7262ZM12.8697 62.0972L12.8185 61.9729L12.7017 62.021L12.7425 62.1405L12.8697 62.0972ZM14.0122 61.6267L14.1374 61.5778L14.0876 61.4503L13.961 61.5025L14.0122 61.6267ZM15.6923 65.9278L15.7493 66.0495L15.8632 65.9961L15.8175 65.8789L15.6923 65.9278ZM14.617 66.4318L14.5012 66.5001L14.5633 66.6054L14.6741 66.5535L14.617 66.4318ZM13.8441 65.1214L13.9599 65.0531L13.9014 64.9538L13.7944 64.9965L13.8441 65.1214ZM8.19899 67.3727L8.07735 67.4298L8.13111 67.5447L8.24879 67.4977L8.19899 67.3727ZM9.34146 69.9937L9.2791 69.8747L9.16613 69.9339L9.21928 70.0494L9.34146 69.9937ZM15.6923 66.6671L15.8085 66.5995L15.7438 66.4883L15.6299 66.548L15.6923 66.6671ZM10.0807 71.6066L9.95853 71.6623L10.0184 71.7934L10.1448 71.7248L10.0807 71.6066ZM16.5323 68.1119L16.5964 68.2302L16.7181 68.1644L16.6485 68.0441L16.5323 68.1119ZM15.7931 69.8929L15.7419 69.7685H15.7419L15.7931 69.8929ZM11.7272 72.9171L11.6251 72.8297L11.6189 72.8371L11.6138 72.8451L11.7272 72.9171ZM15.1546 78.7974L15.0692 78.6939L14.9535 78.7887L15.0607 78.8935L15.1546 78.7974ZM20.6654 74.2611L20.7563 74.1623L20.6702 74.083L20.58 74.1576L20.6654 74.2611ZM16.5323 80.1415L16.4384 80.2376L16.5325 80.3297L16.6263 80.2376L16.5323 80.1415ZM19.7581 76.9829L19.8824 77.034L19.6641 76.8868L19.7581 76.9829ZM17.7756 81.788L17.6513 81.7369L17.6128 81.8304L17.6919 81.8935L17.7756 81.788ZM19.2541 82.9641L19.1704 83.0696L19.2677 83.1469L19.3525 83.0555L19.2541 82.9641ZM24.2608 77.5877L24.3592 77.6791L24.4579 77.5736L24.3448 77.4829L24.2608 77.5877ZM23.0847 76.6469L23.1687 76.542L23.0757 76.4675L22.9906 76.5508L23.0847 76.6469ZM19.5229 80.1415L19.4029 80.081L19.6171 80.2376L19.5229 80.1415ZM21.9087 75.4036L22.0287 75.4641L22.0744 75.3734L21.9996 75.3048L21.9087 75.4036ZM26.0081 79.2007L26.088 79.0925L26.0092 79.034L25.9296 79.0918L26.0081 79.2007ZM19.8925 83.6025L19.814 83.4937L19.7028 83.5736L19.785 83.6832L19.8925 83.6025ZM27.5538 80.3431L27.6786 80.3935L27.7173 80.2968L27.6337 80.2349L27.5538 80.3431ZM24.5968 87.702L24.5167 87.8095L24.6565 87.9137L24.7216 87.7524L24.5968 87.702ZM23.2864 86.7275L23.1665 86.6664L23.1151 86.7679L23.2062 86.8351L23.2864 86.7275ZM24.2608 84.8122L24.3806 84.8734L24.438 84.7605L24.329 84.6966L24.2608 84.8122ZM22.5471 83.8041L22.6153 83.6886L22.5341 83.6408L22.4615 83.7007L22.5471 83.8041ZM21.0014 85.081L20.8939 85.1617L20.9784 85.2746L21.087 85.1845L21.0014 85.081ZM25.6385 88.1388L25.5226 88.0709L25.4569 88.1825L25.5663 88.2524L25.6385 88.1388ZM29.3683 81.788L29.4284 81.6677L29.3161 81.6119L29.2524 81.7201L29.3683 81.788ZM29.7044 90.7262L29.6322 90.8398L29.7372 90.9063L29.8119 90.8068L29.7044 90.7262ZM30.5108 89.6509L30.6183 89.7316L30.7091 89.6106L30.5782 89.5347L30.5108 89.6509ZM27.5538 87.9372L27.439 87.8673L27.3676 87.9849L27.4864 88.0535L27.5538 87.9372ZM30.8468 82.5273L30.9616 82.5972L31.0376 82.4722L30.9069 82.407L30.8468 82.5273ZM39.953 88.4748V88.6093H40.0604L40.0841 88.5044L39.953 88.4748ZM38.5081 88.4748L38.3867 88.4171L38.2958 88.6093H38.5081V88.4748ZM35.6183 88.7773L35.5023 88.8451L35.5103 88.8586L35.5211 88.87L35.6183 88.7773ZM36.996 90.2222L37.1052 90.1435L37.0998 90.1361L37.0933 90.1294L36.996 90.2222ZM35.6855 90.1214L35.8165 90.1516L35.8428 90.0373L35.7331 89.9957L35.6855 90.1214ZM34.4423 89.6509L34.4898 89.5252L34.348 89.4715L34.3118 89.6187L34.4423 89.6509ZM34.8791 92.8431L34.7911 92.9446L34.8791 92.8431ZM38.0713 86.8955L38.0338 87.0246L38.0713 86.8955ZM41.4651 86.7611L41.4818 86.6281L41.3552 86.6119L41.3328 86.7376L41.4651 86.7611ZM40.1546 94.0864L40.0223 94.0629L39.9984 94.1966L40.1324 94.2188L40.1546 94.0864ZM45.4974 87.2652H45.6318V87.1462L45.514 87.1321L45.4974 87.2652ZM45.4974 88.4748L45.4923 88.6093L45.6318 88.6146V88.4748H45.4974ZM42.8092 88.374L42.8142 88.2396L42.6822 88.2349L42.675 88.3666L42.8092 88.374ZM42.7084 90.2222L42.5742 90.2148L42.5673 90.3418L42.6935 90.3559L42.7084 90.2222ZM44.8253 90.4574H44.9597V90.3371L44.8402 90.3236L44.8253 90.4574ZM44.8253 91.5998L44.8111 91.7336L44.9597 91.749V91.5998H44.8253ZM42.3052 91.331L42.3194 91.1973L42.1874 91.1832L42.1717 91.3149L42.3052 91.331ZM42.0364 93.5824L41.9029 93.5662L41.8864 93.7054L42.0257 93.7161L42.0364 93.5824ZM44.5565 93.784H44.6909V93.6597L44.5672 93.6502L44.5565 93.784ZM44.5565 94.8257L44.5343 94.958L44.6909 94.9843V94.8257H44.5565ZM46.1022 95.1281L45.9681 95.1187L45.9581 95.2625H46.1022V95.1281ZM46.6399 87.4668L46.6368 87.3324L46.5143 87.3351L46.5058 87.4574L46.6399 87.4668ZM47.7823 95.1281V95.2625H47.9167V95.1281H47.7823ZM47.7823 92.7759H47.9167V92.7732L47.9166 92.7705L47.7823 92.7759ZM50.0001 92.7759L49.866 92.7853L50.0001 92.7759ZM50.0001 95.1281L49.8657 95.1254L49.8632 95.2665L50.0042 95.2625L50.0001 95.1281ZM52.2178 95.0609L52.2368 95.1939L52.2137 94.9265L52.2178 95.0609ZM51.7474 94.7248L51.634 94.7968L51.7474 94.7248ZM51.69 93.9493L51.8245 93.9513L51.69 93.9493ZM50.6721 91.331L50.5915 91.2235L50.3655 91.3929L50.6395 91.4614L50.6721 91.331ZM51.5794 89.4157L51.7107 89.3868L51.5794 89.4157ZM50.1345 87.6012L50.0873 87.7269L50.1345 87.6012ZM52.0834 87.7356V87.6012H51.8876L51.958 87.784L52.0834 87.7356ZM53.9987 87.7356L54.1262 87.6933L54.0956 87.6012H53.9987V87.7356ZM54.8388 94.8929L54.7134 94.9412L54.7481 95.0313L54.8446 95.0273L54.8388 94.8929ZM57.1909 94.792L57.1967 94.9265L57.322 94.9211L57.3253 94.7954L57.1909 94.792ZM57.3925 87.1308L57.5269 87.1341L57.5307 86.9896L57.3863 86.9964L57.3925 87.1308ZM55.9476 87.198L55.9414 87.0636L55.8132 87.0696V87.198H55.9476ZM55.9476 93.5824L55.8202 93.6247L56.0821 93.5824H55.9476ZM59.8455 86.5595L59.9749 86.5232L59.9448 86.4164L59.8343 86.4258L59.8455 86.5595ZM58.2326 86.6939L58.2214 86.5602L58.0642 86.573L58.1021 86.7262L58.2326 86.6939ZM61.828 93.5824L61.86 93.7127L61.9952 93.6798L61.9574 93.5461L61.828 93.5824ZM60.0471 94.0192L59.9167 94.0515L59.9489 94.1818L60.0791 94.1496L60.0471 94.0192ZM64.9194 87.1308L64.7856 87.1435L64.8003 87.3015L64.9538 87.2605L64.9194 87.1308ZM63.5753 85.9547L63.5462 85.8236L63.5753 85.9547ZM66.0619 86.8283L66.0963 86.958L66.1963 86.9318V86.8283H66.0619ZM65.6587 93.1455L65.6528 93.0111L65.6587 93.1455ZM67.3052 89.0125L67.4382 88.9916L67.4167 88.8593L67.2843 88.8794L67.3052 89.0125ZM66.2299 89.1805L66.2091 89.0474L66.0815 89.0676L66.0964 89.1959L66.2299 89.1805ZM65.3899 91.9359L65.4051 91.8021L65.3975 91.8015H65.3899V91.9359ZM69.5901 81.9896L69.6963 81.907L69.6197 81.8089L69.5162 81.8774L69.5901 81.9896ZM66.4315 84.073L66.3575 83.9607L66.2593 84.0253L66.3105 84.1314L66.4315 84.073ZM70.4302 83.0649L70.4994 83.1798L70.6298 83.1019L70.5364 82.9822L70.4302 83.0649ZM68.246 84.3754L68.1768 84.2605L68.0653 84.327L68.1284 84.4406L68.246 84.3754ZM69.0525 85.8203L68.9349 85.8855L69.0007 86.0031L69.1177 85.9379L69.0525 85.8203ZM70.867 84.8122L70.9739 84.7302L70.9026 84.6382L70.8018 84.6946L70.867 84.8122ZM71.539 85.6859L71.6083 85.8008L71.7373 85.7235L71.6459 85.6039L71.539 85.6859ZM69.5229 86.8955L69.4537 86.7806L69.3415 86.8478L69.406 86.9621L69.5229 86.8955ZM70.6318 88.8445L70.5149 88.911L70.5854 89.0347L70.7044 88.9574L70.6318 88.8445ZM72.7151 87.5004L72.8139 87.409L72.7373 87.3263L72.6425 87.3875L72.7151 87.5004ZM73.5216 88.374L73.5941 88.4869L73.7292 88.4009L73.6204 88.2826L73.5216 88.374ZM69.6909 90.827L69.57 90.8855L69.6358 91.0219L69.7635 90.9399L69.6909 90.827ZM76.3778 79.7383L76.2937 79.8431L76.3899 79.9197L76.4745 79.8317L76.3778 79.7383ZM77.3186 78.7638L77.4154 78.8572L77.49 78.78L77.4308 78.6899L77.3186 78.7638ZM74.5968 80.1415L74.4638 80.1597L74.5968 80.1415ZM75.4235 80.8142L75.4261 80.9486H75.4268L75.4235 80.8142ZM75.4241 80.8142L75.4214 80.6798L75.4241 80.8142ZM78.2259 80.5447L78.24 80.6785L78.2528 80.6771L78.2642 80.6738L78.2259 80.5447ZM79.7716 81.0152L79.8536 80.9083L79.7716 81.0152ZM78.6627 85.0474L78.5908 84.9339L78.6627 85.0474ZM75.2689 84.0394L75.1855 83.9339L75.0968 84.0044L75.1506 84.1032L75.2689 84.0394ZM76.5794 82.9977L76.6869 82.9177L76.6042 82.8062L76.496 82.8922L76.5794 82.9977ZM78.6627 83.2329L78.7743 83.3082L78.787 83.2894L78.7924 83.2679L78.6627 83.2329ZM76.6466 82.1576L76.6224 82.0253L76.6466 82.1576ZM74.8657 78.0246L74.8146 77.9003L74.8657 78.0246ZM81.5861 74.53L81.6909 74.614L81.7561 74.5326L81.6936 74.45L81.5861 74.53ZM80.7796 75.538L80.6889 75.6368L80.7944 75.7343L80.8845 75.622L80.7796 75.538ZM79.1667 73.6899L79.1251 73.5622L79.1667 73.6899ZM77.5874 76.7813L77.6997 76.7074L77.5874 76.7813ZM77.8623 77.2282L77.7467 77.2968L77.8623 77.2282ZM80.5384 80.1415L80.6264 80.04L80.5384 80.1415ZM81.2111 80.573L81.2776 80.4567L81.2111 80.573ZM81.4517 80.7127L81.3825 80.8277L81.4517 80.7127ZM84.5431 79.6375L84.4261 79.5709L84.5431 79.6375ZM83.6358 75.9412L83.6997 75.823L83.6029 75.7712L83.5323 75.8552L83.6358 75.9412ZM82.6278 77.1509L82.5243 77.0649L82.4127 77.1993L82.5713 77.2726L82.6278 77.1509ZM83.1654 78.8646L83.2669 78.9527L83.1654 78.8646ZM81.7877 78.9654L81.8441 78.8431L81.7877 78.9654ZM78.7635 76.1429L78.6493 76.2134L78.7635 76.1429ZM80.2756 72.1778L80.1674 72.0978L80.0861 72.2087L80.1983 72.2873L80.2756 72.1778ZM81.2165 70.9009L81.285 70.7853L81.1802 70.7235L81.1083 70.821L81.2165 70.9009ZM86.3576 76.4789L86.2803 76.5884L86.3811 76.6603L86.4611 76.5649L86.3576 76.4789ZM87.5337 75.0676L87.6372 75.1536L87.7292 75.0427L87.6116 74.958L87.5337 75.0676ZM84.8119 73.1187L84.6983 73.0468L84.6304 73.1543L84.7339 73.2282L84.8119 73.1187ZM85.8536 71.4722L85.9154 71.3525L85.8058 71.2961L85.74 71.4003L85.8536 71.4722ZM88.8442 73.0179L88.7823 73.1375L88.9033 73.2L88.9645 73.0777L88.8442 73.0179ZM89.617 71.4722L89.7373 71.532L89.7944 71.4177L89.6829 71.3552L89.617 71.4722ZM83.031 67.7759L83.0968 67.659L82.9691 67.5871L82.9087 67.7208L83.031 67.7759ZM82.3925 69.1872L82.2702 69.1321L82.2245 69.2322L82.3139 69.2961L82.3925 69.1872ZM84.6775 70.8337L84.7937 70.9009L84.8542 70.7954L84.7561 70.7248L84.6775 70.8337ZM83.7702 72.413L83.7017 72.5286L83.8186 72.5978L83.8865 72.4802L83.7702 72.413ZM84.9799 63.2396L84.9967 63.1062L84.8932 63.0933L84.8549 63.1901L84.9799 63.2396ZM83.5686 66.8015L83.4436 66.7519L83.3979 66.8673L83.5095 66.922L83.5686 66.8015ZM86.324 63.4076L86.449 63.457L86.5128 63.2957L86.3408 63.2742L86.324 63.4076ZM85.3159 65.9614L85.1909 65.9121L85.1446 66.0297L85.2588 66.0832L85.3159 65.9614ZM86.828 66.6671L86.7709 66.7888L86.9033 66.8506L86.9544 66.7136L86.828 66.6671ZM87.6345 64.4829L87.6661 64.3522L87.5498 64.3244L87.5081 64.4363L87.6345 64.4829ZM89.1802 64.8525L89.3032 64.9066L89.3677 64.7593L89.2118 64.7218L89.1802 64.8525ZM88.2057 67.0703L88.0827 67.0162L88.035 67.1253L88.1372 67.1859L88.2057 67.0703ZM89.8522 68.0447L89.7837 68.1603L89.914 68.2376L89.9752 68.0985L89.8522 68.0447ZM91.0619 65.2894L91.1217 65.1691L90.9954 65.106L90.9389 65.2353L91.0619 65.2894ZM92.406 65.9614L92.5263 66.0215L92.5861 65.9013L92.4658 65.8412L92.406 65.9614ZM90.3226 70.1281L90.2635 70.2484L90.3831 70.3075L90.4429 70.1879L90.3226 70.1281ZM85.6519 62.2316L85.5196 62.2095L85.5007 62.3207L85.6069 62.3582L85.6519 62.2316ZM86.0216 60.0138L86.029 59.8796L85.9087 59.8728L85.8892 59.9917L86.0216 60.0138ZM92.6748 64.7181L92.6298 64.8448L92.7622 64.8916L92.8032 64.7574L92.6748 64.7181ZM93.1788 63.0716L93.3072 63.1109L93.3475 62.98L93.2158 62.9424L93.1788 63.0716ZM87.0632 61.3243L87.07 61.19L87.0263 61.4535L87.0632 61.3243ZM93.7837 61.6603L93.7769 61.7946L93.8878 61.8001L93.914 61.6921L93.7837 61.6603ZM94.0861 60.4171L94.2165 60.4488L94.242 60.3435L94.1446 60.2962L94.0861 60.4171ZM88.1385 57.5273L88.1634 57.3951L88.08 57.6482L88.1385 57.5273ZM94.2877 58.6697L94.2628 58.8019L94.4019 58.8276L94.4208 58.688L94.2877 58.6697ZM94.5229 56.956L94.656 56.9743L94.6741 56.8412L94.5411 56.8229L94.5229 56.956ZM86.9624 55.9144L86.9806 55.7812L86.8374 55.7614L86.828 55.9061L86.9624 55.9144ZM86.828 58.0985L86.6936 58.0902L86.6882 58.1796L86.7689 58.2191L86.828 58.0985ZM91.3307 60.3162L91.3233 60.4505L91.3899 60.1957L91.3307 60.3162ZM37.1533 8.15328C38.4939 7.53278 42.1569 6.33904 46.0276 6.55259L46.0424 6.28418C42.1174 6.06763 38.4103 7.27532 37.0404 7.90933L37.1533 8.15328ZM37.4965 9.143L37.2277 8.00052L36.966 8.06208L37.2348 9.20455L37.4965 9.143ZM41.9284 7.77667C41.8995 7.76222 41.8692 7.75691 41.8477 7.75429C41.8239 7.75146 41.7981 7.75066 41.7718 7.75099C41.7191 7.75167 41.6544 7.75711 41.5815 7.76598C41.435 7.78379 41.2437 7.81679 41.025 7.86067C40.5868 7.94851 40.0294 8.08157 39.4812 8.22915C38.9335 8.3766 38.3917 8.5395 37.9854 8.68728C37.7831 8.76094 37.6099 8.83245 37.4854 8.89804C37.4239 8.9305 37.3684 8.9645 37.3264 8.99999C37.3054 9.01779 37.2837 9.03937 37.2664 9.06497C37.2493 9.09037 37.2312 9.12761 37.2312 9.17378H37.5001C37.5001 9.19891 37.4903 9.21376 37.4892 9.21538C37.488 9.21719 37.4901 9.21369 37.5001 9.20516C37.5203 9.18809 37.556 9.16464 37.6107 9.13581C37.7189 9.07882 37.8786 9.01222 38.0774 8.93991C38.4734 8.79582 39.0069 8.63527 39.5511 8.4887C40.0951 8.34226 40.6466 8.21067 41.0778 8.12425C41.2937 8.08097 41.4773 8.04938 41.6139 8.03285C41.6825 8.02452 41.7363 8.02028 41.7751 8.01981C41.7946 8.01954 41.8078 8.02028 41.8159 8.02122C41.8261 8.0225 41.8204 8.02317 41.8083 8.01712L41.9284 7.77667ZM41.907 10.6466C42.2159 10.554 42.3845 10.315 42.4611 10.0351C42.5364 9.75986 42.5275 9.43298 42.48 9.12391C42.4322 8.81289 42.3432 8.50798 42.2483 8.27068C42.2009 8.1522 42.1509 8.0477 42.1021 7.96645C42.0778 7.92593 42.0523 7.8889 42.0261 7.85812C42.0016 7.82922 41.969 7.79696 41.9284 7.77667L41.8083 8.01712C41.8013 8.01363 41.806 8.01417 41.8213 8.03218C41.835 8.04831 41.852 8.0723 41.8716 8.10496C41.9108 8.17008 41.9548 8.2606 41.9987 8.37048C42.0865 8.59004 42.1698 8.87519 42.2143 9.16484C42.2592 9.45637 42.263 9.74064 42.2018 9.96417C42.1419 10.1831 42.0249 10.3306 41.8297 10.3891L41.907 10.6466ZM39.9394 9.58023C40.081 9.81034 40.3445 10.1375 40.6814 10.3778C41.018 10.6179 41.448 10.7843 41.907 10.6466L41.8297 10.3891C41.4823 10.4933 41.1394 10.3742 40.8375 10.1589C40.536 9.94394 40.2955 9.64609 40.1683 9.43937L39.9394 9.58023ZM39.0751 10.7122L40.1503 9.60335L39.9573 9.41625L38.8821 10.5251L39.0751 10.7122ZM43.973 14.8187L39.0671 10.5176L38.89 10.7197L43.7959 15.0208L43.973 14.8187ZM45.0368 13.6783L43.7935 14.8208L43.9754 15.0187L45.2187 13.8763L45.0368 13.6783ZM42.424 11.8334L45.045 13.8831L45.2105 13.6714L42.5896 11.6217L42.424 11.8334ZM43.6522 10.7252C43.6171 10.8906 43.516 11.1365 43.332 11.3255C43.1528 11.5097 42.8939 11.642 42.524 11.5942L42.4896 11.8609C42.953 11.9206 43.2934 11.7505 43.5247 11.513C43.7511 11.2803 43.8718 10.9851 43.9151 10.781L43.6522 10.7252ZM46.539 10.6187H43.7837V10.8875H46.539V10.6187ZM46.8078 14.4444L46.6734 10.7482L46.4047 10.758L46.5391 14.4542L46.8078 14.4444ZM48.1856 14.3149H46.6735V14.5837H48.1856V14.3149ZM47.6146 7.26658L48.0514 14.4574L48.3197 14.4412L47.8829 7.25032L47.6146 7.26658ZM54.911 7.39293L47.7538 7.12411L47.7437 7.39279L54.9009 7.66161L54.911 7.39293ZM54.7207 10.819C54.7945 10.6878 54.8462 10.4657 54.8857 10.2144C54.9262 9.95657 54.9568 9.64656 54.9796 9.32438C55.0252 8.67976 55.0404 7.97754 55.0404 7.52727H54.7716C54.7716 7.9731 54.7565 8.66874 54.7114 9.30543C54.6888 9.62391 54.6589 9.92546 54.6201 10.1728C54.5802 10.4266 54.5336 10.6033 54.4864 10.6871L54.7207 10.819ZM51.5123 10.6248C51.5386 11.2039 51.7278 11.5748 52.0383 11.7654C52.342 11.9519 52.7238 11.9413 53.0828 11.8493C53.4453 11.7565 53.8096 11.5747 54.1018 11.3832C54.2484 11.2871 54.379 11.1871 54.4839 11.0924C54.5867 10.9995 54.6723 10.905 54.7207 10.819L54.4864 10.6871C54.4592 10.7355 54.3989 10.8069 54.3037 10.8929C54.2107 10.9769 54.0914 11.0686 53.9544 11.1583C53.6796 11.3385 53.3425 11.5054 53.0161 11.589C52.6863 11.6734 52.3919 11.6671 52.1789 11.5363C51.9728 11.4099 51.8049 11.1423 51.7808 10.6126L51.5123 10.6248ZM54.0252 9.49038C53.6132 9.28433 52.9821 9.07794 52.4513 9.16551C52.1803 9.2102 51.9282 9.33305 51.7523 9.57747C51.5782 9.81941 51.4913 10.163 51.5123 10.6248L51.7808 10.6126C51.7615 10.1873 51.8435 9.91087 51.9705 9.73446C52.0957 9.56054 52.2771 9.46665 52.495 9.4307C52.9421 9.35697 53.5106 9.53365 53.905 9.73083L54.0252 9.49038ZM53.8307 8.30012V9.6106H54.0995V8.30012H53.8307ZM50.9982 8.42176C51.4249 8.22089 51.9974 8.17492 52.5531 8.20583C53.1056 8.23661 53.6232 8.34226 53.9282 8.42935L54.002 8.17089C53.6798 8.07882 53.1423 7.96941 52.568 7.93742C51.9969 7.90563 51.3709 7.94925 50.8837 8.17848L50.9982 8.42176ZM50.0586 11.68C49.8334 11.0849 49.8011 10.391 49.962 9.78365C50.1229 9.17619 50.4724 8.66914 50.9982 8.42176L50.8837 8.17848C50.2669 8.46874 49.8772 9.05375 49.7021 9.71477C49.527 10.3759 49.5619 11.1269 49.8071 11.7751L50.0586 11.68ZM54.1409 12.1681C53.2059 13.0642 52.3384 13.1517 51.6347 12.9212C50.9175 12.6863 50.348 12.1134 50.0451 11.6536L49.8206 11.8015C50.145 12.2937 50.7583 12.9171 51.5509 13.1767C52.3571 13.4407 53.3265 13.321 54.3269 12.3622L54.1409 12.1681ZM54.2001 14.8277L54.3681 12.274L54.0998 12.2564L53.9318 14.8101L54.2001 14.8277ZM55.5987 14.9214L54.0866 14.6861L54.0453 14.9517L55.5574 15.1869L55.5987 14.9214ZM56.3519 7.74589L55.4446 15.0376L55.7114 15.0708L56.6187 7.77909L56.3519 7.74589ZM58.921 8.17532C58.469 7.99454 57.3451 7.62808 56.4853 7.62808V7.89689C57.2921 7.89689 58.377 8.24723 58.8211 8.42492L58.921 8.17532ZM57.5239 15.0829L59.0023 8.32888L58.7397 8.27136L57.2612 15.0254L57.5239 15.0829ZM59.1418 15.3949L57.4281 14.9245L57.357 15.1838L59.0707 15.6542L59.1418 15.3949ZM60.2848 8.81188L58.9743 15.4987L59.2382 15.5505L60.5487 8.86363L60.2848 8.81188ZM61.9751 9.16652C61.8368 9.0643 61.5972 8.92196 61.3177 8.8184C61.0397 8.71544 60.7078 8.64548 60.3916 8.7057L60.4419 8.96981C60.6902 8.9225 60.9687 8.97579 61.2244 9.07048C61.4786 9.16464 61.696 9.29447 61.8153 9.38265L61.9751 9.16652ZM61.7608 7.76249V9.27458H62.0296V7.76249H61.7608ZM47.3447 6.25039C49.2011 6.26157 52.156 6.35722 54.9849 6.60773C56.3993 6.73298 57.7804 6.89683 58.976 7.10771C60.1743 7.31914 61.1763 7.5762 61.8385 7.88433L61.9519 7.64064C61.2566 7.31706 60.2259 7.05523 59.0227 6.843C57.8167 6.63025 56.4273 6.4656 55.0085 6.33996C52.1709 6.08867 49.2085 5.99279 47.3463 5.98157L47.3447 6.25039ZM42.9601 2.75968L47.2612 6.2207L47.4298 6.01126L43.1287 2.55024L42.9601 2.75968ZM41.997 3.89247L43.1394 2.75L42.9494 2.55992L41.8069 3.70239L41.997 3.89247ZM46.107 6.30488L41.9739 3.68392L41.83 3.91094L45.963 6.53189L46.107 6.30488ZM7.03951 38.9317C8.00947 35.2047 11.3499 26.4853 17.1735 20.5851L16.9821 20.3963C11.1126 26.3431 7.75557 35.113 6.77936 38.864L7.03951 38.9317ZM6.97506 38.8445C6.99321 38.8445 7.01216 38.8527 7.0254 38.8688C7.03924 38.8857 7.04529 38.9095 7.03951 38.9317L6.77936 38.864C6.74388 39.0002 6.85235 39.1133 6.97506 39.1133V38.8445ZM8.40705 38.8445H6.97506V39.1133H8.40705V38.8445ZM8.35053 38.92C8.34287 38.9021 8.34617 38.8853 8.35282 38.8739C8.36008 38.8615 8.37856 38.8445 8.40705 38.8445V39.1133C8.48965 39.1133 8.55235 39.0652 8.58494 39.0095C8.61693 38.9547 8.62668 38.8821 8.59778 38.8144L8.35053 38.92ZM9.56895 34.2921C9.27063 34.8939 8.86942 35.808 8.58985 36.6851C8.45006 37.1234 8.33944 37.5564 8.2881 37.9386C8.23736 38.3158 8.24133 38.6642 8.35053 38.92L8.59778 38.8144C8.51807 38.6277 8.50537 38.3399 8.5545 37.9744C8.60295 37.6137 8.70873 37.1972 8.84596 36.7667C9.12029 35.9061 9.51565 35.0049 9.80981 34.4114L9.56895 34.2921ZM9.7844 34.1845C9.69885 34.169 9.60974 34.2098 9.56895 34.2921L9.80981 34.4114C9.79529 34.4408 9.76384 34.454 9.73635 34.449L9.7844 34.1845ZM11.8747 35.7079C11.698 35.2615 11.0623 34.4169 9.7844 34.1845L9.73635 34.449C10.9118 34.6627 11.478 35.4357 11.6247 35.8068L11.8747 35.7079ZM11.8595 35.8835C11.8897 35.8334 11.8987 35.7685 11.8747 35.7079L11.6247 35.8068C11.6155 35.7835 11.6197 35.7608 11.6292 35.745L11.8595 35.8835ZM9.97903 37.0849C10.4125 37.1655 11.2001 36.9802 11.8595 35.8835L11.6292 35.745C11.0144 36.7673 10.3284 36.8765 10.0282 36.8206L9.97903 37.0849ZM10.0471 37.0234C10.0471 37.0471 10.0349 37.0652 10.0224 37.0746C10.0107 37.0835 9.99529 37.0879 9.97903 37.0849L10.0282 36.8206C9.91243 36.799 9.77829 36.8811 9.77829 37.0234H10.0471ZM10.0471 38.4192V37.0234H9.77829V38.4192H10.0471ZM9.96135 38.3546C10.0043 38.3423 10.0471 38.3745 10.0471 38.4192H9.77829C9.77829 38.5533 9.90672 38.65 10.0355 38.613L9.96135 38.3546ZM16.3794 36.5115L9.96135 38.3546L10.0355 38.613L16.4536 36.7699L16.3794 36.5115ZM16.3307 36.5761C16.3307 36.5462 16.3505 36.5198 16.3794 36.5115L16.4536 36.7699C16.54 36.7451 16.5995 36.666 16.5995 36.5761H16.3307ZM16.3307 34.9342V36.5761H16.5995V34.9342H16.3307ZM16.4159 34.999C16.373 35.0108 16.3307 34.9786 16.3307 34.9342H16.5995C16.5995 34.8009 16.4725 34.7043 16.3441 34.7399L16.4159 34.999ZM13.2086 35.8881L16.4159 34.999L16.3441 34.7399L13.1368 35.6291L13.2086 35.8881ZM12.954 35.6631C12.9353 35.8 13.0612 35.9289 13.2086 35.8881L13.1368 35.6291C13.1621 35.622 13.186 35.6308 13.2004 35.6439C13.2143 35.6566 13.2235 35.6769 13.2204 35.6994L12.954 35.6631ZM10.5702 33.0011C11.0636 33.0282 11.7337 33.1934 12.241 33.6005C12.7395 34.0005 13.0933 34.6431 12.954 35.6631L13.2204 35.6994C13.3722 34.5875 12.9826 33.8509 12.4092 33.3908C11.8446 32.9378 11.1142 32.7617 10.5849 32.7327L10.5702 33.0011ZM10.3896 32.7293C10.3421 32.86 10.437 32.9938 10.5702 33.0011L10.5849 32.7327C10.6261 32.7349 10.6584 32.7769 10.6423 32.8212L10.3896 32.7293ZM11.0038 31.0406L10.3896 32.7293L10.6423 32.8212L11.2564 31.1324L11.0038 31.0406ZM11.2845 30.9297C11.1766 30.8749 11.0451 30.9268 11.0038 31.0406L11.2564 31.1324C11.2426 31.1703 11.1987 31.1876 11.1628 31.1693L11.2845 30.9297ZM17.6412 34.1574L11.2845 30.9297L11.1628 31.1693L17.5195 34.3971L17.6412 34.1574ZM17.5504 34.1879C17.5669 34.1542 17.6077 34.1404 17.6412 34.1574L17.5195 34.3971C17.6198 34.4481 17.7425 34.407 17.7919 34.3058L17.5504 34.1879ZM18.1978 32.8622L17.5504 34.1879L17.7919 34.3058L18.4393 32.9802L18.1978 32.8622ZM18.2262 32.9508C18.1945 32.9337 18.182 32.8946 18.1978 32.8622L18.4393 32.9802C18.4868 32.883 18.4492 32.7658 18.3542 32.7144L18.2262 32.9508ZM12.2523 29.7164L18.2262 32.9508L18.3542 32.7144L12.3803 29.48L12.2523 29.7164ZM12.1595 29.4683C12.1242 29.5625 12.1638 29.6684 12.2523 29.7164L12.3803 29.48C12.4098 29.496 12.423 29.5312 12.4113 29.5627L12.1595 29.4683ZM12.9103 27.4663L12.1595 29.4683L12.4113 29.5627L13.162 27.5607L12.9103 27.4663ZM13.2374 27.3899C13.1384 27.2996 12.9635 27.3244 12.9103 27.4663L13.162 27.5607C13.1525 27.5859 13.1311 27.6001 13.1125 27.604C13.0945 27.6078 13.0731 27.6038 13.0564 27.5886L13.2374 27.3899ZM19.1337 26.7504C18.8546 27.5537 18.2404 28.498 17.2837 28.8535C16.3403 29.2042 15.0066 29.0014 13.2374 27.3899L13.0564 27.5886C14.8631 29.2343 16.3007 29.5058 17.3774 29.1056C18.4409 28.7103 19.0957 27.6786 19.3876 26.8386L19.1337 26.7504ZM19.4278 26.6408C19.3216 26.581 19.1774 26.6249 19.1337 26.7504L19.3876 26.8386C19.3726 26.8817 19.3261 26.892 19.296 26.875L19.4278 26.6408ZM23.3515 25.5756C22.9341 25.9451 22.2792 26.4027 21.561 26.6703C20.8416 26.9382 20.0807 27.0082 19.4278 26.6408L19.296 26.875C20.0464 27.2974 20.8988 27.2038 21.6548 26.9222C22.412 26.6401 23.0948 26.1619 23.5298 25.7769L23.3515 25.5756ZM23.6896 25.7275C23.6896 25.5516 23.4816 25.4605 23.3515 25.5756L23.5298 25.7769C23.488 25.8138 23.4208 25.7855 23.4208 25.7275H23.6896ZM23.6896 28.0582V25.7275H23.4208V28.0582H23.6896ZM23.6224 27.991C23.6595 27.991 23.6896 28.0211 23.6896 28.0582H23.4208C23.4208 28.1695 23.511 28.2598 23.6224 28.2598V27.991ZM24.7312 27.991H23.6224V28.2598H24.7312V27.991ZM24.664 28.0582C24.664 28.0211 24.6941 27.991 24.7312 27.991V28.2598C24.8426 28.2598 24.9329 28.1695 24.9329 28.0582H24.664ZM24.664 25.202V28.0582H24.9329V25.202H24.664ZM24.8657 25.0004C24.7543 25.0004 24.664 25.0906 24.664 25.202H24.9329C24.9329 25.2391 24.9028 25.2692 24.8657 25.2692V25.0004ZM27.5538 25.0004H24.8657V25.2692H27.5538V25.0004ZM27.4866 25.0676C27.4866 25.0305 27.5167 25.0004 27.5538 25.0004V25.2692C27.6652 25.2692 27.7554 25.1789 27.7554 25.0676H27.4866ZM27.4866 24.3619V25.0676H27.7554V24.3619H27.4866ZM27.5538 24.4291C27.5167 24.4291 27.4866 24.399 27.4866 24.3619H27.7554C27.7554 24.2506 27.6652 24.1603 27.5538 24.1603V24.4291ZM24.5632 24.4291H27.5538V24.1603H24.5632V24.4291ZM24.3616 24.2275C24.3616 24.3389 24.4519 24.4291 24.5632 24.4291V24.1603C24.6003 24.1603 24.6304 24.1904 24.6304 24.2275H24.3616ZM24.3616 22.3794V24.2275H24.6304V22.3794H24.3616ZM24.4288 22.4466C24.3917 22.4466 24.3616 22.4165 24.3616 22.3794H24.6304C24.6304 22.2681 24.5402 22.1778 24.4288 22.1778V22.4466ZM23.3071 22.4466H24.4288V22.1778H23.3071V22.4466ZM23.3715 22.3953C23.364 22.4265 23.3358 22.4466 23.3071 22.4466V22.1778C23.215 22.1778 23.1325 22.2396 23.1101 22.3325L23.3715 22.3953ZM19.6041 25.2582C20.2716 25.5462 20.8448 25.5439 21.3286 25.358C21.8083 25.1737 22.1847 24.8148 22.4749 24.4162C23.0534 23.6213 23.3148 22.6312 23.3715 22.3953L23.1101 22.3325C23.0552 22.561 22.8035 23.5078 22.2575 24.258C21.9853 24.632 21.6467 24.9478 21.2322 25.107C20.8218 25.2648 20.3216 25.275 19.7105 25.0114L19.6041 25.2582ZM18.9227 23.8902C18.8175 24.2807 18.9083 24.5956 19.0689 24.8267C19.2261 25.0529 19.4472 25.1955 19.6074 25.2596L19.7073 25.01C19.5874 24.9621 19.412 24.8493 19.2897 24.6734C19.1709 24.5024 19.0993 24.2685 19.1823 23.9601L18.9227 23.8902ZM21.6337 20.7462C21.2089 21.1335 20.5841 21.7349 20.0414 22.3266C19.7702 22.6223 19.5178 22.9174 19.3209 23.1833C19.1271 23.4448 18.9759 23.6923 18.9227 23.8902L19.1823 23.9601C19.2212 23.8153 19.3445 23.6029 19.5369 23.3433C19.7261 23.0879 19.9716 22.8005 20.2395 22.5082C20.7753 21.9241 21.3941 21.3284 21.8148 20.9449L21.6337 20.7462ZM21.6294 20.8423C21.6051 20.8163 21.6046 20.7727 21.6337 20.7462L21.8148 20.9449C21.8994 20.8678 21.9012 20.739 21.8254 20.6583L21.6294 20.8423ZM20.1791 19.2973L21.6294 20.8423L21.8254 20.6583L20.3751 19.1133L20.1791 19.2973ZM20.196 19.0052C20.1077 19.0797 20.1 19.213 20.1791 19.2973L20.3751 19.1133C20.4014 19.1414 20.3989 19.1858 20.3694 19.2107L20.196 19.0052ZM22.2405 17.2802L20.196 19.0052L20.3694 19.2107L22.4138 17.4857L22.2405 17.2802ZM22.526 17.306C22.4546 17.2194 22.3263 17.2078 22.2405 17.2802L22.4138 17.4857C22.3853 17.5098 22.3425 17.5059 22.3187 17.4771L22.526 17.306ZM26.8752 22.5777L22.526 17.306L22.3187 17.4771L26.6678 22.7488L26.8752 22.5777ZM26.7802 22.5689C26.8088 22.5449 26.8514 22.5489 26.8752 22.5777L26.6678 22.7488C26.739 22.8351 26.867 22.8469 26.9528 22.775L26.7802 22.5689ZM27.9232 21.6113L26.7802 22.5689L26.9528 22.775L28.0958 21.8173L27.9232 21.6113ZM27.9122 21.7025C27.8912 21.674 27.896 21.634 27.9232 21.6113L28.0958 21.8173C28.1773 21.749 28.1918 21.6291 28.1288 21.5433L27.9122 21.7025ZM23.8887 16.2279L27.9122 21.7025L28.1288 21.5433L24.1053 16.0688L23.8887 16.2279ZM23.927 15.9498C23.8411 16.0169 23.8242 16.1402 23.8887 16.228L24.1053 16.0688C24.1269 16.098 24.1212 16.1392 24.0926 16.1615L23.927 15.9498ZM26.4643 13.9654L23.9269 15.9498L24.0926 16.1615L26.6299 14.1772L26.4643 13.9654ZM26.6747 13.9421C26.6083 13.9111 26.5259 13.9173 26.4643 13.9654L26.6299 14.1772C26.6079 14.1943 26.5816 14.1954 26.5607 14.1856L26.6747 13.9421ZM26.9494 16.8813C27.1782 16.7535 27.422 16.5811 27.6235 16.3753C27.8239 16.1703 27.9903 15.924 28.0483 15.6484C28.1077 15.3667 28.0508 15.0687 27.8307 14.7759C27.614 14.4879 27.2421 14.2078 26.6747 13.9421L26.5607 14.1856C27.1075 14.4416 27.436 14.6983 27.6159 14.9375C27.7922 15.172 27.8278 15.3916 27.7853 15.5929C27.7416 15.8005 27.6117 16.0029 27.4313 16.1873C27.2518 16.3708 27.0301 16.5283 26.8183 16.6466L26.9494 16.8813ZM26.97 16.7836C26.9936 16.8142 26.9867 16.8605 26.9494 16.8813L26.8183 16.6466C26.7087 16.7078 26.6829 16.8517 26.7572 16.9479L26.97 16.7836ZM32.4319 16.7854C31.9237 17.3744 31.0685 18.0456 30.0898 18.2336C29.6032 18.3271 29.0859 18.3013 28.5614 18.0868C28.0363 17.8721 27.4961 17.465 26.97 16.7836L26.7572 16.9479C27.3062 17.6589 27.8824 18.0996 28.4596 18.3356C29.0375 18.5719 29.6084 18.5998 30.1405 18.4976C31.1995 18.2942 32.1042 17.5767 32.6353 16.961L32.4319 16.7854ZM32.7582 16.8131C32.6872 16.6956 32.5221 16.6808 32.4319 16.7854L32.6353 16.961C32.6056 16.9955 32.5511 16.9902 32.5281 16.9521L32.7582 16.8131ZM33.6509 18.2907L32.7582 16.8131L32.5281 16.9521L33.4208 18.4297L33.6509 18.2907ZM33.5622 18.2659C33.5937 18.2494 33.6325 18.2603 33.6509 18.2907L33.4208 18.4297C33.476 18.521 33.5927 18.5535 33.6871 18.504L33.5622 18.2659ZM34.7927 17.6199L33.5622 18.2659L33.6871 18.504L34.9177 17.8579L34.7927 17.6199ZM34.764 17.7097C34.7468 17.674 34.7638 17.6351 34.7927 17.6199L34.9177 17.8579C35.0107 17.8091 35.0548 17.6942 35.0063 17.5932L34.764 17.7097ZM31.7877 11.3243C31.7877 11.3427 31.7913 11.3582 31.7927 11.3644C31.7948 11.3729 31.7972 11.3814 31.7997 11.389C31.8046 11.4044 31.8112 11.4226 31.8189 11.4427C31.8344 11.4829 31.8567 11.5367 31.8847 11.6018C31.9408 11.7322 32.0217 11.9127 32.1214 12.131C32.321 12.5678 32.5974 13.1591 32.905 13.8111C33.5202 15.1153 34.2612 16.6642 34.764 17.7097L35.0063 17.5932C34.5036 16.548 33.763 14.9998 33.1481 13.6964C32.8407 13.0447 32.5648 12.4546 32.3659 12.0193C32.2665 11.8015 32.1866 11.6232 32.1317 11.4955C32.1042 11.4316 32.0834 11.3815 32.0698 11.3461C32.0629 11.3281 32.0584 11.3156 32.0558 11.3075C32.0545 11.3034 32.0542 11.302 32.0544 11.3025C32.0544 11.3028 32.0548 11.3046 32.0552 11.3074C32.0556 11.3098 32.0565 11.3159 32.0565 11.3243H31.7877ZM32.7323 10.9624C32.5708 10.9772 32.3584 11.0042 32.1841 11.0442C32.0981 11.0639 32.0138 11.0884 31.9482 11.1196C31.9158 11.135 31.8804 11.1556 31.8512 11.1837C31.8218 11.2119 31.7877 11.2592 31.7877 11.3243H32.0565C32.0565 11.3587 32.0382 11.3768 32.0376 11.3773C32.0373 11.3776 32.0438 11.3718 32.0636 11.3624C32.1026 11.3439 32.1643 11.3245 32.2442 11.3062C32.4017 11.2701 32.6007 11.2444 32.757 11.23L32.7323 10.9624ZM32.6755 11.0487C32.6622 11.007 32.6914 10.9661 32.7323 10.9624L32.757 11.23C32.8844 11.2183 32.9712 11.0917 32.9317 10.9673L32.6755 11.0487ZM32.2542 9.72478L32.6755 11.0487L32.9317 10.9673L32.5104 9.64326L32.2542 9.72478ZM32.3466 9.76537C32.3116 9.78211 32.2672 9.76558 32.2542 9.72478L32.5104 9.64326C32.4727 9.52485 32.3393 9.47095 32.2308 9.52283L32.3466 9.76537ZM22.5028 15.6945C23.4807 14.8113 26.7626 12.4325 32.3466 9.76537L32.2308 9.52283C26.6325 12.1967 23.3261 14.5887 22.3226 15.4951L22.5028 15.6945ZM22.2742 15.7222C22.3431 15.758 22.4352 15.7556 22.5028 15.6945L22.3226 15.4951C22.348 15.4721 22.3797 15.474 22.3983 15.4837L22.2742 15.7222ZM14.9837 18.0728C15.2456 16.8449 15.9532 15.6806 17.1378 15.1093C18.3192 14.5396 20.0097 14.5431 22.2742 15.7222L22.3983 15.4837C20.0872 14.2804 18.3038 14.2486 17.021 14.8672C15.7415 15.4843 14.9948 16.7322 14.7208 18.0167L14.9837 18.0728ZM17.0236 20.2359C16.5423 20.2411 15.9316 20.1359 15.4948 19.8146C15.2789 19.6558 15.1058 19.4446 15.0085 19.1656C14.911 18.8858 14.8865 18.5284 14.9837 18.0728L14.7208 18.0167C14.6157 18.5095 14.6376 18.9183 14.7547 19.2541C14.872 19.5906 15.0815 19.8443 15.3355 20.0311C15.8384 20.4011 16.5163 20.5102 17.0265 20.5048L17.0236 20.2359ZM17.1735 20.5851C17.3063 20.4505 17.1987 20.2341 17.0236 20.2359L17.0265 20.5048C16.9969 20.5051 16.9761 20.4859 16.9681 20.468C16.96 20.4496 16.9597 20.4189 16.9821 20.3963L17.1735 20.5851ZM76.7884 14.9406C76.5236 14.5826 75.9275 14.1227 75.1587 13.6191C74.3838 13.1115 73.4147 12.5478 72.3858 11.9835C70.3267 10.8547 68.0189 9.71934 66.5221 9.01847L66.4081 9.26188C67.9019 9.96114 70.2044 11.0939 72.2568 12.2192C73.283 12.782 74.2447 13.3419 75.0115 13.844C75.7843 14.3503 76.3394 14.7865 76.572 15.1005L76.7884 14.9406ZM75.1069 10.3218L76.5518 15.0597L76.8085 14.9814L75.3636 10.2435L75.1069 10.3218ZM77.285 10.1482H75.2353V10.4171H77.285V10.1482ZM77.9564 15.8814L77.4187 10.2698L77.1513 10.2955L77.6889 15.907L77.9564 15.8814ZM93.242 38.88C90.3025 26.7694 81.7259 18.4513 77.8993 15.7839L77.746 16.0045C81.5357 18.6462 90.0606 26.9142 92.9813 38.9434L93.242 38.88ZM91.7501 39.2131L93.1278 39.0451L93.0955 38.7783L91.7178 38.9463L91.7501 39.2131ZM91.3112 38.5349L91.6136 39.1398L91.8542 39.0196L91.5518 38.4148L91.3112 38.5349ZM84.7145 40.5529L91.4685 38.604L91.3946 38.3457L84.6405 40.2946L84.7145 40.5529ZM84.0122 38.7847L84.5498 40.4648L84.8052 40.3828L84.2675 38.7027L84.0122 38.7847ZM90.7165 36.3985L84.0968 38.6162L84.1829 38.8711L90.8025 36.6533L90.7165 36.3985ZM89.947 34.5551C90.2561 34.7573 90.4396 35.1144 90.5384 35.5001C90.6372 35.8838 90.6466 36.2748 90.6257 36.514L90.8932 36.5378C90.9167 36.273 90.9067 35.8509 90.7991 35.4331C90.6923 35.0175 90.4833 34.5849 90.0935 34.3301L89.947 34.5551ZM83.4201 37.4223L90.0733 34.5661L89.9671 34.3191L83.3139 37.1753L83.4201 37.4223ZM82.8986 35.4747L83.2346 37.3228L83.4994 37.2747L83.1634 35.4266L82.8986 35.4747ZM86.5706 33.682L82.9752 35.3285L83.0868 35.5728L86.6822 33.9263L86.5706 33.682ZM85.3966 31.5779L86.5054 33.8628L86.7474 33.7455L85.6385 31.4605L85.3966 31.5779ZM84.2037 32.3769L85.5814 31.6376L85.4537 31.4008L84.076 32.14L84.2037 32.3769ZM84.8946 28.4585C84.3186 28.9334 84.0592 29.6818 83.9604 30.4013C83.8616 31.1236 83.9214 31.8409 84.0081 32.2841L84.2716 32.2328C84.1903 31.8136 84.1325 31.1263 84.2265 30.4378C84.3213 29.7466 84.5659 29.0781 85.0653 28.6659L84.8946 28.4585ZM88.0834 33.1265L85.0928 28.4894L84.867 28.6351L87.8576 33.2722L88.0834 33.1265ZM88.9772 32.4453L87.9019 33.0837L88.039 33.3149L89.1143 32.6765L88.9772 32.4453ZM85.4356 26.4173C86.4067 27.1653 87.1909 28.3455 87.7769 29.5283C88.3623 30.7091 88.7433 31.879 88.9154 32.5923L89.1761 32.5295C89.0007 31.7978 88.6123 30.6089 88.0175 29.4089C87.4241 28.211 86.6177 26.9887 85.5995 26.2044L85.4356 26.4173ZM79.8132 30.3535L85.5928 26.422L85.4416 26.1997L79.662 30.1312L79.8132 30.3535ZM78.8105 28.6203L79.617 30.3005L79.8589 30.1842L79.0525 28.5041L78.8105 28.6203ZM82.3119 25.8672L78.8509 28.4546L79.0122 28.6699L82.4732 26.0825L82.3119 25.8672ZM81.2837 24.9213L82.2917 26.0638L82.4933 25.8859L81.4853 24.7435L81.2837 24.9213ZM77.8737 26.5701C78.9241 26.9902 79.7581 26.7996 80.3683 26.3796C80.9712 25.965 81.3475 25.3341 81.5108 24.8778L81.2581 24.7869C81.1083 25.2044 80.7615 25.783 80.2165 26.1581C79.6788 26.5278 78.9389 26.7068 77.9732 26.3205L77.8737 26.5701ZM77.4423 19.7511C77.4255 19.7763 77.4046 19.8218 77.3845 19.8698C77.3616 19.923 77.3341 19.9939 77.3018 20.0797C77.238 20.2515 77.1566 20.4859 77.072 20.764C76.9019 21.3197 76.7144 22.0537 76.6103 22.8148C76.5061 23.574 76.4839 24.3705 76.6533 25.0467C76.8233 25.7263 77.1916 26.2972 77.8737 26.5701L77.9732 26.3205C77.3952 26.0893 77.0706 25.6059 76.914 24.9814C76.7568 24.3533 76.7743 23.5958 76.8764 22.8513C76.9779 22.1087 77.162 21.3894 77.3287 20.8426C77.4127 20.5694 77.4913 20.3402 77.5538 20.1736C77.5847 20.0902 77.6116 20.0232 77.6318 19.9744C77.6425 19.9501 77.6506 19.931 77.6573 19.9172C77.6647 19.9013 77.6674 19.8977 77.6654 19.9002L77.4423 19.7511ZM79.4355 19.6912H77.5538V19.9601H79.4355V19.6912ZM78.6419 25.0423C78.2548 24.8992 78.0538 24.621 77.9799 24.2479C77.904 23.8654 77.9624 23.3836 78.1116 22.8588C78.4087 21.8115 79.0471 20.6504 79.5471 19.9002L79.324 19.7511C78.8159 20.513 78.1607 21.7007 77.8529 22.7855C77.6997 23.3267 77.6278 23.8567 77.7158 24.3002C77.8058 24.7531 78.0626 25.115 78.5491 25.2945L78.6419 25.0423ZM80.5142 21.9796C80.1526 23.5453 79.742 24.3732 79.3898 24.7768C79.2144 24.9773 79.0606 25.0657 78.9416 25.0954C78.8253 25.1246 78.7339 25.0998 78.6708 25.057L78.5202 25.2798C78.6472 25.3658 78.8173 25.4037 79.0068 25.3562C79.1943 25.3093 79.3932 25.1816 79.5921 24.9535C79.9886 24.4996 80.412 23.6195 80.7763 22.04L80.5142 21.9796ZM83.4718 25.3195L80.7501 21.9257L80.5404 22.0939L83.2622 25.4877L83.4718 25.3195ZM84.494 24.3566L83.2843 25.2975L83.4497 25.5097L84.6593 24.5689L84.494 24.3566ZM77.486 17.4217C78.7857 18.1773 80.2192 19.5177 81.488 20.8945C82.7548 22.2694 83.8482 23.6712 84.4671 24.5407L84.6862 24.3848C84.0612 23.507 82.9611 22.0963 81.6855 20.7124C80.4127 19.3306 78.9564 17.9659 77.6217 17.1893L77.486 17.4217ZM73.0189 22.8362L77.656 17.3927L77.4517 17.2183L72.8146 22.6619L73.0189 22.8362ZM71.6567 21.9132L72.8327 22.854L73.0007 22.6441L71.8247 21.7032L71.6567 21.9132ZM75.8999 15.9821L71.6325 21.7281L71.8489 21.8883L76.1163 16.1423L75.8999 15.9821ZM73.9806 14.9864C74.2528 15.0101 74.6278 15.199 75.0021 15.4468C75.3704 15.6904 75.7144 15.9747 75.9174 16.1612L76.0989 15.9632C75.8878 15.7689 75.5323 15.4753 75.1506 15.2226C74.7749 14.9742 74.3495 14.7487 74.0034 14.7187L73.9806 14.9864ZM70.1385 20.8746L74.1036 14.9271L73.8804 14.778L69.9154 20.7256L70.1385 20.8746ZM68.6365 19.9335L69.947 20.908L70.1069 20.6923L68.7964 19.7178L68.6365 19.9335ZM69.7131 18.0715L68.6042 19.7516L68.8287 19.8997L69.9376 18.2196L69.7131 18.0715ZM66.3324 13.0842C66.0179 15.0668 66.5204 16.3581 67.3005 17.1598C68.0747 17.9556 69.1049 18.2508 69.82 18.2798L69.8307 18.0113C69.1681 17.9843 68.2091 17.7083 67.4933 16.9724C66.7828 16.2423 66.2941 15.0415 66.5978 13.1263L66.3324 13.0842ZM68.7857 11.6836C68.9187 12.4416 68.8932 12.9367 68.7816 13.2451C68.7265 13.397 68.6519 13.5005 68.5673 13.5701C68.4833 13.6395 68.3818 13.6806 68.2649 13.6971C68.0263 13.7308 67.7299 13.6603 67.4174 13.5229C67.1088 13.3869 66.8008 13.1924 66.5467 12.9984L66.3835 13.2121C66.6503 13.4156 66.9765 13.6224 67.3092 13.7689C67.6392 13.914 67.9907 14.0072 68.3025 13.9633C68.4611 13.941 68.6103 13.883 68.738 13.7777C68.8663 13.6726 68.9658 13.5259 69.0343 13.3365C69.1701 12.9623 69.1862 12.4113 69.0505 11.6371L68.7857 11.6836ZM66.0825 10.8533C67.7313 11.0128 68.6069 11.539 68.8233 11.7554L69.0128 11.5653C68.7366 11.2889 67.7931 10.7487 66.1085 10.5857L66.0825 10.8533ZM66.3343 9.10953L65.9646 10.6888L66.2263 10.7501L66.596 9.17082L66.3343 9.10953ZM49.7649 81.6536C67.0058 81.6536 80.9812 67.6019 80.9812 50.2692H80.7124C80.7124 67.4547 66.856 81.3848 49.7649 81.3848V81.6536ZM18.5485 50.2692C18.5485 67.6019 32.5239 81.6536 49.7649 81.6536V81.3848C32.6737 81.3848 18.8173 67.4547 18.8173 50.2692H18.5485ZM49.7649 18.8848C32.5239 18.8848 18.5485 32.9367 18.5485 50.2692H18.8173C18.8173 33.0839 32.6737 19.1536 49.7649 19.1536V18.8848ZM80.9812 50.2692C80.9812 32.9367 67.0058 18.8848 49.7649 18.8848V19.1536C66.856 19.1536 80.7124 33.0839 80.7124 50.2692H80.9812ZM87.5673 54.5703V50.6052H87.2985V54.5703H87.5673ZM94.9066 55.2095L87.447 54.4366L87.4188 54.7039L94.8784 55.4768L94.9066 55.2095ZM94.8925 50.7357L94.7581 55.3392L95.0269 55.347L95.1614 50.7435L94.8925 50.7357ZM94.0673 50.7383L95.0081 50.8727L95.0458 50.6066L94.1049 50.4722L94.0673 50.7383ZM94.2205 54.0662V50.6052H93.9517V54.0662H94.2205ZM91.6331 54.2007H94.0861V53.9318H91.6331V54.2007ZM91.4987 50.9076V54.0662H91.7675V50.9076H91.4987ZM90.5915 51.0421H91.6331V50.7732H90.5915V51.0421ZM90.6587 53.9348L90.7259 50.9106L90.4571 50.9047L90.3899 53.9289L90.6587 53.9348ZM88.6042 53.999L90.5196 54.0662L90.529 53.7975L88.6136 53.7303L88.6042 53.999ZM88.4745 50.6052V53.8646H88.7433V50.6052H88.4745ZM87.4329 50.7396H88.6089V50.4708H87.4329V50.7396ZM4.56996 50.8068H12.1976V50.538H4.56996V50.8068ZM4.70436 52.5205V50.6724H4.43555V52.5205H4.70436ZM9.60134 52.0504L4.56102 52.3864L4.57889 52.6547L9.61922 52.3187L9.60134 52.0504ZM5.06999 54.7561L9.67352 52.3031L9.54704 52.0659L4.94358 54.5189L5.06999 54.7561ZM5.14119 56.5192V54.6375H4.87237V56.5192H5.14119ZM12.3131 55.3445L4.98786 56.3861L5.02571 56.6523L12.351 55.6106L12.3131 55.3445ZM12.1976 53.999V55.4775H12.4665V53.999H12.1976ZM7.07264 54.771L12.3482 54.1325L12.3159 53.8656L7.04039 54.504L7.07264 54.771ZM12.1465 52.3963L7.00537 54.5132L7.10766 54.7617L12.2488 52.6448L12.1465 52.3963ZM12.0632 50.6724V52.5205H12.3321V50.6724H12.0632ZM5.3729 57.7624L13.1014 57.964L13.1084 57.6953L5.37992 57.4937L5.3729 57.7624ZM5.51082 59.3082V57.6281H5.242V59.3082H5.51082ZM7.66135 59.1738H5.37641V59.4426H7.66135V59.1738ZM7.79576 61.1563V59.3082H7.52694V61.1563H7.79576ZM6.17365 62.0168L7.71935 61.2775L7.60336 61.0351L6.05766 61.7743L6.17365 62.0168ZM6.81512 63.6697L6.24386 61.8552L5.98745 61.9359L6.55869 63.7505L6.81512 63.6697ZM13.0365 59.7974L6.61845 63.5944L6.7553 63.8257L13.1733 60.0287L13.0365 59.7974ZM12.9705 57.8297V59.913H13.2393V57.8297H12.9705ZM13.328 63.4492L7.38044 65.5998L7.47184 65.8526L13.4194 63.7021L13.328 63.4492ZM12.7425 62.1405L13.2465 63.619L13.5009 63.5323L12.9969 62.0538L12.7425 62.1405ZM13.961 61.5025L12.8185 61.9729L12.9208 62.2214L14.0633 61.751L13.961 61.5025ZM15.8175 65.8789L14.1374 61.5778L13.887 61.6757L15.5671 65.9767L15.8175 65.8789ZM14.6741 66.5535L15.7493 66.0495L15.6352 65.8061L14.5599 66.3101L14.6741 66.5535ZM13.7284 65.1896L14.5012 66.5001L14.7328 66.3636L13.9599 65.0531L13.7284 65.1896ZM8.24879 67.4977L13.8939 65.2462L13.7944 64.9965L8.14919 67.2477L8.24879 67.4977ZM7.3045 65.7833L8.07735 67.4298L8.32063 67.3156L7.54778 65.6691L7.3045 65.7833ZM9.40383 70.1126L15.7546 66.7861L15.6299 66.548L9.2791 69.8747L9.40383 70.1126ZM10.2029 71.5508L9.46364 69.9379L9.21928 70.0494L9.95853 71.6623L10.2029 71.5508ZM16.4683 67.9937L10.0167 71.4883L10.1448 71.7248L16.5964 68.2302L16.4683 67.9937ZM15.5761 66.7346L16.4161 68.1798L16.6485 68.0441L15.8085 66.5995L15.5761 66.7346ZM15.7419 69.7685C13.8865 70.5326 12.2257 72.1267 11.6251 72.8297L11.8294 73.0044C12.416 72.3183 14.0437 70.7584 15.8443 70.0172L15.7419 69.7685ZM19.3837 73.1543C19.6166 72.3122 19.3028 71.2255 18.6455 70.4722C17.981 69.7107 16.9476 69.2719 15.7419 69.7685L15.8442 70.0172C16.9235 69.573 17.839 69.9574 18.443 70.6489C19.0542 71.3492 19.3284 72.3458 19.1245 73.083L19.3837 73.1543ZM13.8267 77.116C14.2488 77.1711 14.7796 77.0427 15.3323 76.8102C15.8889 76.5763 16.4847 76.2296 17.0434 75.8277C17.6021 75.4265 18.1273 74.9675 18.5418 74.5071C18.9538 74.0494 19.2662 73.579 19.3837 73.1543L19.1245 73.083C19.0236 73.448 18.7437 73.8808 18.342 74.327C17.9426 74.7705 17.4325 75.2175 16.8865 75.6093C16.3405 76.0017 15.7623 76.3377 15.228 76.5622C14.6896 76.7887 14.2124 76.8955 13.8616 76.8498L13.8267 77.116ZM11.6138 72.8451C11.1061 73.6429 11.2698 74.6657 11.7361 75.495C12.202 76.323 12.9973 77.0078 13.8267 77.116L13.8616 76.8498C13.1453 76.7564 12.4117 76.1476 11.9704 75.3626C11.5294 74.579 11.4075 73.6697 11.8406 72.989L11.6138 72.8451ZM15.24 78.9009L20.7508 74.3646L20.58 74.1576L15.0692 78.6939L15.24 78.9009ZM16.6262 80.0454L15.2485 78.7013L15.0607 78.8935L16.4384 80.2376L16.6262 80.0454ZM19.6641 76.8868L16.4383 80.0454L16.6263 80.2376L19.8521 77.079L19.6641 76.8868ZM17.8999 81.8391L19.8824 77.034L19.6339 76.9318L17.6513 81.7369L17.8999 81.8391ZM19.3378 82.8586L17.8593 81.6825L17.6919 81.8935L19.1704 83.0696L19.3378 82.8586ZM24.1624 77.4964L19.1557 82.8727L19.3525 83.0555L24.3592 77.6791L24.1624 77.4964ZM23.0008 76.7517L24.1769 77.6926L24.3448 77.4829L23.1687 76.542L23.0008 76.7517ZM19.6171 80.2376L23.1789 76.743L22.9906 76.5508L19.4288 80.0454L19.6171 80.2376ZM21.7886 75.3431L19.4029 80.081L19.6429 80.202L22.0287 75.4641L21.7886 75.3431ZM20.5745 74.3599L21.8177 75.5024L21.9996 75.3048L20.7563 74.1623L20.5745 74.3599ZM25.9296 79.0918L19.814 83.4937L19.971 83.7114L26.0866 79.3095L25.9296 79.0918ZM27.6337 80.2349L26.088 79.0925L25.9282 79.3089L27.4739 80.4513L27.6337 80.2349ZM24.7216 87.7524L27.6786 80.3935L27.4291 80.2927L24.4721 87.6516L24.7216 87.7524ZM23.2062 86.8351L24.5167 87.8095L24.677 87.5945L23.3665 86.62L23.2062 86.8351ZM24.141 84.7511L23.1665 86.6664L23.4062 86.7887L24.3806 84.8734L24.141 84.7511ZM22.479 83.9197L24.1927 84.9278L24.329 84.6966L22.6153 83.6886L22.479 83.9197ZM21.087 85.1845L22.6327 83.9076L22.4615 83.7007L20.9158 84.9775L21.087 85.1845ZM19.785 83.6832L20.8939 85.1617L21.1089 85.0004L20.0001 83.5219L19.785 83.6832ZM25.7544 88.2067L29.4843 81.8559L29.2524 81.7201L25.5226 88.0709L25.7544 88.2067ZM29.7765 90.6126L25.7107 88.0253L25.5663 88.2524L29.6322 90.8398L29.7765 90.6126ZM30.4033 89.5703L29.5968 90.6455L29.8119 90.8068L30.6183 89.7316L30.4033 89.5703ZM27.4864 88.0535L30.4434 89.7672L30.5782 89.5347L27.6212 87.8209L27.4864 88.0535ZM30.7321 82.4574L27.439 87.8673L27.6686 88.0071L30.9616 82.5972L30.7321 82.4574ZM29.3083 81.9083L30.7868 82.6476L30.9069 82.407L29.4284 81.6677L29.3083 81.9083ZM39.953 88.3404H38.5081V88.6093H39.953V88.3404ZM38.0624 85.6187C38.5446 85.6502 38.9019 85.788 39.1658 85.9836C39.4299 86.1798 39.6083 86.4392 39.7232 86.7269C39.9549 87.3068 39.9246 87.9917 39.8219 88.4453L40.0841 88.5044C40.1943 88.0172 40.2312 87.2739 39.9728 86.6274C39.8427 86.3015 39.6368 85.9984 39.3259 85.7679C39.0146 85.5373 38.606 85.3855 38.0802 85.3498L38.0624 85.6187ZM35.7343 88.7094C35.3542 88.0602 35.3405 87.247 35.7129 86.62C36.0814 85.999 36.8431 85.5373 38.0624 85.6187L38.0802 85.3498C36.7794 85.2632 35.9113 85.7591 35.4818 86.4822C35.0562 87.1993 35.0761 88.1166 35.5023 88.8451L35.7343 88.7094ZM37.0933 90.1294L35.7156 88.6845L35.5211 88.87L36.8988 90.3149L37.0933 90.1294ZM36.7189 92.4372C37.0573 92.3727 37.2947 92.2363 37.4411 92.042C37.5871 91.8485 37.6284 91.616 37.6123 91.3861C37.5806 90.9338 37.324 90.4486 37.1052 90.1435L36.8868 90.3008C37.0937 90.5891 37.3175 91.0252 37.3442 91.405C37.3572 91.5918 37.322 91.7537 37.2264 91.8808C37.1312 92.0071 36.9617 92.1173 36.6683 92.1738L36.7189 92.4372ZM35.5546 90.0911C35.4573 90.5145 35.3886 91.1449 35.514 91.6476C35.5769 91.9002 35.6928 92.1355 35.8948 92.2894C36.1007 92.4466 36.375 92.5031 36.7189 92.4372L36.6683 92.1738C36.3805 92.2289 36.1891 92.1765 36.0579 92.0763C35.9226 91.9728 35.8297 91.8028 35.7748 91.5824C35.6644 91.1395 35.7233 90.5575 35.8165 90.1516L35.5546 90.0911ZM34.3947 89.7766L35.638 90.247L35.7331 89.9957L34.4898 89.5252L34.3947 89.7766ZM34.9671 92.7416C34.6069 92.4291 34.4528 91.8727 34.4211 91.2679C34.3897 90.6697 34.48 90.0595 34.5728 89.6832L34.3118 89.6187C34.2141 90.0152 34.1196 90.6516 34.1526 91.282C34.1853 91.905 34.3448 92.5582 34.7911 92.9446L34.9671 92.7416ZM38.9816 91.9748C38.8794 92.4466 38.642 92.7766 38.3308 92.9984C38.0172 93.2222 37.6216 93.3404 37.2 93.3727C36.3509 93.4379 35.4392 93.1509 34.9671 92.7416L34.7911 92.9446C35.3271 93.409 36.3139 93.7101 37.2205 93.6408C37.6768 93.6059 38.1233 93.4762 38.487 93.2174C38.8531 92.956 39.1281 92.5676 39.2444 92.0313L38.9816 91.9748ZM36.9215 88.0488C37.0604 88.1415 37.6873 88.6435 38.2236 89.3693C38.7614 90.0978 39.1878 91.0232 38.9816 91.9748L39.2444 92.0313C39.475 90.9668 38.9941 89.9601 38.4398 89.2101C37.8841 88.4574 37.2341 87.9345 37.0706 87.8257L36.9215 88.0488ZM38.1088 86.7665C37.8237 86.6838 37.5767 86.6973 37.3724 86.7773C37.1691 86.8566 37.0179 86.9977 36.9167 87.1543C36.8163 87.3102 36.762 87.4856 36.7556 87.6415C36.7497 87.7894 36.7872 87.9594 36.9215 88.0488L37.0706 87.8257C37.0536 87.8142 37.0197 87.7658 37.0243 87.6523C37.0285 87.5468 37.0666 87.4177 37.1425 87.3001C37.2177 87.1839 37.327 87.0837 37.4702 87.0273C37.6124 86.9722 37.798 86.956 38.0338 87.0246L38.1088 86.7665ZM38.6296 88.5326C38.7366 88.3068 38.845 87.9473 38.8116 87.6032C38.7947 87.4291 38.7409 87.2537 38.6265 87.1032C38.5113 86.9513 38.3415 86.8337 38.1088 86.7665L38.0338 87.0246C38.2178 87.0783 38.3361 87.165 38.4124 87.2658C38.4896 87.3673 38.5307 87.4916 38.544 87.6294C38.5711 87.9083 38.4813 88.2175 38.3867 88.4171L38.6296 88.5326ZM41.3328 86.7376L40.0223 94.0629L40.287 94.1099L41.5974 86.7847L41.3328 86.7376ZM45.514 87.1321L41.4818 86.6281L41.4485 86.8942L45.4807 87.3982L45.514 87.1321ZM45.6318 88.4748V87.2652H45.363V88.4748H45.6318ZM42.8042 88.5084L45.4923 88.6093L45.5024 88.3404L42.8142 88.2396L42.8042 88.5084ZM42.8426 90.2295L42.9434 88.3814L42.675 88.3666L42.5742 90.2148L42.8426 90.2295ZM44.8402 90.3236L42.7233 90.0884L42.6935 90.3559L44.8105 90.5911L44.8402 90.3236ZM44.9597 91.5998V90.4574H44.6909V91.5998H44.9597ZM42.2909 91.4648L44.8111 91.7336L44.8396 91.4661L42.3194 91.1973L42.2909 91.4648ZM42.1698 93.5985L42.4386 91.3472L42.1717 91.3149L41.9029 93.5662L42.1698 93.5985ZM44.5672 93.6502L42.047 93.4486L42.0257 93.7161L44.5458 93.9177L44.5672 93.6502ZM44.6909 94.8257V93.784H44.4221V94.8257H44.6909ZM40.1324 94.2188L44.5343 94.958L44.5788 94.6933L40.1769 93.954L40.1324 94.2188ZM46.2363 95.1375L46.7739 87.4762L46.5058 87.4574L45.9681 95.1187L46.2363 95.1375ZM47.7823 94.9937H46.1022V95.2625H47.7823V94.9937ZM47.6479 92.7759V95.1281H47.9167V92.7759H47.6479ZM48.5552 91.8351C48.1885 91.8351 47.9506 91.991 47.8114 92.1966C47.6775 92.3935 47.6415 92.6261 47.648 92.7813L47.9166 92.7705C47.9119 92.657 47.9398 92.4863 48.0339 92.3472C48.1226 92.2168 48.2767 92.1039 48.5552 92.1039V91.8351ZM50.1341 92.7665C50.113 92.4708 49.913 92.2349 49.6329 92.079C49.352 91.9224 48.9753 91.8351 48.5552 91.8351V92.1039C48.9415 92.1039 49.2704 92.1845 49.502 92.3136C49.7343 92.4433 49.8535 92.6106 49.866 92.7853L50.1341 92.7665ZM50.1345 95.1308C50.1456 94.5064 50.1616 93.1502 50.1341 92.7665L49.866 92.7853C49.8923 93.1543 49.8769 94.495 49.8657 95.1254L50.1345 95.1308ZM52.1804 94.9278L49.996 94.9937L50.0042 95.2625L52.1885 95.1959L52.1804 94.9278ZM52.1763 95.1959C52.1966 95.1973 52.2171 95.1966 52.2368 95.1939L52.1988 94.9278C52.1994 94.9278 52.1991 94.9278 52.198 94.9278C52.1968 94.9278 52.195 94.9278 52.1925 94.9278L52.1763 95.1959ZM52.2137 94.9265L52.1803 94.9278L52.1885 95.1959L52.2219 95.1953L52.2137 94.9265ZM51.634 94.7968C51.8166 95.0837 52.0294 95.1872 52.1763 95.1959L52.1925 94.9278C52.1521 94.9251 52.0093 94.8861 51.8608 94.6529L51.634 94.7968ZM51.5556 93.9473C51.5528 94.1335 51.5501 94.3055 51.557 94.4446C51.5604 94.5145 51.5664 94.5797 51.5769 94.6361C51.5871 94.6906 51.6034 94.749 51.634 94.7968L51.8608 94.6529C51.8576 94.6476 51.8491 94.6294 51.8413 94.5871C51.8339 94.5468 51.8286 94.495 51.8255 94.4312C51.8191 94.3028 51.8216 94.1402 51.8245 93.9513L51.5556 93.9473ZM50.6395 91.4614C51.0969 91.5756 51.3322 91.9392 51.4511 92.4224C51.5708 92.9076 51.5628 93.4782 51.5556 93.9473L51.8245 93.9513C51.8315 93.4896 51.8415 92.8834 51.7122 92.3579C51.5821 91.8304 51.3012 91.3498 50.7047 91.2007L50.6395 91.4614ZM51.4481 89.4446C51.5321 89.8283 51.4114 90.204 51.2159 90.5252C51.0205 90.8465 50.7591 91.0978 50.5915 91.2235L50.7528 91.4386C50.9436 91.2954 51.2298 91.0192 51.4455 90.665C51.6612 90.3109 51.8148 89.8633 51.7107 89.3868L51.4481 89.4446ZM50.0873 87.7269C50.5859 87.9144 51.2234 88.4177 51.4481 89.4446L51.7107 89.3868C51.4649 88.2631 50.7583 87.6912 50.1817 87.4755L50.0873 87.7269ZM46.6429 87.6012C47.1343 87.5898 47.8983 87.583 48.5923 87.5992C48.9395 87.6072 49.2676 87.6214 49.5347 87.6429C49.8084 87.665 50.0001 87.6946 50.0873 87.7269L50.1817 87.4755C50.0538 87.4271 49.8244 87.3969 49.5564 87.3747C49.282 87.3525 48.9481 87.3391 48.5987 87.331C47.8993 87.3142 47.131 87.3209 46.6368 87.3324L46.6429 87.6012ZM52.0834 87.87H53.9987V87.6012H52.0834V87.87ZM54.9642 94.8445L52.2088 87.6872L51.958 87.784L54.7134 94.9412L54.9642 94.8445ZM57.1851 94.6576L54.833 94.7584L54.8446 95.0273L57.1967 94.9265L57.1851 94.6576ZM57.2582 87.1274L57.0566 94.7887L57.3253 94.7954L57.5269 87.1341L57.2582 87.1274ZM55.9539 87.3324L57.3988 87.2652L57.3863 86.9964L55.9414 87.0636L55.9539 87.3324ZM56.0821 93.5824V87.198H55.8132V93.5824H56.0821ZM53.8712 87.7779L55.8202 93.6247L56.0751 93.54L54.1262 87.6933L53.8712 87.7779ZM59.8343 86.4258L58.2214 86.5602L58.2437 86.8277L59.8567 86.6933L59.8343 86.4258ZM61.9574 93.5461L59.9749 86.5232L59.7161 86.5958L61.6987 93.6187L61.9574 93.5461ZM60.0791 94.1496L61.86 93.7127L61.796 93.452L60.0151 93.8888L60.0791 94.1496ZM58.1021 86.7262L59.9167 94.0515L60.1776 93.9869L58.363 86.6617L58.1021 86.7262ZM65.0532 87.118C65.0293 86.8606 64.9293 86.4849 64.6982 86.1973C64.5813 86.0515 64.4289 85.9265 64.2343 85.8539C64.039 85.7813 63.8101 85.7645 63.5462 85.8236L63.6045 86.0857C63.8244 86.0373 63.9999 86.0535 64.1404 86.1059C64.2815 86.1583 64.3962 86.2504 64.4887 86.366C64.6765 86.5992 64.7647 86.9191 64.7856 87.1435L65.0532 87.118ZM66.0275 86.6986L64.885 87.0011L64.9538 87.2605L66.0963 86.958L66.0275 86.6986ZM64.3003 85.0132C64.7181 85.0575 65.1257 85.3693 65.4357 85.7611C65.5887 85.954 65.713 86.161 65.7985 86.3519C65.8852 86.5454 65.9275 86.7127 65.9275 86.8283H66.1963C66.1963 86.6583 66.1378 86.452 66.0439 86.2423C65.9488 86.03 65.8126 85.8041 65.6464 85.5938C65.318 85.1791 64.8519 84.8021 64.3289 84.7457L64.3003 85.0132ZM61.6935 88.0662C61.6273 86.4796 62.074 85.7101 62.6102 85.3384C63.1565 84.9601 63.8368 84.9634 64.3003 85.0132L64.3289 84.7457C63.8515 84.6946 63.0869 84.6812 62.4571 85.1173C61.8173 85.5609 61.3567 86.4379 61.4249 88.077L61.6935 88.0662ZM65.6528 93.0111C64.5541 93.0595 63.6029 92.6173 62.9062 91.7705C62.2072 90.9211 61.7598 89.6583 61.6935 88.0662L61.4249 88.077C61.493 89.7107 61.9529 91.0353 62.6987 91.9412C63.447 92.8505 64.4783 93.3324 65.6646 93.28L65.6528 93.0111ZM67.1724 89.0333C67.277 89.6953 67.3206 90.6892 67.1167 91.5205C67.0148 91.9359 66.8536 92.3008 66.6169 92.5649C66.3835 92.8257 66.0724 92.993 65.6528 93.0111L65.6646 93.28C66.1589 93.2578 66.5372 93.0568 66.8171 92.7443C67.0938 92.4359 67.2702 92.0246 67.3778 91.5851C67.5935 90.706 67.5458 89.6738 67.4382 88.9916L67.1724 89.0333ZM66.2507 89.3136L67.326 89.1455L67.2843 88.8794L66.2091 89.0474L66.2507 89.3136ZM65.3746 92.0696C65.6409 92.0998 65.9659 91.9439 66.1789 91.5004C66.3895 91.0615 66.4991 90.3317 66.3634 89.165L66.0964 89.1959C66.2296 90.3411 66.1152 91.0118 65.9365 91.3834C65.7603 91.7511 65.5308 91.8169 65.4051 91.8021L65.3746 92.0696ZM63.5462 85.8236C63.3391 85.8693 63.1935 86.0286 63.0956 86.2302C62.9974 86.4318 62.9371 86.6946 62.9077 86.9896C62.8487 87.5804 62.9105 88.3344 63.0788 89.0756C63.247 89.8169 63.5241 90.5568 63.9036 91.1146C64.2816 91.6704 64.779 92.0703 65.3899 92.0703V91.8015C64.9086 91.8015 64.482 91.4869 64.1259 90.9634C63.7714 90.4419 63.5046 89.7369 63.341 89.0165C63.1774 88.2961 63.1197 87.5716 63.1751 87.0158C63.2029 86.7376 63.2584 86.5098 63.3373 86.3478C63.4164 86.1852 63.5091 86.1072 63.6045 86.0857L63.5462 85.8236ZM69.5162 81.8774L66.3575 83.9607L66.5055 84.1852L69.664 82.1019L69.5162 81.8774ZM70.5364 82.9822L69.6963 81.907L69.4839 82.0723L70.324 83.1476L70.5364 82.9822ZM68.3153 84.4903L70.4994 83.1798L70.361 82.95L68.1768 84.2605L68.3153 84.4903ZM69.1701 85.7551L68.3636 84.3102L68.1284 84.4406L68.9349 85.8855L69.1701 85.7551ZM70.8018 84.6946L68.9873 85.7027L69.1177 85.9379L70.9322 84.9298L70.8018 84.6946ZM71.6459 85.6039L70.9739 84.7302L70.7601 84.8942L71.4322 85.7679L71.6459 85.6039ZM69.5921 87.0105L71.6083 85.8008L71.4698 85.571L69.4537 86.7806L69.5921 87.0105ZM70.7487 88.7779L69.6398 86.829L69.406 86.9621L70.5149 88.911L70.7487 88.7779ZM72.6425 87.3875L70.5592 88.7316L70.7044 88.9574L72.7877 87.6133L72.6425 87.3875ZM73.6204 88.2826L72.8139 87.409L72.6163 87.5918L73.4228 88.4654L73.6204 88.2826ZM69.7635 90.9399L73.5941 88.4869L73.449 88.2611L69.6183 90.7141L69.7635 90.9399ZM66.3105 84.1314L69.57 90.8855L69.8119 90.7685L66.5526 84.0145L66.3105 84.1314ZM76.4745 79.8317L77.4154 78.8572L77.2218 78.6704L76.281 79.6449L76.4745 79.8317ZM74.7299 80.1234C74.6862 79.8048 74.8307 79.5508 75.0807 79.4574C75.3368 79.3619 75.7581 79.4164 76.2937 79.8431L76.4618 79.6334C75.8885 79.1771 75.369 79.0636 74.9866 79.2054C74.5982 79.3498 74.4067 79.739 74.4638 80.1597L74.7299 80.1234ZM75.4208 80.6798C75.3018 80.6825 75.1506 80.6832 75.0182 80.6173C74.8979 80.5575 74.7716 80.4305 74.7299 80.1234L74.4638 80.1597C74.5155 80.5407 74.6869 80.7524 74.8986 80.8579C75.0975 80.9574 75.3132 80.9507 75.4261 80.9486L75.4208 80.6798ZM75.4214 80.6798H75.4201L75.4268 80.9486H75.4275L75.4214 80.6798ZM75.4705 80.6791C75.455 80.6791 75.4382 80.6798 75.4214 80.6798L75.4268 80.9486C75.4443 80.948 75.4584 80.948 75.4705 80.948V80.6791ZM78.2118 80.411C77.7864 80.456 77.1378 80.5232 76.576 80.579C76.2951 80.6072 76.0357 80.6321 75.8374 80.6502C75.6338 80.6691 75.5028 80.6791 75.4705 80.6791V80.948C75.5189 80.948 75.6661 80.9359 75.8616 80.9177C76.0612 80.8996 76.3213 80.8747 76.6029 80.8465C77.1654 80.7907 77.8139 80.7235 78.24 80.6785L78.2118 80.411ZM79.8536 80.9083C79.1257 80.3485 78.4584 80.3344 78.1876 80.4157L78.2642 80.6738C78.4409 80.6207 79.0196 80.6066 79.6896 81.122L79.8536 80.9083ZM78.7346 85.161C80.8993 83.7867 80.828 81.6583 79.8536 80.9083L79.6896 81.122C80.4624 81.7161 80.66 83.62 78.5908 84.9339L78.7346 85.161ZM75.1506 84.1032C75.373 84.5125 75.8159 85.0575 76.4308 85.3613C77.0552 85.6697 77.8475 85.7242 78.7346 85.161L78.5908 84.9339C77.7843 85.446 77.0928 85.3881 76.5498 85.12C75.9981 84.8472 75.5908 84.3505 75.3872 83.9755L75.1506 84.1032ZM76.496 82.8922L75.1855 83.9339L75.3522 84.1449L76.6627 83.1032L76.496 82.8922ZM78.5511 83.1576C78.4127 83.3626 78.158 83.5864 77.8448 83.6234C77.5437 83.659 77.1405 83.5259 76.6869 82.9177L76.4718 83.0777C76.9591 83.7329 77.4463 83.9412 77.8764 83.8908C78.2938 83.8411 78.6103 83.5515 78.7743 83.3082L78.5511 83.1576ZM76.6708 82.29C77.6244 82.118 78.1089 82.2679 78.3415 82.4755C78.57 82.6798 78.5921 82.9769 78.533 83.198L78.7924 83.2679C78.8677 82.9849 78.8495 82.5696 78.5202 82.2752C78.195 81.9836 77.6042 81.8478 76.6224 82.0253L76.6708 82.29ZM72.9228 80.8539C73.1143 81.4634 73.4282 81.9486 74.0256 82.2134C74.6136 82.4735 75.4523 82.5098 76.6708 82.29L76.6224 82.0253C75.4214 82.2423 74.6472 82.1946 74.1345 81.9675C73.6318 81.745 73.3576 81.3398 73.1795 80.7732L72.9228 80.8539ZM74.8146 77.9003C74.0276 78.2255 73.4544 78.6429 73.1278 79.1442C72.7971 79.6509 72.7272 80.2309 72.9228 80.8539L73.1795 80.7732C73.0054 80.2201 73.07 79.7248 73.3529 79.2907C73.6392 78.8512 74.158 78.4621 74.9167 78.1489L74.8146 77.9003ZM77.4308 78.6899C77.2675 78.4419 76.945 78.1113 76.4981 77.9083C76.0464 77.7027 75.4705 77.6294 74.8146 77.9003L74.9167 78.1489C75.4974 77.909 75.9967 77.9755 76.3872 78.1529C76.7817 78.3324 77.0673 78.6267 77.2064 78.8377L77.4308 78.6899ZM81.4812 74.4459L80.6748 75.454L80.8845 75.622L81.6909 74.614L81.4812 74.4459ZM79.2084 73.8176C79.7467 73.6422 80.2339 73.7356 80.6298 73.9258C81.0276 74.118 81.3274 74.407 81.4786 74.6099L81.6936 74.45C81.5202 74.2161 81.1876 73.8969 80.7467 73.6839C80.3025 73.4695 79.7427 73.3613 79.1251 73.5622L79.2084 73.8176ZM77.6997 76.7074C77.4147 76.2726 77.4356 75.6711 77.7165 75.1066C77.9954 74.5441 78.5229 74.0407 79.2084 73.8176L79.1251 73.5622C78.3657 73.8095 77.7843 74.3646 77.4752 74.9869C77.1681 75.6066 77.1217 76.3156 77.4752 76.8552L77.6997 76.7074ZM77.9779 77.1597C77.8939 77.0179 77.8065 76.8707 77.6997 76.7074L77.4752 76.8552C77.578 77.0125 77.6627 77.155 77.7467 77.2968L77.9779 77.1597ZM80.6264 80.04C79.6553 79.1993 79.0874 78.6375 78.7158 78.208C78.3462 77.78 78.1688 77.4816 77.9779 77.1597L77.7467 77.2968C77.9403 77.622 78.1271 77.9379 78.5128 78.3834C78.8959 78.827 79.4745 79.3989 80.4503 80.243L80.6264 80.04ZM81.2776 80.4567C81.0303 80.3149 80.7743 80.1677 80.6264 80.04L80.4503 80.243C80.623 80.3922 80.9067 80.5535 81.1446 80.6899L81.2776 80.4567ZM81.5209 80.5978C81.4463 80.5528 81.363 80.5051 81.2776 80.4567L81.1446 80.6899C81.2299 80.739 81.3112 80.7853 81.3825 80.8277L81.5209 80.5978ZM84.4261 79.5709C84.0028 80.3156 83.4167 80.6543 82.869 80.7665C82.3132 80.8808 81.7971 80.7632 81.5209 80.5978L81.3825 80.8277C81.7218 81.032 82.3079 81.1563 82.9228 81.03C83.5444 80.9023 84.1963 80.5185 84.66 79.704L84.4261 79.5709ZM83.572 76.0595C84.4779 76.5461 84.9322 76.9594 85.0552 77.456C85.1795 77.958 84.9812 78.5958 84.4261 79.5709L84.66 79.704C85.2138 78.7302 85.4692 78.0071 85.3159 77.3915C85.162 76.7712 84.6083 76.3109 83.6997 75.823L83.572 76.0595ZM82.7313 77.2369L83.7393 76.0273L83.5323 75.8552L82.5243 77.0649L82.7313 77.2369ZM83.2669 78.9527C83.4618 78.7289 83.5639 78.5071 83.5888 78.292C83.6136 78.077 83.5605 77.8821 83.4665 77.7141C83.283 77.3834 82.9389 77.1476 82.6842 77.0293L82.5713 77.2726C82.7978 77.3781 83.0861 77.5824 83.2319 77.8445C83.3032 77.9728 83.3394 78.1119 83.322 78.2611C83.3045 78.411 83.2319 78.5837 83.0639 78.7766L83.2669 78.9527ZM81.7313 79.0877C82.0149 79.2181 82.3126 79.2786 82.5807 79.2605C82.8495 79.243 83.0989 79.1462 83.2669 78.9527L83.0639 78.7766C82.955 78.9016 82.7817 78.9775 82.5632 78.9923C82.3455 79.0064 82.0928 78.958 81.8441 78.8431L81.7313 79.0877ZM78.6493 76.2134C78.8435 76.5286 79.3045 77.1032 79.8663 77.6671C80.4282 78.2302 81.1042 78.7981 81.7313 79.0877L81.8441 78.8431C81.2608 78.5743 80.6116 78.034 80.0572 77.4775C79.5028 76.9211 79.0572 76.364 78.8778 76.0723L78.6493 76.2134ZM80.8704 75.4392C80.2192 74.8404 79.5249 74.7504 79.0491 74.9614C78.8126 75.0669 78.6311 75.247 78.5505 75.4742C78.4685 75.7027 78.4954 75.9634 78.6493 76.2134L78.8778 76.0723C78.7628 75.8855 78.7521 75.7094 78.8032 75.5642C78.8562 75.4171 78.9786 75.2867 79.158 75.2074C79.5142 75.0488 80.0968 75.0931 80.6889 75.6368L80.8704 75.4392ZM80.3838 72.2578L81.3247 70.9809L81.1083 70.821L80.1674 72.0978L80.3838 72.2578ZM86.4349 76.3693L80.3529 72.0683L80.1983 72.2873L86.2803 76.5884L86.4349 76.3693ZM87.4302 74.9816L86.2541 76.3929L86.4611 76.5649L87.6372 75.1536L87.4302 74.9816ZM84.7339 73.2282L87.4557 75.1771L87.6116 74.958L84.8899 73.0091L84.7339 73.2282ZM85.74 71.4003L84.6983 73.0468L84.9255 73.1906L85.9671 71.5441L85.74 71.4003ZM88.906 72.8982L85.9154 71.3525L85.7917 71.5918L88.7823 73.1375L88.906 72.8982ZM89.4967 71.4123L88.7239 72.958L88.9645 73.0777L89.7373 71.532L89.4967 71.4123ZM82.9651 67.8929L89.5511 71.5891L89.6829 71.3552L83.0968 67.659L82.9651 67.8929ZM82.5148 69.2423L83.1533 67.831L82.9087 67.7208L82.2702 69.1321L82.5148 69.2423ZM84.7561 70.7248L82.4712 69.0783L82.3139 69.2961L84.5989 70.9426L84.7561 70.7248ZM83.8865 72.4802L84.7937 70.9009L84.5612 70.7665L83.654 72.3458L83.8865 72.4802ZM81.1479 71.0165L83.7017 72.5286L83.8388 72.2974L81.285 70.7853L81.1479 71.0165ZM84.8549 63.1901L83.4436 66.7519L83.6936 66.851L85.1049 63.2892L84.8549 63.1901ZM86.3408 63.2742L84.9967 63.1062L84.9631 63.373L86.3072 63.541L86.3408 63.2742ZM85.4409 66.0107L86.449 63.457L86.199 63.3583L85.1909 65.9121L85.4409 66.0107ZM86.8851 66.5453L85.373 65.8396L85.2588 66.0832L86.7709 66.7888L86.8851 66.5453ZM87.5081 64.4363L86.7017 66.6205L86.9544 66.7136L87.7608 64.5295L87.5081 64.4363ZM89.2118 64.7218L87.6661 64.3522L87.6029 64.6136L89.1486 64.9832L89.2118 64.7218ZM88.3287 67.1244L89.3032 64.9066L89.0572 64.7984L88.0827 67.0162L88.3287 67.1244ZM89.9208 67.9291L88.2743 66.9546L88.1372 67.1859L89.7837 68.1603L89.9208 67.9291ZM90.9389 65.2353L89.7292 67.991L89.9752 68.0985L91.1849 65.3434L90.9389 65.2353ZM92.4658 65.8412L91.1217 65.1691L91.0021 65.4096L92.3462 66.0816L92.4658 65.8412ZM90.4429 70.1879L92.5263 66.0215L92.2857 65.9013L90.2023 70.0683L90.4429 70.1879ZM83.5095 66.922L90.2635 70.2484L90.3818 70.0078L83.6278 66.6809L83.5095 66.922ZM85.7843 62.2537L86.154 60.0359L85.8892 59.9917L85.5196 62.2095L85.7843 62.2537ZM92.7198 64.5914L85.697 62.1049L85.6069 62.3582L92.6298 64.8448L92.7198 64.5914ZM93.0505 63.0323L92.5464 64.6788L92.8032 64.7574L93.3072 63.1109L93.0505 63.0323ZM87.0263 61.4535L93.1419 63.2009L93.2158 62.9424L87.1002 61.1951L87.0263 61.4535ZM93.7904 61.5261L87.07 61.19L87.0565 61.4586L93.7769 61.7946L93.7904 61.5261ZM93.9557 60.3853L93.6533 61.6285L93.914 61.6921L94.2165 60.4488L93.9557 60.3853ZM88.08 57.6482L94.0276 60.538L94.1446 60.2962L88.197 57.4064L88.08 57.6482ZM94.3126 58.5376L88.1634 57.3951L88.1136 57.6594L94.2628 58.8019L94.3126 58.5376ZM94.3899 56.9378L94.1546 58.6515L94.4208 58.688L94.656 56.9743L94.3899 56.9378ZM86.9443 56.0475L94.5048 57.0892L94.5411 56.8229L86.9806 55.7812L86.9443 56.0475ZM86.9624 58.1068L87.0968 55.9226L86.828 55.9061L86.6936 58.0902L86.9624 58.1068ZM91.3899 60.1957L86.8872 57.9779L86.7689 58.2191L91.2716 60.4368L91.3899 60.1957ZM86.0142 60.148L91.3233 60.4505L91.3381 60.182L86.029 59.8796L86.0142 60.148Z" fill="black"/>
<path fill-rule="evenodd" clip-rule="evenodd" d="M51.6393 22.5283C54.1821 22.5285 60.6176 23.6088 66.4173 28.2024C65.2463 30.3376 61.5111 35.2682 55.5383 37.6352L55.5255 37.6404C55.8856 38.1295 56.0949 38.7358 56.0863 39.39C56.065 40.9858 54.7541 42.2624 53.1583 42.2412C51.5625 42.2199 50.286 40.909 50.3072 39.3132C50.328 37.7467 51.5916 36.4879 53.1475 36.4623C51.8848 34.391 49.8449 28.7623 51.6393 22.5283ZM45.848 22.7799C38.5053 23.6873 33.2191 27.5135 31.4344 29.3246C34.6157 34.9781 40.0569 37.4754 42.4185 38.0295C41.3448 39.1559 41.3547 40.9395 42.4559 42.0538C43.5779 43.1889 45.4075 43.1996 46.5426 42.0777C47.6778 40.9558 47.6885 39.1262 46.5666 37.991C46.1067 37.5257 45.5279 37.2493 44.9267 37.1625L44.932 37.1498C47.4379 31.2338 46.5471 25.1126 45.848 22.7799ZM27.5873 33.5007C23.0712 39.3609 22.0766 45.8103 22.1102 48.3528C28.3674 50.0643 33.9685 47.9497 36.0228 46.6596C36.0691 48.215 37.3446 49.4617 38.9113 49.4617C40.5072 49.4617 41.801 48.168 41.801 46.5719C41.801 44.976 40.5072 43.6821 38.9113 43.6821C38.257 43.6821 37.6535 43.8996 37.1692 44.2661L37.1639 44.2534C34.7177 38.3125 29.7379 34.6432 27.5873 33.5007ZM77.0483 47.8896C76.6035 40.5045 73.1162 34.9888 71.4207 33.094C65.5789 35.9145 62.7452 41.1884 62.0441 43.5106C60.9873 42.3684 59.2066 42.2664 58.0254 43.2956C56.8222 44.3441 56.6967 46.1695 57.7453 47.3727C58.7937 48.576 60.6191 48.7014 61.8224 47.653C62.3156 47.2231 62.6278 46.6628 62.7522 46.0682L62.7645 46.0744C68.5114 48.9463 74.6767 48.4411 77.0483 47.8896ZM77.1565 52.3746C77.1303 54.9172 75.9852 61.3416 71.3333 67.0946C69.2103 65.9022 64.3175 62.1175 62.0108 56.1211L62.0058 56.1083C61.513 56.4634 60.9047 56.6666 60.2506 56.6514C58.655 56.6141 57.3918 55.2903 57.4291 53.6948C57.4664 52.0993 58.7901 50.836 60.3857 50.8733C61.9519 50.91 63.1979 52.1862 63.2078 53.7423C65.2917 52.5005 70.9408 50.5174 77.1565 52.3746ZM53.1906 77.3851C60.5424 76.5545 65.8682 72.7836 67.672 70.9913C64.5496 65.3049 59.1347 62.751 56.7789 62.1723C57.8644 61.0571 57.8732 59.2736 56.7835 58.1479C55.6735 57.0011 53.8441 56.9713 52.6973 58.0813C51.5505 59.1913 51.5207 61.0207 52.6307 62.1675C53.0857 62.6376 53.6617 62.9201 54.2619 63.0131L54.2564 63.0258C51.689 68.9154 52.5159 75.0457 53.1906 77.3851ZM48.1027 77.7003C45.5609 77.7668 39.0992 76.8555 33.181 72.4154C34.2956 70.2507 37.9003 65.2235 43.809 62.7007L43.8217 62.6953C43.4489 62.2158 43.2237 61.6151 43.2152 60.9609C43.1946 59.3651 44.4716 58.0547 46.0674 58.034C47.6633 58.0134 48.9737 59.2903 48.9943 60.8862C49.0146 62.4528 47.7844 63.7442 46.2297 63.8106C47.5463 65.8481 49.7331 71.4214 48.1027 77.7003ZM22.157 53.7549C23.1406 61.0877 27.0214 66.3339 28.851 68.0995C34.4711 64.8599 36.9118 59.393 37.4414 57.0258C38.5789 58.0878 40.3622 58.0594 41.465 56.9466C42.5885 55.813 42.5802 53.9833 41.4465 52.8598C40.3129 51.7365 38.4832 51.7447 37.3598 52.8783C36.8993 53.343 36.6289 53.9247 36.5484 54.5268L36.5357 54.5215C30.5939 52.0773 24.4823 53.0315 22.157 53.7549Z" fill="#DF2028"/>
<path fill-rule="evenodd" clip-rule="evenodd" d="M43.5755 7.66113H46.1377C46.174 7.66113 46.2037 7.68996 46.2049 7.72625L46.2679 9.77598C46.2691 9.81389 46.2387 9.84527 46.2008 9.84527H43.8843C43.8472 9.84527 43.8171 9.81537 43.8168 9.7782C43.8113 9.22787 43.7385 8.25744 43.4951 7.8321C43.4618 7.7739 43.5084 7.66113 43.5755 7.66113ZM28.5281 13.1047L30.141 12.1638C30.7235 13.0711 31.8883 14.9259 31.8883 15.0872C31.8883 15.2888 31.2499 17.3722 29.7378 17.1369C28.5281 16.9488 28.9201 16.3417 29.2674 16.0617C29.6258 15.524 29.9797 14.1799 28.5281 13.1047ZM18.7163 18.817C17.4842 18.9515 15.4098 18.7028 16.969 16.6329C17.4394 16.1513 18.8641 15.477 20.7996 16.6329L18.7163 18.817ZM18.7163 20.3627C16.8077 22.0832 15.1657 24.5966 14.5832 25.6383L17.641 25.3695C16.8883 23.9985 18.6043 22.1773 19.5564 21.438L18.7163 20.3627ZM14.9865 26.5791L18.2123 26.1759C18.1115 26.8031 17.6881 28.0442 16.801 27.9904C15.9139 27.9367 15.2217 27.0272 14.9865 26.5791ZM67.641 14.9192C69.926 15.5375 70.6538 13.5863 70.7324 12.5334L72.5469 13.7095C72.0543 14.5832 71.0349 16.3708 70.9004 16.5321C68.4004 17.473 67.6861 15.8488 67.641 14.9192ZM8.60205 59.1732L8.80366 60.5173L11.9287 59.1732H8.60205ZM13.0039 73.891C13.5752 73.1967 15.141 71.7068 16.8346 71.3036C17.4282 71.3258 18.4609 71.6531 17.8426 72.7821C17.0698 74.1934 14.6168 75.3359 14.2472 75.4031C13.8776 75.4703 12.5671 75.2015 13.0039 73.891ZM25.7055 81.3506L23.6222 82.9971L24.5631 83.7364L25.7055 81.3506ZM47.9838 88.8775V90.7592C48.6446 90.8715 49.9461 90.8735 49.8655 89.9864C49.7647 88.8775 49.3279 88.8103 47.9838 88.8775Z" fill="#322864"/>
<path d="M46.2047 7.72687L46.339 7.72277L46.2047 7.72687ZM46.2677 9.7766L46.1334 9.78077L46.2677 9.7766ZM43.8166 9.77882L43.951 9.77755L43.8166 9.77882ZM43.4949 7.83272L43.3783 7.89945L43.4949 7.83272ZM30.1408 12.1644L30.2539 12.0919L30.1844 11.9835L30.0731 12.0483L30.1408 12.1644ZM28.5279 13.1053L28.4602 12.9892L28.2841 13.0919L28.448 13.2133L28.5279 13.1053ZM29.7376 17.1376L29.717 17.2704L29.7376 17.1376ZM29.2672 16.0623L29.3516 16.1669L29.3676 16.154L29.379 16.1368L29.2672 16.0623ZM16.9688 16.6335L16.8726 16.5396L16.8666 16.5458L16.8615 16.5527L16.9688 16.6335ZM18.7161 18.8177L18.7307 18.9513L18.7795 18.946L18.8133 18.9104L18.7161 18.8177ZM20.7994 16.6335L20.8967 16.7263L21.0129 16.6044L20.8683 16.5181L20.7994 16.6335ZM14.583 25.6389L14.4657 25.5733L14.3417 25.795L14.5948 25.7728L14.583 25.6389ZM18.7161 20.3634L18.822 20.2806L18.7332 20.167L18.6261 20.2635L18.7161 20.3634ZM17.6408 25.3701L17.6526 25.504L17.8578 25.4859L17.7586 25.3054L17.6408 25.3701ZM19.5562 21.4386L19.6386 21.5448L19.7451 21.4621L19.6621 21.3559L19.5562 21.4386ZM18.2121 26.1765L18.3448 26.1978L18.3732 26.021L18.1954 26.0431L18.2121 26.1765ZM14.9863 26.5798L14.9696 26.4464L14.7771 26.4705L14.8672 26.6423L14.9863 26.5798ZM70.7322 12.5341L70.8055 12.4213L70.6153 12.2979L70.5985 12.5241L70.7322 12.5341ZM67.6408 14.9198L67.6758 14.79L67.4977 14.7419L67.5064 14.9263L67.6408 14.9198ZM72.5467 13.7101L72.6637 13.7762L72.7262 13.6661L72.62 13.5974L72.5467 13.7101ZM70.9002 16.5327L70.9473 16.6585L70.9809 16.646L71.0037 16.6187L70.9002 16.5327ZM8.80346 60.5179L8.67053 60.5379L8.69641 60.7103L8.85655 60.6414L8.80346 60.5179ZM8.60185 59.1738V59.0394H8.4458L8.46892 59.1938L8.60185 59.1738ZM11.9285 59.1738L11.9816 59.2973L11.9285 59.0394V59.1738ZM16.8344 71.3042L16.8394 71.1698L16.8211 71.1691L16.8033 71.1732L16.8344 71.3042ZM13.0037 73.8916L12.8999 73.8062L12.8841 73.8257L12.8762 73.8493L13.0037 73.8916ZM17.8424 72.7827L17.7246 72.7182L17.8424 72.7827ZM23.622 82.9978L23.5387 82.8923L23.4049 82.9978L23.5389 83.1033L23.622 82.9978ZM25.7053 81.3513L25.8266 81.4091L25.622 81.2458L25.7053 81.3513ZM24.5629 83.737L24.4798 83.8425L24.6117 83.946L24.6841 83.7948L24.5629 83.737ZM47.9836 90.7599H47.8492V90.8734L47.9611 90.8923L47.9836 90.7599ZM47.9836 88.8781L47.9769 88.7437L47.8492 88.7505V88.8781H47.9836ZM49.8653 89.987L49.7314 89.9991L49.8653 89.987ZM46.1375 7.52734H43.5753V7.79616H46.1375V7.52734ZM46.339 7.72277C46.3357 7.6139 46.2464 7.52734 46.1375 7.52734V7.79616C46.1012 7.79616 46.0714 7.76733 46.0703 7.73104L46.339 7.72277ZM46.4021 9.77251L46.339 7.72277L46.0703 7.73104L46.1334 9.78077L46.4021 9.77251ZM46.2006 9.9803C46.3144 9.9803 46.4056 9.88621 46.4021 9.77251L46.1334 9.78077C46.1322 9.74287 46.1627 9.71148 46.2006 9.71148V9.9803ZM43.8841 9.9803H46.2006V9.71148H43.8841V9.9803ZM43.6822 9.78017C43.6832 9.89058 43.7728 9.9803 43.8841 9.9803V9.71148C43.9211 9.71148 43.9506 9.74132 43.951 9.77755L43.6822 9.78017ZM43.3783 7.89945C43.4859 8.08756 43.5626 8.4135 43.6117 8.77694C43.6601 9.1348 43.6795 9.50927 43.6822 9.78017L43.951 9.77755C43.9482 9.49811 43.9283 9.11222 43.8781 8.74092C43.8287 8.37519 43.7473 8.00322 43.6116 7.76599L43.3783 7.89945ZM43.5753 7.52734C43.4625 7.52734 43.399 7.61632 43.3748 7.67049C43.3493 7.72755 43.3322 7.81901 43.3783 7.89945L43.6116 7.76599C43.6154 7.77271 43.617 7.77828 43.6177 7.78158C43.6184 7.78487 43.6183 7.78662 43.6183 7.78669C43.6183 7.78682 43.6183 7.78608 43.6187 7.7846C43.6191 7.78319 43.6195 7.78164 43.6201 7.7803C43.6217 7.77667 43.6221 7.77808 43.6176 7.78198C43.6127 7.78628 43.5981 7.79616 43.5753 7.79616V7.52734ZM30.0731 12.0483L28.4602 12.9892L28.5957 13.2214L30.2086 12.2806L30.0731 12.0483ZM32.0225 15.0878C32.0225 15.0499 32.0087 15.0118 32.0004 14.9903C31.9898 14.9625 31.9751 14.93 31.9578 14.8944C31.9232 14.8229 31.8738 14.731 31.8142 14.6248C31.6947 14.412 31.5299 14.135 31.3477 13.8359C30.9829 13.2374 30.5455 12.546 30.2539 12.0919L30.0277 12.237C30.3186 12.6902 30.7548 13.3798 31.1181 13.9758C31.2999 14.2741 31.4627 14.5478 31.5798 14.7564C31.6385 14.8609 31.6848 14.9474 31.716 15.0118C31.7318 15.0442 31.7427 15.0689 31.7494 15.0864C31.7585 15.1103 31.7537 15.1056 31.7537 15.0878H32.0225ZM29.717 17.2704C30.5496 17.3999 31.1311 16.8855 31.4913 16.3517C31.6728 16.0829 31.8042 15.8011 31.8904 15.5739C31.9336 15.4601 31.9658 15.3589 31.9875 15.2784C32.0077 15.2036 32.0225 15.1331 32.0225 15.0878H31.7537C31.7537 15.0872 31.7533 15.0968 31.7486 15.1213C31.7443 15.1436 31.7375 15.1729 31.728 15.2085C31.7088 15.2796 31.6794 15.3723 31.6391 15.4786C31.5584 15.6913 31.4357 15.9536 31.2685 16.2013C30.9315 16.7008 30.4377 17.1105 29.7582 17.0048L29.717 17.2704ZM29.1828 15.9577C29.0882 16.034 28.9884 16.1341 28.9125 16.247C28.8377 16.3583 28.7775 16.4951 28.7843 16.6406C28.7914 16.7946 28.8722 16.9329 29.0289 17.0404C29.1805 17.1443 29.4053 17.2219 29.717 17.2704L29.7582 17.0048C29.465 16.9591 29.2853 16.8902 29.181 16.8187C29.0818 16.7507 29.0554 16.6845 29.0528 16.6281C29.0498 16.5634 29.0771 16.4841 29.1357 16.397C29.1931 16.3114 29.2725 16.2306 29.3516 16.1669L29.1828 15.9577ZM28.448 13.2133C29.1451 13.7297 29.398 14.3006 29.4424 14.7974C29.4875 15.3004 29.32 15.7407 29.1553 15.9878L29.379 16.1368C29.5728 15.8462 29.7615 15.3457 29.7102 14.7734C29.6584 14.195 29.3624 13.5562 28.6079 12.9973L28.448 13.2133ZM16.8615 16.5527C16.4652 17.0787 16.2827 17.5103 16.2764 17.8646C16.2699 18.2318 16.4527 18.4931 16.7236 18.6656C16.9876 18.8337 17.3374 18.9201 17.6898 18.9578C18.0445 18.9958 18.4151 18.9857 18.7307 18.9513L18.7015 18.6841C18.4011 18.7168 18.0503 18.7261 17.7184 18.6905C17.384 18.6548 17.0816 18.5749 16.8679 18.4388C16.6611 18.3072 16.5406 18.1266 16.5452 17.8693C16.55 17.599 16.6928 17.2233 17.0762 16.7144L16.8615 16.5527ZM20.8683 16.5181C18.8799 15.3306 17.3868 16.0132 16.8726 16.5396L17.065 16.7274C17.4916 16.2906 18.848 15.6247 20.7305 16.7489L20.8683 16.5181ZM18.8133 18.9104L20.8967 16.7263L20.7022 16.5408L18.6189 18.7249L18.8133 18.9104ZM14.7004 25.7045C15.2791 24.6694 16.9127 22.1699 18.8061 20.4632L18.6261 20.2635C16.7023 21.9976 15.0518 24.5251 14.4657 25.5733L14.7004 25.7045ZM17.6291 25.2362L14.5713 25.505L14.5948 25.7728L17.6526 25.504L17.6291 25.2362ZM19.4737 21.3325C18.9893 21.7086 18.3101 22.3597 17.8455 23.0957C17.3848 23.8257 17.1098 24.6822 17.523 25.4348L17.7586 25.3054C17.4192 24.687 17.6258 23.9474 18.0729 23.2392C18.5161 22.537 19.1709 21.9079 19.6386 21.5448L19.4737 21.3325ZM18.6102 20.4461L19.4502 21.5214L19.6621 21.3559L18.822 20.2806L18.6102 20.4461ZM18.1954 26.0431L14.9696 26.4464L15.0029 26.7132L18.2287 26.3099L18.1954 26.0431ZM16.7926 28.1252C17.3113 28.1566 17.6776 27.8062 17.9165 27.4084C18.1572 27.0075 18.2926 26.5228 18.3448 26.1978L18.0793 26.1552C18.0307 26.4575 17.904 26.9069 17.6861 27.2699C17.4663 27.6359 17.1773 27.8792 16.8089 27.8569L16.7926 28.1252ZM14.8672 26.6423C14.9911 26.8781 15.2319 27.2302 15.5578 27.5319C15.8826 27.8327 16.3057 28.0957 16.7926 28.1252L16.8089 27.8569C16.4088 27.8327 16.0422 27.614 15.7404 27.3346C15.4396 27.0561 15.2166 26.7294 15.1053 26.5173L14.8672 26.6423ZM70.5985 12.5241C70.5602 13.0325 70.3646 13.7517 69.913 14.2648C69.6892 14.5193 69.4023 14.7224 69.0394 14.8267C68.6765 14.9312 68.2282 14.9394 67.6758 14.79L67.6059 15.0496C68.1959 15.2093 68.6953 15.2055 69.114 15.0851C69.5326 14.9646 69.8613 14.73 70.1146 14.4425C70.618 13.8713 70.8256 13.0886 70.866 12.5441L70.5985 12.5241ZM72.62 13.5974L70.8055 12.4213L70.659 12.6468L72.4735 13.8229L72.62 13.5974ZM71.0037 16.6187C71.0273 16.5905 71.0622 16.537 71.1032 16.4727C71.1455 16.4054 71.1986 16.3179 71.2605 16.2156C71.3828 16.0107 71.5387 15.7442 71.7053 15.4558C72.0387 14.879 72.417 14.2132 72.6637 13.7762L72.4298 13.6441C72.1832 14.0807 71.8055 14.7456 71.4728 15.3213C71.3062 15.6092 71.1509 15.8744 71.0293 16.0774C70.9688 16.179 70.9164 16.2644 70.876 16.3292C70.833 16.397 70.8068 16.4346 70.7967 16.4467L71.0037 16.6187ZM67.5064 14.9263C67.5299 15.4142 67.7289 16.0951 68.2652 16.5319C68.8109 16.9765 69.6691 17.1396 70.9473 16.6585L70.8532 16.4069C69.6314 16.8667 68.8828 16.6882 68.4345 16.3235C67.9775 15.9511 67.7961 15.3551 67.7752 14.9134L67.5064 14.9263ZM8.93639 60.498L8.73478 59.1539L8.46892 59.1938L8.67053 60.5379L8.93639 60.498ZM11.8754 59.0504L8.75037 60.3945L8.85655 60.6414L11.9816 59.2973L11.8754 59.0504ZM8.60185 59.3083H11.9285V59.0394H8.60185V59.3083ZM16.8033 71.1732C15.9314 71.3808 15.0995 71.8661 14.4172 72.3815C13.7341 72.8976 13.1922 73.4507 12.8999 73.8062L13.1076 73.9769C13.3865 73.6376 13.9131 73.0992 14.5792 72.5959C15.246 72.0919 16.0438 71.6308 16.8655 71.4353L16.8033 71.1732ZM17.9603 72.8472C18.1232 72.5502 18.1857 72.2901 18.163 72.065C18.14 71.8365 18.0309 71.6597 17.882 71.528C17.5926 71.272 17.1485 71.1812 16.8394 71.1698L16.8293 71.4386C17.1139 71.4494 17.483 71.5341 17.7038 71.729C17.8099 71.823 17.8803 71.9406 17.8955 72.0919C17.9111 72.2464 17.8708 72.4507 17.7246 72.7182L17.9603 72.8472ZM14.2711 75.5361C14.3309 75.5253 14.42 75.4958 14.5246 75.4548C14.6321 75.4131 14.7641 75.356 14.9133 75.2861C15.2118 75.1449 15.5818 74.9494 15.9646 74.7115C16.7245 74.2384 17.5564 73.5851 17.9603 72.8472L17.7246 72.7182C17.3556 73.3916 16.5746 74.0152 15.8225 74.483C15.4492 74.7155 15.0883 74.9064 14.7988 75.0428C14.6539 75.1107 14.5277 75.1651 14.4272 75.2041C14.3239 75.2444 14.2555 75.2652 14.223 75.2713L14.2711 75.5361ZM12.8762 73.8493C12.7601 74.1974 12.7559 74.4897 12.8338 74.7316C12.9117 74.9729 13.0674 75.1497 13.2461 75.2747C13.4237 75.3983 13.6261 75.4722 13.807 75.5112C13.9859 75.5502 14.1558 75.5569 14.2711 75.5361L14.223 75.2713C14.1534 75.2841 14.0209 75.2827 13.8637 75.2484C13.7086 75.2155 13.5414 75.153 13.3998 75.0542C13.2593 74.9561 13.1461 74.8244 13.0897 74.649C13.0331 74.4736 13.0289 74.2411 13.1312 73.9339L12.8762 73.8493ZM23.7053 83.1033L25.7887 81.4568L25.622 81.2458L23.5387 82.8923L23.7053 83.1033ZM24.6459 83.6315L23.7051 82.8923L23.5389 83.1033L24.4798 83.8425L24.6459 83.6315ZM25.5841 81.2935L24.4416 83.6792L24.6841 83.7948L25.8266 81.4091L25.5841 81.2935ZM48.118 90.7599V88.8781H47.8492V90.7599H48.118ZM49.7314 89.9991C49.7482 90.1839 49.6941 90.3103 49.6025 90.4037C49.506 90.5011 49.3572 90.5724 49.1709 90.6174C48.7978 90.7081 48.3274 90.6819 48.006 90.6275L47.9611 90.8923C48.3006 90.9501 48.8114 90.981 49.2341 90.8788C49.4457 90.8277 49.6485 90.7397 49.794 90.5919C49.9443 90.4393 50.0227 90.2337 49.9992 89.9749L49.7314 89.9991ZM47.9903 89.0126C48.3262 88.9958 48.5989 88.9877 48.8222 89.0011C49.0461 89.0152 49.2087 89.0502 49.3299 89.1113C49.5542 89.2249 49.682 89.4548 49.7314 89.9991L49.9992 89.9749C49.9478 89.4104 49.8068 89.0522 49.4514 88.8714C49.2828 88.7861 49.0779 88.7478 48.8387 88.733C48.5989 88.7182 48.3129 88.7269 47.9769 88.7437L47.9903 89.0126Z" fill="black"/>
</svg>
